<svg width="48" height="48" viewBox="0 0 48 48" fill="none" xmlns="http://www.w3.org/2000/svg">
<g clip-path="url(#clip0_0_263)">
<path d="M33.9375 0H14.0625C6.29625 0 0 6.29625 0 14.0625V33.9375C0 41.7038 6.29625 48 14.0625 48H33.9375C41.7038 48 48 41.7038 48 33.9375V14.0625C48 6.29625 41.7038 0 33.9375 0ZM35.7188 35.3794C35.7188 36.6741 34.6697 37.7231 33.375 37.7231H14.625C13.3303 37.7231 12.2812 36.6741 12.2812 35.3794C12.2812 34.0847 13.3303 33.0356 14.625 33.0356H33.375C34.6697 33.0356 35.7188 34.0847 35.7188 35.3794ZM35.6888 14.2781L21.9788 27.9881C21.0637 28.9031 19.5797 28.9031 18.6637 27.9881L12.3103 21.6347C11.3953 20.7197 11.3953 19.2356 12.3103 18.3197C13.2253 17.4037 14.7094 17.4047 15.6253 18.3197L20.3212 23.0156L32.3737 10.9641C33.2887 10.0491 34.7728 10.0491 35.6888 10.9641C36.6037 11.8791 36.6037 13.3631 35.6888 14.2791V14.2781Z" fill="#97E8FF"/>
</g>
<defs>
<clipPath id="clip0_0_263">
<rect width="48" height="48" fill="white"/>
</clipPath>
</defs>
</svg>
