<svg width="48" height="48" viewBox="0 0 48 48" fill="none" xmlns="http://www.w3.org/2000/svg">
<rect width="48" height="48" rx="14" fill="#97E8FF"/>
<path d="M21.4386 13.9276C20.6734 12.6018 19.3023 11.8105 17.7716 11.8105C16.2407 11.8105 14.8699 12.6018 14.1044 13.9276C13.3389 15.2534 13.3389 16.8365 14.1044 18.162L17.7716 24.5138L21.4389 18.162C22.204 16.8365 22.204 15.2534 21.4386 13.9276ZM17.7716 19.2431C16.0539 19.2431 14.6562 17.8456 14.6562 16.1279C14.6562 14.4102 16.0539 13.0127 17.7716 13.0127C19.4893 13.0127 20.8868 14.4102 20.8868 16.1279C20.8868 17.8456 19.4893 19.2431 17.7716 19.2431Z" fill="white"/>
<path d="M21.756 41.8602C22.3424 39.3059 21.1488 37.7466 19.422 35.4925C18.4898 34.2758 17.4332 32.8965 16.5776 31.1721C16.0857 30.1806 16.3118 28.5667 16.6501 26.8282L12.2614 19.2264C11.1111 17.2343 11.1111 14.8558 12.2614 12.8634C12.7868 11.9532 13.5026 11.2114 14.3441 10.6733C14.3092 10.2012 14.2271 9.58209 14.0593 9.00146C9.20581 12.2292 6 17.7469 6 24C6 33.1653 12.886 40.7522 21.756 41.8602Z" fill="white"/>
<path d="M17.772 15.1411C17.2279 15.1411 16.7852 15.5839 16.7852 16.128C16.7852 16.6721 17.2279 17.1145 17.772 17.1145C18.3161 17.1145 18.7586 16.6721 18.7586 16.128C18.7589 15.5839 18.3161 15.1411 17.772 15.1411Z" fill="white"/>
<path d="M24 42C26.7279 42 29.3155 41.3889 31.6344 40.2982C31.1886 38.7491 30.602 35.7337 32.1801 34.1549C32.8855 33.4493 34.1566 32.9198 35.6285 32.3065C38.024 31.3087 41 30.068 41.5507 28.004C41.8443 26.7158 42 25.3758 42 24C42 21.9096 41.6405 19.9018 40.9821 18.0336L39.7299 17.5387C39.7986 17.3648 39.8651 17.1918 39.9299 17.019C39.0202 17.0528 38.0076 17.3637 36.8883 17.7079C35.5529 18.1185 34.0489 18.5807 32.4567 18.5807C30.9637 18.5807 29.3929 18.1742 27.8106 16.9372C26.1228 15.6174 25.2195 13.1551 25.1261 9.61835C25.0887 8.20963 25.1901 6.91901 25.2879 6.04669C24.8624 6.0162 24.4331 6 24 6C21.1043 6 18.3665 6.68829 15.9404 7.9086C16.1849 8.56668 16.3219 9.24838 16.3986 9.82846C16.8427 9.7326 17.3022 9.68207 17.7719 9.68207C20.0721 9.68207 22.132 10.8713 23.282 12.8634C24.4323 14.8558 24.4323 17.2343 23.282 19.2264L19.2495 26.2113C19.6038 26.3975 19.9702 26.5878 20.3619 26.776L19.4409 28.6947C19.1317 28.5464 18.8351 28.3956 18.5563 28.2509C18.5214 28.4725 18.4906 28.6964 18.467 28.9142C18.3571 29.9359 18.4791 30.2155 18.4843 30.2271C19.2479 31.7657 20.1954 33.0022 21.1114 34.1983C22.8648 36.4868 24.5315 38.6635 23.9011 41.9989C23.9344 41.9989 23.967 42 24 42ZM38.8019 19.6637L40.7195 20.5871C40.3468 21.3614 39.9521 22.0996 39.5465 22.7819L37.717 21.694C38.0911 21.065 38.4561 20.3819 38.8019 19.6637ZM36.4511 23.5765L38.14 24.872C37.5854 25.5947 37.0051 26.2371 36.4148 26.7815L34.972 25.2165C35.473 24.7545 35.9707 24.2027 36.4511 23.5765ZM32.7069 26.7057C32.891 26.6315 33.0777 26.5453 33.2615 26.4489L34.2491 28.3344C34.0028 28.4635 33.7509 28.5799 33.5007 28.6805C32.9484 28.9024 32.3971 29.104 31.8621 29.2789L31.1999 27.2561C31.6907 27.0957 32.1977 26.9103 32.7069 26.7057ZM29.0078 27.8414L29.4316 29.9274C28.5736 30.1015 27.7241 30.2128 26.9067 30.2575L26.7903 28.1322C27.5046 28.093 28.2506 27.9952 29.0078 27.8414ZM21.8066 29.6385L22.4383 27.606C23.1532 27.8282 23.8555 27.9784 24.5856 28.0658L24.3329 30.1793C23.4729 30.0765 22.6465 29.8997 21.8066 29.6385Z" fill="white"/>
<path d="M29.1214 15.2602C31.5162 17.1325 33.8219 16.4239 36.2628 15.6733C37.3375 15.3429 38.4345 15.0059 39.5323 14.9136C36.9522 10.5201 32.5621 7.31268 27.3933 6.32227C27.0977 8.93811 27.0409 13.6337 29.1214 15.2602Z" fill="white"/>
<path d="M36.4468 34.2714C35.2894 34.7534 34.0927 35.252 33.6851 35.6598C33.0929 36.252 33.2165 37.8604 33.5546 39.2477C36.1103 37.6404 38.2351 35.4093 39.7141 32.769C38.6462 33.3549 37.499 33.8328 36.4468 34.2714Z" fill="white"/>
</svg>
