<svg width="48" height="48" viewBox="0 0 48 48" fill="none" xmlns="http://www.w3.org/2000/svg">
<g clip-path="url(#clip0_0_268)">
<path d="M17.4178 19.2938C15.3441 19.2938 13.6641 20.9747 13.6641 23.0475C13.6641 25.1203 15.3441 26.8022 17.4178 26.8022C19.4916 26.8022 21.1716 25.1213 21.1716 23.0475C21.1716 20.9737 19.4906 19.2938 17.4178 19.2938ZM24.2559 32.0175L23.1337 28.5159C22.8244 27.5513 21.7425 27.0694 20.8209 27.4912C19.9969 27.8681 18.8625 28.1991 17.4178 28.1991C15.9731 28.1991 14.8387 27.8681 14.0138 27.4912C13.0931 27.0694 12.0103 27.5513 11.7019 28.5159L10.5797 32.0175C10.1597 33.3291 11.1375 34.6697 12.5156 34.6697H22.32C23.6972 34.6697 24.6759 33.3291 24.2559 32.0175ZM36.5353 26.0953H28.9481C28.4241 26.0953 27.9994 26.52 27.9994 27.0431C27.9994 27.5662 28.4241 27.9919 28.9481 27.9919H36.5353C36.7969 27.9919 37.035 27.8859 37.2066 27.7144C37.3781 27.5428 37.4841 27.3047 37.4841 27.0431C37.4841 26.52 37.0594 26.0953 36.5353 26.0953ZM36.5353 22.7072H28.9481C28.4241 22.7072 27.9994 23.1319 27.9994 23.6559C27.9994 24.18 28.4241 24.6047 28.9481 24.6047H36.5353C36.7969 24.6047 37.035 24.4987 37.2066 24.3272C37.3781 24.1547 37.4841 23.9184 37.4841 23.6559C37.4841 23.1319 37.0594 22.7072 36.5353 22.7072ZM36.5353 19.32H28.9481C28.4241 19.32 27.9994 19.7447 27.9994 20.2687C27.9994 20.7928 28.4241 21.2175 28.9481 21.2175H36.5353C36.7969 21.2175 37.035 21.1116 37.2066 20.94C37.3781 20.7684 37.4841 20.5303 37.4841 20.2687C37.4841 19.7447 37.0594 19.32 36.5353 19.32ZM28.9481 21.2175H36.5353C36.7969 21.2175 37.035 21.1116 37.2066 20.94C37.3781 20.7684 37.4841 20.5303 37.4841 20.2687C37.4841 19.7447 37.0594 19.32 36.5353 19.32H28.9481C28.4241 19.32 27.9994 19.7447 27.9994 20.2687C27.9994 20.7928 28.4241 21.2175 28.9481 21.2175ZM36.5353 22.7072H28.9481C28.4241 22.7072 27.9994 23.1319 27.9994 23.6559C27.9994 24.18 28.4241 24.6047 28.9481 24.6047H36.5353C36.7969 24.6047 37.035 24.4987 37.2066 24.3272C37.3781 24.1547 37.4841 23.9184 37.4841 23.6559C37.4841 23.1319 37.0594 22.7072 36.5353 22.7072ZM36.5353 26.0953H28.9481C28.4241 26.0953 27.9994 26.52 27.9994 27.0431C27.9994 27.5662 28.4241 27.9919 28.9481 27.9919H36.5353C36.7969 27.9919 37.035 27.8859 37.2066 27.7144C37.3781 27.5428 37.4841 27.3047 37.4841 27.0431C37.4841 26.52 37.0594 26.0953 36.5353 26.0953ZM23.1337 28.5159C22.8244 27.5513 21.7425 27.0694 20.8209 27.4912C19.9969 27.8681 18.8625 28.1991 17.4178 28.1991C15.9731 28.1991 14.8387 27.8681 14.0138 27.4912C13.0931 27.0694 12.0103 27.5513 11.7019 28.5159L10.5797 32.0175C10.1597 33.3291 11.1375 34.6697 12.5156 34.6697H22.32C23.6972 34.6697 24.6759 33.3291 24.2559 32.0175L23.1337 28.5159ZM17.4178 26.8022C19.4906 26.8022 21.1716 25.1213 21.1716 23.0475C21.1716 20.9737 19.4906 19.2938 17.4178 19.2938C15.345 19.2938 13.6641 20.9747 13.6641 23.0475C13.6641 25.1203 15.3441 26.8022 17.4178 26.8022ZM33.9375 0H14.0625C6.29625 0 0 6.29625 0 14.0625V33.9375C0 41.7038 6.29625 48 14.0625 48H33.9375C41.7038 48 48 41.7038 48 33.9375V14.0625C48 6.29625 41.7038 0 33.9375 0ZM41.3438 34.1625C41.3438 36.0328 39.8269 37.5497 37.9566 37.5497H10.0434C8.17312 37.5497 6.65625 36.0328 6.65625 34.1625V16.4147H41.3438V34.1625ZM41.3438 14.5172H6.65625V13.8375C6.65625 11.9672 8.17312 10.4503 10.0434 10.4503H37.9566C39.8269 10.4503 41.3438 11.9672 41.3438 13.8375V14.5172ZM28.9481 21.2175H36.5353C36.7969 21.2175 37.035 21.1116 37.2066 20.94C37.3781 20.7684 37.4841 20.5303 37.4841 20.2687C37.4841 19.7447 37.0594 19.32 36.5353 19.32H28.9481C28.4241 19.32 27.9994 19.7447 27.9994 20.2687C27.9994 20.7928 28.4241 21.2175 28.9481 21.2175ZM28.9481 24.6047H36.5353C36.7969 24.6047 37.035 24.4987 37.2066 24.3272C37.3781 24.1547 37.4841 23.9184 37.4841 23.6559C37.4841 23.1319 37.0594 22.7072 36.5353 22.7072H28.9481C28.4241 22.7072 27.9994 23.1319 27.9994 23.6559C27.9994 24.18 28.4241 24.6047 28.9481 24.6047ZM28.9481 27.9919H36.5353C36.7969 27.9919 37.035 27.8859 37.2066 27.7144C37.3781 27.5428 37.4841 27.3047 37.4841 27.0431C37.4841 26.52 37.0594 26.0953 36.5353 26.0953H28.9481C28.4241 26.0953 27.9994 26.52 27.9994 27.0431C27.9994 27.5662 28.4241 27.9919 28.9481 27.9919ZM12.5156 34.6697H22.32C23.6972 34.6697 24.6759 33.3291 24.2559 32.0175L23.1337 28.5159C22.8244 27.5513 21.7425 27.0694 20.8209 27.4912C19.9969 27.8681 18.8625 28.1991 17.4178 28.1991C15.9731 28.1991 14.8387 27.8681 14.0138 27.4912C13.0931 27.0694 12.0103 27.5513 11.7019 28.5159L10.5797 32.0175C10.1597 33.3291 11.1375 34.6697 12.5156 34.6697ZM17.4178 26.8022C19.4906 26.8022 21.1716 25.1213 21.1716 23.0475C21.1716 20.9737 19.4906 19.2938 17.4178 19.2938C15.345 19.2938 13.6641 20.9747 13.6641 23.0475C13.6641 25.1203 15.3441 26.8022 17.4178 26.8022Z" fill="#97E8FF"/>
</g>
<defs>
<clipPath id="clip0_0_268">
<rect width="48" height="48" fill="white"/>
</clipPath>
</defs>
</svg>
