<svg width="48" height="48" viewBox="0 0 48 48" fill="none" xmlns="http://www.w3.org/2000/svg">
<g clip-path="url(#clip0_0_258)">
<path d="M33.9375 0H14.0625C6.29625 0 0 6.29625 0 14.0625V33.9375C0 41.7038 6.29625 48 14.0625 48H33.9375C41.7038 48 48 41.7038 48 33.9375V14.0625C48 6.29625 41.7038 0 33.9375 0ZM9.66562 12.0094C9.66562 10.7147 10.7147 9.66562 12.0094 9.66562H19.2816C20.5763 9.66562 21.6253 10.7147 21.6253 12.0094C21.6253 13.3041 20.5763 14.3531 19.2816 14.3531H17.6672L21.4622 18.1481C22.3772 19.0631 22.3772 20.5472 21.4622 21.4631C20.5472 22.3781 19.0631 22.3781 18.1472 21.4631L14.3522 17.6681V19.2825C14.3522 20.5772 13.3031 21.6262 12.0084 21.6262C10.7137 21.6262 9.66469 20.5772 9.66469 19.2825V12.0103L9.66562 12.0094ZM19.2816 33.6478C20.5763 33.6478 21.6253 34.6969 21.6253 35.9916C21.6253 37.2863 20.5763 38.3353 19.2816 38.3353H12.0094C10.7147 38.3353 9.66562 37.2863 9.66562 35.9916V28.7194C9.66562 27.4247 10.7147 26.3756 12.0094 26.3756C13.3041 26.3756 14.3531 27.4247 14.3531 28.7194V30.3337L18.1481 26.5387C19.0631 25.6237 20.5472 25.6237 21.4631 26.5387C22.3781 27.4537 22.3781 28.9378 21.4631 29.8538L17.6681 33.6488H19.2825L19.2816 33.6478ZM28.7184 14.3531C27.4237 14.3531 26.3747 13.3041 26.3747 12.0094C26.3747 10.7147 27.4237 9.66562 28.7184 9.66562H35.9906C37.2853 9.66562 38.3344 10.7147 38.3344 12.0094V19.2816C38.3344 20.5763 37.2853 21.6253 35.9906 21.6253C34.6959 21.6253 33.6469 20.5763 33.6469 19.2816V17.6672L29.8519 21.4622C28.9369 22.3772 27.4528 22.3772 26.5369 21.4622C25.6219 20.5472 25.6219 19.0631 26.5369 18.1472L30.3319 14.3522H28.7175L28.7184 14.3531ZM38.3344 35.9916C38.3344 37.2863 37.2853 38.3353 35.9906 38.3353H28.7184C27.4237 38.3353 26.3747 37.2863 26.3747 35.9916C26.3747 34.6969 27.4237 33.6478 28.7184 33.6478H30.3328L26.5378 29.8528C25.6228 28.9378 25.6228 27.4538 26.5378 26.5378C27.4528 25.6228 28.9369 25.6228 29.8528 26.5378L33.6478 30.3328V28.7184C33.6478 27.4237 34.6969 26.3747 35.9916 26.3747C37.2863 26.3747 38.3353 27.4237 38.3353 28.7184V35.9906L38.3344 35.9916Z" fill="#97E8FF"/>
</g>
<defs>
<clipPath id="clip0_0_258">
<rect width="48" height="48" fill="white"/>
</clipPath>
</defs>
</svg>
