<svg width="137" height="331" viewBox="0 0 137 331" fill="none" xmlns="http://www.w3.org/2000/svg">
<path d="M56.0362 16.6269C58.4847 17.6003 60.772 18.998 62.788 20.7837C73.1688 10.6846 84.8251 3.40296 97.5371 0H74.5103C67.8684 4.93246 61.6884 10.5382 56.0362 16.6269Z" fill="white"/>
<path d="M66.2715 0H53.4349C50.5318 3.26392 47.768 6.73274 45.1288 10.4211C43.8679 12.1409 42.6363 13.8899 41.434 15.6609C43.3181 15.1853 45.2681 14.9364 47.2548 14.9364C48.3911 14.9364 49.5201 15.0169 50.6271 15.1779C55.3629 9.67465 60.6046 4.55924 66.2715 0Z" fill="white"/>
<path d="M30.0919 48.4759C30.6051 49.3541 31.1916 50.203 31.8587 51.0153C32.2766 51.5203 32.7164 52.0106 33.1929 52.4863C34.1972 53.4889 35.6415 54.4622 37.4009 55.3989C39.2337 51.9886 41.1544 48.6808 43.1631 45.4901C40.8319 43.9752 39.2776 41.3626 39.241 38.3841V38.2743C39.241 34.5786 41.5723 31.4245 44.8419 30.2024C45.7876 29.8438 46.814 29.6462 47.8843 29.6462C49.8637 29.6462 51.6891 30.3121 53.1406 31.4318C55.4206 28.5997 57.7739 25.9212 60.2078 23.3964C58.1551 21.6181 55.8238 20.3448 53.3752 19.5617C51.5645 18.9689 49.6804 18.6542 47.7963 18.6103C47.6131 18.5957 47.4371 18.5957 47.2538 18.5957C44.0575 18.5957 40.8612 19.3641 37.9654 20.8936C36.3379 21.7498 34.8057 22.8476 33.4202 24.2014C33.3395 24.2673 33.2662 24.3405 33.1929 24.4137C26.6609 30.9342 25.6273 40.8723 30.0919 48.4759Z" fill="white"/>
<path d="M14.1924 123.934C18.3344 100.676 25.6874 78.0778 35.7016 58.5968C33.5976 57.4844 31.8455 56.3062 30.6065 55.0694C30.4159 54.8791 30.2253 54.6815 30.0567 54.484C27.7768 58.9554 25.6435 63.5146 23.6128 68.1543C24.8884 62.8852 26.5012 57.6747 28.4439 52.5812C25.3649 48.5269 23.708 43.6164 23.708 38.4498C23.708 32.1635 26.1566 26.265 30.6065 21.8229C32.3807 20.0519 34.3967 18.5882 36.574 17.4905C38.1722 14.3217 39.9169 11.2115 41.8083 8.18174C43.4945 5.3496 45.3273 2.61991 47.2993 0H36.3468C30.8558 9.22093 26.2006 19.4225 22.4984 30.3193C7.11793 75.6043 14.1924 123.934 14.1924 123.934Z" fill="white"/>
<path d="M134.53 34.9007C135.293 35.6325 135.263 36.6863 136.026 37.5133V32.6833C135.249 32.9687 134.523 33.3053 133.709 33.5322C133.005 33.7298 132.052 33.5907 131.517 33.9274C130.337 34.6738 130.681 36.0862 128.988 35.4349C127.925 35.0324 127.06 33.2541 126.767 32.515C126.671 32.2881 127.111 31.9222 126.781 31.3148C126.547 30.8903 124.868 30.056 124.479 29.9316C125.286 31.9807 123.688 32.8589 121.869 32.332C122.053 33.2248 122.742 33.4371 123.211 34.3372C123.578 35.0471 123.38 36.1375 123.805 36.7302C125.044 38.4573 126.187 36.6351 127.595 36.7522C129.193 36.8839 129.494 38.3695 131.407 37.6231C132.646 37.1474 133.716 35.7935 134.53 34.9007Z" fill="white"/>
<path d="M136.026 56.424V47.3641C135.886 47.1884 135.791 46.9689 135.74 46.6981C135.71 46.5518 135.703 46.3834 135.71 46.2005C135.219 46.12 134.655 46.4127 134.083 46.8957C132.734 48.0154 131.319 50.1743 130.601 50.972C129.838 51.8282 128.636 52.5015 128.049 53.4309H128.042C127.698 53.9797 127.558 54.6091 127.844 55.4141C127.397 55.0116 127.111 54.4115 126.928 53.7821C126.803 53.3577 126.723 52.9113 126.664 52.5088C126.444 50.9134 126.077 51.3305 127.58 50.3938C128.203 50.0133 132.213 48.5789 132.514 47.1445C132.617 46.6908 132.338 46.2371 131.466 45.8126C130.249 45.2199 128.174 47.1738 126.921 47.4007C124.817 47.7885 123.49 47.4592 122.309 49.8084C122.273 49.8815 122.236 49.962 122.207 50.0425C121.679 51.2354 121.584 52.7869 121.224 54.009C120.477 56.6216 119.831 56.3069 117.236 55.8459C119.157 55.2677 119.436 52.9332 118.035 51.9526C117.852 51.8209 117.639 51.7111 117.39 51.6379C116.884 51.4769 114.458 51.8062 113.798 52.4429C113.211 52.9991 113.585 54.0236 113.131 54.6311C112.324 55.6922 110.77 55.6776 109.671 56.2264C108.857 56.6436 108.124 57.4852 107.207 57.6096C105.47 57.8584 104.282 55.158 103.102 54.8067C100.404 54.009 100.837 57.0241 101.233 59.2635C101.467 60.5588 102.325 61.9712 103.454 62.9884C104.282 63.7568 105.257 64.2984 106.225 64.4374C106.768 64.5106 107.383 64.5106 108.014 64.4594C109.634 64.3277 111.423 63.8959 112.764 63.6544C115.169 63.2153 116.994 62.0883 119.113 61.2979C122.405 60.0685 121.444 61.8029 121.261 64.0715C123.182 63.6837 124.97 62.3444 126.935 61.8395C128.159 61.5248 129.296 61.4516 130.483 61.0491C131.458 60.7125 133.137 60.6393 133.995 60.2734C136.209 59.322 134.699 59.6879 134.867 57.7632C134.999 56.2484 135.029 56.5411 136.026 56.424Z" fill="white"/>
<path d="M71.6519 50.2611C71.8058 50.8538 71.9525 51.4393 72.0917 52.0248C68.6608 55.6326 65.5305 59.5405 62.752 63.69C62.2755 63.5802 61.7916 63.4631 61.2931 63.346C64.3282 58.6624 67.8031 54.2788 71.6592 50.2611H71.6519ZM55.1571 74.4111C56.3887 71.7473 57.7523 69.1493 59.2405 66.6392C59.717 66.7563 60.1788 66.8661 60.6407 66.9758C58.6833 70.1885 56.9238 73.5329 55.3917 77.0018C55.6043 79.6509 55.4063 81.4 54.6146 84.1955C54.49 84.6273 54.1894 85.8202 53.8595 87.357C52.9284 91.7845 51.8141 99.0515 54.292 99.271C54.7685 98.1513 54.292 96.878 54.3653 95.6705C54.4973 93.7238 55.245 91.7187 55.7362 89.8379C57.1877 84.3712 58.6833 79.3436 62.6054 75.1722C63.5438 74.1696 64.1889 71.8424 65.0466 71.1472C66.5495 69.9324 67.8397 71.7839 69.2473 72.1205C71.4173 72.6401 73.0375 71.74 73.9098 69.786C73.9172 69.7714 73.9245 69.7567 73.9318 69.7421C73.9465 69.7641 73.9611 69.7787 73.9831 69.8007C74.7089 70.6715 76.1825 70.7154 77.3334 70.3934C77.6193 70.3129 77.8833 70.2105 78.1105 70.0934C78.6383 69.8153 78.9902 69.3616 79.3201 68.8859C79.6354 68.4248 79.9139 67.9418 80.3098 67.554C81.5048 66.405 82.9417 65.9513 84.5618 65.5122C84.4005 67.6564 82.3772 69.8738 81.1162 71.7107C80.2805 72.9402 79.716 74.2574 77.9052 73.972C76.2778 73.7159 76.5857 72.5742 75.4787 71.7107C74.9582 72.4206 74.4303 73.2768 74.0345 74.1038C72.8835 73.7744 70.9188 75.0844 70.6475 76.0724C70.3983 77.0018 70.9261 81.1731 71.2047 82.022C71.7325 83.6613 73.338 84.7664 74.6869 86.1275C75.64 87.0862 76.8422 88.0083 77.6706 89.0768C78.4111 90.0135 78.9243 90.4306 79.6354 91.0893C82.8244 93.9873 82.5091 93.4238 83.4475 90.0501C84.056 87.8985 86.4386 86.6325 87.5749 84.7883C88.9165 82.6075 89.5469 79.6949 91.0278 77.697C91.7022 76.7822 92.8166 76.2407 93.5277 75.4796C94.3707 74.5867 95.0599 73.3793 95.9396 72.4572V72.4206C96.0715 72.2742 96.2108 72.1352 96.3501 71.9888C97.8823 70.4373 99.6271 68.9152 101.247 67.4735C101.372 68.9444 101.13 70.2983 100.661 71.5643C99.9277 73.5549 98.6227 75.3186 97.2298 76.9505C95.6757 78.7874 95.4044 81.0341 94.3341 83.171C93.381 85.0884 91.6069 86.7203 90.236 88.3742C89.0264 89.8379 86.8784 91.1625 85.962 92.6481C85.119 94.0092 85.6321 95.6924 83.7847 96.2632C82.4358 96.6804 78.0519 95.4509 76.725 94.8874C75.6033 94.4117 75.4054 93.314 74.1004 94.2727C73.47 99.2271 76.8789 104.774 79.5107 108.697C80.5444 110.241 81.5708 110.578 82.9197 111.536C84.1146 112.378 84.4885 113.19 85.3462 114.559C86.9591 117.157 89.1217 119.294 89.5909 122.426C89.9355 124.724 88.8871 126.158 88.3226 128.229C87.7142 130.439 87.8535 133.11 88.7698 135.262C89.0264 135.862 89.6496 136.506 89.9794 137.121C90.4853 138.072 90.6319 139.214 91.409 140.121C92.7433 141.709 94.1362 141.848 96.0129 142.551C95.771 143.422 94.6567 145.42 95.0085 146.349C95.2945 147.117 95.705 146.686 96.0715 147.205C96.6727 148.054 97.3471 149.086 98.0362 149.964C99.3705 151.699 101.335 153.155 102.838 154.714C104.4 156.346 105.096 158.446 106.159 160.415C106.474 161.022 106.768 161.915 107.332 162.325C107.867 162.712 108.659 162.186 109.216 162.712C109.927 163.386 109.436 164.608 110.169 165.23C110.338 165.369 112.288 165.589 112.588 165.647C115.33 166.174 118.717 166.862 121.598 166.613C122.273 163.605 124.355 162.42 125.865 159.727C127.551 156.712 127.8 154.084 128.431 150.945C128.599 150.096 128.937 148.603 129.288 147.732C129.831 146.349 131.238 146.064 131.935 145.032C132.587 144.051 132.499 140.846 132.272 139.697C131.994 138.358 131.055 136.367 130.747 135.24C130.241 133.388 130.102 132.02 130.307 130.146C130.696 126.546 133.57 125.514 135.586 122.821C135.74 122.609 135.886 122.397 136.018 122.177V200.584C135.256 200.584 134.501 200.577 133.746 200.555C132.976 200.533 132.206 200.504 131.436 200.467C130.703 200.43 129.97 200.387 129.237 200.328C128.489 200.269 127.749 200.204 127.008 200.13C126.972 200.123 126.942 200.123 126.913 200.123C125.506 199.977 124.105 199.801 122.72 199.596C79.8406 193.185 46.961 156.272 46.961 111.683C46.961 98.3709 49.8934 85.747 55.1497 74.4111H55.1571ZM87.5309 146.012C86.5998 144.688 84.1513 145.544 84.5691 143.166C84.8331 141.636 87.2963 141.131 85.5808 139.228C84.9577 138.548 82.4358 138.175 81.4388 137.926C80.8743 137.787 80.823 138.54 80.2219 138.145C80.0752 138.043 79.738 136.579 79.6427 136.33C79.3201 135.408 79.2615 134.201 78.1179 134.311C76.4684 134.508 80.3025 141.834 81.0356 143.334C82.3625 146.056 83.6308 153.396 88.1613 151.377C88.3739 150.55 88.0294 146.708 87.5309 146.012ZM110.69 26.4403C118.717 24.0546 127.221 22.7812 136.026 22.7812V31.4606C134.068 30.4873 132.052 30.9337 130.095 29.8506C128.812 29.1334 127.764 28.0943 126.451 27.3258C126.048 27.0843 125.616 26.8648 125.139 26.6965C123.064 25.9573 116.811 26.5867 115.865 29.1774C115.77 29.4554 115.733 29.7555 115.763 30.0775C115.293 29.8872 114.986 29.6604 114.729 29.4554C114.187 29.0164 113.842 28.6358 112.574 28.6797C111.87 28.709 110.074 29.3969 109.509 28.6651C96.4894 32.756 84.7671 39.7887 75.1341 48.9804C74.9875 48.4023 74.8336 47.8314 74.6869 47.2387C84.7451 37.6884 97.0319 30.4727 110.69 26.4403Z" fill="white"/>
<path d="M126.451 27.3263C129.618 26.9751 132.815 26.7994 136.026 26.7994L135.996 22.3535C126.707 22.3535 117.595 23.8063 108.85 26.5726C95.9176 30.6342 84.2246 37.506 74.5037 46.5439C74.5623 46.7781 74.6283 47.005 74.6869 47.2318C74.8336 47.8319 74.9875 48.4027 75.1341 48.9809C75.3467 49.8152 75.552 50.6348 75.7426 51.4325C85.3243 42.0066 97.0832 34.8714 110.169 30.7586C111.679 30.2829 113.197 29.8438 114.729 29.4559C115.103 29.3608 115.484 29.2657 115.865 29.1778C119.34 28.3363 122.881 27.7215 126.451 27.3263Z" fill="white"/>
<path d="M65.0388 64.2169C67.3554 60.8139 69.9212 57.5939 72.6997 54.5788C72.5091 53.7519 72.3038 52.8956 72.0912 52.0248C71.952 51.4393 71.8053 50.8539 71.6514 50.2611C71.5854 50.005 71.5267 49.7561 71.4608 49.5C67.37 53.6641 63.6825 58.2306 60.4642 63.1484C60.7355 63.2143 61.0067 63.2802 61.278 63.346C61.7765 63.4631 62.2603 63.5802 62.7368 63.69C63.5213 63.8729 64.2837 64.0486 65.0241 64.2169H65.0388Z" fill="white"/>
<path d="M45.6854 112.591C45.6854 135.058 54.0061 156.581 69.1227 173.2C84.1293 189.703 104.576 200.043 126.693 202.305L126.833 202.319C127.573 202.392 128.321 202.458 129.076 202.517C129.824 202.575 130.579 202.619 131.334 202.663C132.126 202.7 132.91 202.729 133.694 202.751C134.464 202.773 135.241 202.78 136.026 202.78V198.389C135.285 198.389 134.552 198.382 133.819 198.36C133.057 198.338 132.301 198.309 131.546 198.272C130.843 198.243 130.131 198.199 129.42 198.141C128.702 198.082 127.998 198.024 127.294 197.95C127.206 197.943 127.133 197.936 127.067 197.928C83.1762 193.391 50.084 156.72 50.084 112.591C50.084 103.933 51.3522 95.481 53.8668 87.3578C54.8491 84.1524 56.0368 80.9909 57.4077 77.8953C59.0058 74.2875 60.8386 70.826 62.8913 67.5108C62.1655 67.3425 61.4104 67.1596 60.648 66.9766C60.1861 66.8668 59.7243 66.7571 59.2478 66.64C58.9765 66.5741 58.6979 66.5009 58.4194 66.4277C56.5573 69.5306 54.8785 72.7726 53.3976 76.117C48.2879 87.6286 45.6927 99.9012 45.6927 112.591H45.6854Z" fill="white"/>
<path d="M33.1937 24.4137C33.267 24.3405 33.3403 24.2673 33.4209 24.2014C34.8065 22.8476 36.3387 21.7498 37.9662 20.8936C40.8619 19.3641 44.0583 18.5957 47.2546 18.5957C47.4379 18.5957 47.6138 18.5957 47.7971 18.6103C49.6812 18.6542 51.5653 18.9689 53.376 19.5617C55.8246 20.3448 58.1559 21.6181 60.2085 23.3964C60.5898 23.7111 60.9563 24.0551 61.3155 24.4137C65.3696 28.4606 68.9618 39.6941 71.4617 49.5004C71.5276 49.7566 71.5863 50.0054 71.6523 50.2542C71.8062 50.8543 71.9528 51.4398 72.0921 52.0252C72.3047 52.8961 72.51 53.7523 72.7006 54.5793C74.2474 61.2388 75.1418 66.2884 75.1418 66.2884C75.1418 66.2884 70.8825 65.5346 65.0397 64.2173C64.2993 64.049 63.5368 63.8734 62.7524 63.6904C62.2759 63.5807 61.792 63.4636 61.2935 63.3465C61.0223 63.2806 60.751 63.2147 60.4798 63.1489C52.5769 61.2169 43.2665 58.5165 37.4164 55.3989C35.6569 54.4622 34.2127 53.4889 33.2084 52.4863C32.7318 52.0106 32.292 51.5203 31.8741 51.0153C31.207 50.203 30.6205 49.3541 30.1073 48.4759C25.6428 40.8723 26.6764 30.9342 33.2084 24.4137H33.1937ZM43.1639 45.4901C44.5201 46.3829 46.1403 46.8952 47.8851 46.8952C52.6576 46.8952 56.521 43.0385 56.521 38.2743C56.521 35.4861 55.2014 33.0052 53.1414 31.4318C51.6899 30.3121 49.8645 29.6462 47.8851 29.6462C46.8148 29.6462 45.7884 29.8438 44.8427 30.2024C41.5731 31.4245 39.2418 34.5786 39.2418 38.2743V38.3841C39.2784 41.3626 40.8326 43.9752 43.1639 45.4901Z" fill="white"/>
<path d="M94.1438 218.631C94.1438 211.101 100.969 204.99 109.4 204.99C117.83 204.99 124.656 211.094 124.656 218.631C124.656 220.585 124.194 222.473 123.365 224.2C120.448 230.758 112.391 235.58 112.068 238.573H106.731C106.409 235.58 98.3518 230.758 95.4341 224.2C94.6056 222.473 94.1438 220.585 94.1438 218.631Z" fill="white"/>
<path d="M106.724 241.947H112.061V245.899H106.724V241.947Z" fill="white"/>
<path d="M63.9616 264.881C63.9616 264.881 63.9909 264.896 64.0056 264.91C64.4381 265.196 64.878 265.481 65.3032 265.767C65.7357 266.052 66.1682 266.337 66.5934 266.63C67.0186 266.908 67.4438 267.201 67.869 267.494C68.2136 267.728 68.5581 267.962 68.9027 268.204C69.4012 268.548 69.8997 268.892 70.3909 269.25C70.7941 269.521 71.1973 269.806 71.5932 270.099C72.0257 270.399 72.4509 270.706 72.8761 271.021C73.4919 271.46 74.1004 271.907 74.7089 272.36C75.3174 272.799 75.9185 273.253 76.5197 273.714C78.1178 274.914 79.6866 276.129 81.2262 277.359C81.9959 277.966 82.7583 278.581 83.5134 279.203C83.8433 279.459 84.1659 279.73 84.4885 280.001C84.5031 280.001 84.5178 280.023 84.5325 280.03C84.5764 280.066 84.6204 280.103 84.6644 280.147C84.7231 280.184 84.7744 280.227 84.833 280.286C85.1409 280.535 85.4562 280.791 85.7567 281.054C86.4825 281.647 87.2009 282.255 87.9121 282.869C88.2493 283.155 88.5865 283.44 88.9164 283.733C89.5615 284.282 90.1993 284.838 90.8298 285.394C92.34 286.719 93.8062 288.051 95.2431 289.375C95.7123 289.807 96.1815 290.246 96.6507 290.685C97.0832 291.088 97.5157 291.49 97.9409 291.9C98.3661 292.302 98.7913 292.705 99.2019 293.107C99.6197 293.51 100.038 293.912 100.448 294.315C101.225 295.061 101.988 295.815 102.735 296.562C102.757 296.584 102.772 296.598 102.794 296.62C103.131 296.957 103.469 297.301 103.806 297.637C103.82 297.659 103.842 297.674 103.857 297.696C106.218 300.082 108.446 302.424 110.55 304.707C110.558 304.714 110.565 304.721 110.572 304.736C113.387 307.802 115.961 310.752 118.285 313.533C118.336 313.591 118.38 313.65 118.431 313.708C120.762 317.565 122.771 321.122 124.428 324.29C124.428 324.298 124.435 324.298 124.435 324.305C124.677 324.766 124.912 325.227 125.146 325.673C125.374 326.127 125.594 326.566 125.806 326.991C126.503 328.403 127.118 329.72 127.646 330.928C127.434 329.867 127.155 328.718 126.803 327.481C126.737 327.232 126.664 326.976 126.583 326.713C126.569 326.654 126.547 326.588 126.532 326.53C126.517 326.5 126.51 326.471 126.503 326.442C126.422 326.171 126.334 325.893 126.246 325.615C126.246 325.615 126.246 325.608 126.239 325.608C126.224 325.527 126.195 325.461 126.165 325.381C126.129 325.256 126.092 325.132 126.048 325.007C125.748 324.056 125.403 323.061 125.029 322.029C125.029 322.029 125.029 322.014 125.022 322.014C124.714 321.195 124.399 320.346 124.061 319.475C124.061 319.46 124.047 319.453 124.039 319.438C124.032 319.431 124.032 319.416 124.025 319.409C123.9 319.08 123.768 318.75 123.629 318.414C123.49 318.07 123.35 317.719 123.204 317.367C122.69 316.13 122.141 314.85 121.554 313.533H121.547C120.806 311.857 119.993 310.115 119.12 308.322C118.966 308 118.805 307.678 118.658 307.356H118.651V307.334C118.416 306.851 118.175 306.375 117.933 305.885C117.727 305.475 117.515 305.065 117.302 304.648C115.961 302.006 114.502 299.262 112.926 296.445C112.926 296.437 112.926 296.43 112.918 296.423C112.764 296.145 112.61 295.866 112.456 295.596C112.214 295.164 111.973 294.732 111.723 294.3C111.716 294.286 111.709 294.264 111.694 294.249C111.181 293.349 110.66 292.449 110.132 291.534C109.553 290.546 108.967 289.551 108.366 288.556C107.977 287.904 107.581 287.253 107.185 286.602C106.789 285.95 106.386 285.299 105.976 284.64C105.573 283.982 105.155 283.316 104.737 282.65C104.312 281.984 103.894 281.318 103.461 280.652C103.036 279.979 102.603 279.313 102.164 278.639C102.054 278.471 101.944 278.295 101.826 278.127C101.262 277.264 100.69 276.4 100.111 275.536C99.1065 274.029 98.0729 272.507 97.0099 270.985C96.1375 269.718 95.2358 268.445 94.3267 267.172C91.4016 263.081 88.3153 258.968 85.0823 254.87C84.4738 254.101 83.8653 253.34 83.2495 252.572C82.0399 251.064 80.8083 249.557 79.5474 248.057C78.7189 249.14 77.8686 250.208 76.9888 251.247C76.593 251.723 76.1971 252.191 75.7866 252.652C75.398 253.106 74.9948 253.56 74.5916 254.006C74.2983 254.336 73.9978 254.665 73.6899 254.994C73.6092 255.097 73.5139 255.192 73.4113 255.294C73.096 255.646 72.7735 255.997 72.4363 256.341C72.3556 256.436 72.2676 256.531 72.1723 256.626C71.8424 256.978 71.5125 257.321 71.168 257.665C71.0873 257.761 70.9994 257.856 70.8967 257.951C69.9804 258.902 69.0567 259.832 68.1549 260.739C67.7078 261.185 67.2679 261.625 66.828 262.056C66.3955 262.488 65.963 262.913 65.5378 263.33L65.5158 263.352C65.0099 263.857 64.4894 264.369 63.9763 264.881H63.9616Z" fill="white"/>
<path d="M70.8607 252.668C71.2126 252.287 71.5571 251.899 71.909 251.511C72.3122 251.065 72.7154 250.611 73.1113 250.15C73.5145 249.689 73.9104 249.228 74.3062 248.753C75.2739 247.596 76.2123 246.411 77.1067 245.196C77.0847 245.159 77.0554 245.123 77.0187 245.086C76.3956 244.362 75.7724 243.63 75.1346 242.913C74.8194 242.547 74.5042 242.188 74.1816 241.83C73.6758 241.251 73.1626 240.673 72.6421 240.102C72.1949 239.597 71.7404 239.1 71.2859 238.602C70.868 238.141 70.4501 237.68 70.0249 237.219C69.1379 239.005 68.1922 240.746 67.2025 242.452C66.8872 242.993 66.572 243.527 66.2494 244.062C65.9269 244.588 65.6043 245.108 65.2817 245.628C65.0911 245.935 64.8932 246.242 64.7026 246.542C64.4167 246.982 64.1381 247.406 63.8595 247.83C63.8009 247.926 63.7422 248.006 63.6836 248.094C63.405 248.518 63.1191 248.935 62.8332 249.345C62.7672 249.44 62.7012 249.536 62.6352 249.631C62.3567 250.041 62.0708 250.45 61.7848 250.853C61.5136 251.233 61.2423 251.607 60.9711 251.98C61.1544 251.541 61.3303 251.109 61.5136 250.67C61.7262 250.165 61.9314 249.66 62.1367 249.148C62.166 249.082 62.1954 249.009 62.2247 248.935C62.4446 248.401 62.6646 247.86 62.8772 247.318C62.8992 247.282 62.9138 247.238 62.9285 247.201C63.1631 246.63 63.3903 246.067 63.6103 245.496C63.7422 245.174 63.8742 244.859 63.9915 244.537C64.2334 243.937 64.468 243.337 64.6953 242.737C64.9299 242.137 65.1571 241.537 65.3844 240.929C66.1688 238.844 66.9165 236.751 67.613 234.65C67.3564 234.372 67.0925 234.101 66.8286 233.823C66.3301 233.296 65.8242 232.77 65.3184 232.25L60.7878 237.182L59.5489 238.536L58.3026 239.89L57.9727 240.249L56.7411 241.595L55.7661 242.656L55.5022 242.942L54.5051 244.032L53.2295 245.415L50.825 248.035L49.5567 249.418L48.3031 250.78L45.29 254.066C46.1184 254.49 46.9468 254.914 47.7679 255.354C48.1198 255.529 48.4717 255.719 48.8236 255.91C50.3924 256.744 51.9393 257.6 53.4715 258.478C53.86 258.698 54.2485 258.918 54.6371 259.144C55.3482 259.554 56.0593 259.971 56.7631 260.396C57.0783 260.579 57.4009 260.769 57.7161 260.967C58.7571 261.589 59.7835 262.218 60.8025 262.862C61.3963 262.277 61.9974 261.676 62.6059 261.069C63.0458 260.645 63.4783 260.213 63.9182 259.774C64.358 259.342 64.8052 258.903 65.2524 258.456C66.2348 257.476 67.2391 256.466 68.2361 255.434C68.2728 255.397 68.3094 255.361 68.3461 255.324C68.7346 254.922 69.1232 254.512 69.5118 254.102C69.5484 254.066 69.5851 254.029 69.6144 253.992C70.0029 253.59 70.3915 253.18 70.7727 252.763" fill="white"/>
<path d="M70.8594 252.667C71.2113 252.287 71.5558 251.899 71.9077 251.511C72.3109 251.065 72.7141 250.611 73.11 250.15C73.5132 249.689 73.9091 249.228 74.305 248.752C75.2726 247.596 76.211 246.41 77.1054 245.195C77.1347 245.225 77.1567 245.254 77.186 245.283C77.164 245.254 77.1347 245.225 77.1127 245.188C77.1201 245.181 77.1274 245.166 77.1347 245.159C77.472 244.705 77.8019 244.244 78.1244 243.783C78.1538 243.746 78.1831 243.702 78.2124 243.659C78.3957 243.402 78.5716 243.139 78.7476 242.875C78.9235 242.612 79.0995 242.349 79.2681 242.085C79.5906 241.595 79.8985 241.112 80.1991 240.614C80.683 239.809 81.1448 238.997 81.5847 238.163C81.7313 237.892 81.8706 237.614 82.0099 237.336C82.2884 236.779 82.5597 236.216 82.8089 235.652H82.8016C85.0889 230.874 86.3645 225.656 86.3645 220.262C86.3645 209.417 81.2474 199.647 73.0514 192.775C73.9091 194.327 74.6422 195.98 75.2287 197.722C79.1654 209.563 76.7682 222.18 71.7024 233.647C71.4312 234.255 71.1599 234.862 70.874 235.455C70.5955 236.048 70.3169 236.633 70.0236 237.219C69.1366 239.004 68.1909 240.746 67.2012 242.451C66.8859 242.993 66.5707 243.527 66.2482 244.061C65.9256 244.588 65.603 245.108 65.2805 245.627C65.0899 245.934 64.8919 246.242 64.7013 246.542C64.4154 246.981 64.1368 247.405 63.8582 247.83C63.7996 247.925 63.7409 248.006 63.6823 248.093C63.4037 248.518 63.1178 248.935 62.8319 249.345C62.7659 249.44 62.6999 249.535 62.634 249.63C62.3554 250.04 62.0695 250.45 61.7836 250.852C61.5123 251.233 61.2411 251.606 60.9698 251.979C61.1531 251.54 61.329 251.108 61.5123 250.669C61.7249 250.164 61.9302 249.659 62.1354 249.147C62.1648 249.081 62.1941 249.008 62.2234 248.935C62.4434 248.401 62.6633 247.859 62.8759 247.318C62.8979 247.281 62.9125 247.237 62.9272 247.201C63.1618 246.63 63.3891 246.066 63.609 245.495C63.7409 245.173 63.8729 244.859 63.9902 244.537C64.2321 243.937 64.4667 243.337 64.694 242.736C64.9286 242.136 65.1558 241.536 65.3831 240.929C66.1675 238.843 66.9153 236.75 67.6117 234.65C67.8317 233.991 68.0443 233.333 68.2495 232.674C68.4621 231.993 68.6674 231.327 68.858 230.654C69.1293 229.761 69.3785 228.854 69.6204 227.954C74.9941 208.531 71.8051 195.219 61.3071 185.808C58.8218 184.82 56.212 184.037 53.4995 183.496C55.2663 185.42 56.8058 187.601 58.0667 190.038C63.2351 200.093 63.3377 211.612 60.8745 222.707C60.7279 223.394 60.5593 224.082 60.3833 224.763C60.2221 225.444 60.0388 226.117 59.8555 226.79C59.1224 229.403 58.2647 231.971 57.319 234.482C57.0917 235.082 56.8571 235.674 56.6225 236.26C56.3879 236.853 56.146 237.438 55.8968 238.016C55.8601 238.111 55.8234 238.206 55.7794 238.294C55.5302 238.887 55.2736 239.473 55.0097 240.051C54.7604 240.621 54.2106 241.792 54.2106 241.792C53.9614 242.334 53.7047 242.875 53.4408 243.41C53.1696 243.966 52.891 244.515 52.6125 245.056C52.4878 245.312 52.3559 245.569 52.2239 245.825C52.2972 245.532 52.3632 245.247 52.4365 244.954C52.5904 244.332 52.7371 243.71 52.891 243.088C53.0376 242.466 53.1916 241.844 53.3309 241.222C53.3529 241.163 53.3602 241.104 53.3749 241.053C53.5362 240.373 53.6975 239.692 53.8514 239.019C54.0054 238.346 54.1593 237.672 54.3059 236.999C54.3206 236.94 54.3352 236.882 54.3426 236.831C54.4965 236.172 54.6358 235.513 54.7678 234.855C54.9217 234.196 55.0537 233.537 55.1856 232.879C55.8014 229.856 56.3293 226.841 56.7398 223.819C56.8498 223.08 56.9377 222.333 57.0257 221.594C57.0624 221.316 57.0917 221.038 57.121 220.76C57.1797 220.284 57.231 219.809 57.275 219.34C59.0418 201.937 54.929 190.236 45.56 182.603C45.4573 182.522 45.3621 182.442 45.2594 182.361C45.1641 182.435 45.0688 182.508 44.9735 182.588C39.4239 187.104 35.7144 193.039 33.977 200.752C33.8303 201.389 33.6984 202.04 33.5884 202.699C33.4638 203.357 33.3612 204.03 33.2732 204.711C32.7307 208.86 32.6867 213.471 33.1632 218.579C33.2219 219.26 33.2952 219.948 33.3758 220.65C33.3758 220.687 33.3758 220.723 33.3905 220.76C33.3905 220.775 33.3905 220.789 33.3978 220.804C33.4785 221.558 33.5664 222.304 33.6691 223.058C33.6031 223.021 33.5444 222.985 33.4785 222.948C33.5444 222.992 33.6104 223.043 33.6764 223.087C33.779 223.921 33.8963 224.748 34.0283 225.583C34.3582 227.778 34.7467 229.974 35.1793 232.169C35.3259 232.893 35.4798 233.625 35.6338 234.357C35.7804 235.089 35.9417 235.828 36.1103 236.567C36.3083 237.482 36.5135 238.397 36.7261 239.319C36.9167 240.138 37.1073 240.958 37.3053 241.778C37.5032 242.597 37.7011 243.424 37.8991 244.251C38.031 244.771 38.1556 245.298 38.2876 245.825C37.9577 245.195 37.6351 244.551 37.3199 243.907C36.8434 242.949 36.3816 241.975 35.927 240.987H35.9197C35.5018 240.058 35.084 239.121 34.6881 238.177C34.3069 237.292 33.9403 236.384 33.5884 235.477C33.2805 234.701 32.9799 233.911 32.694 233.12C32.4228 232.352 32.1516 231.591 31.9023 230.822C30.9933 228.093 30.2088 225.312 29.593 222.509C29.4537 221.865 29.3217 221.214 29.2045 220.57C29.1605 220.365 29.1238 220.167 29.0872 219.962C28.9845 219.399 28.8892 218.843 28.8086 218.286C28.7646 218.023 28.7206 217.767 28.6913 217.518C28.618 217.028 28.552 216.537 28.4934 216.054C27.9142 211.202 27.9069 206.343 28.684 201.63C28.7866 200.979 28.9112 200.327 29.0505 199.683C29.1752 199.054 29.3291 198.432 29.4977 197.81C30.1868 195.146 31.1619 192.548 32.4521 190.038C33.8084 187.418 35.4872 185.098 37.4226 183.071C37.0267 183.13 36.6381 183.188 36.2496 183.261C35.2086 183.437 34.1896 183.649 33.1779 183.891C32.9433 183.949 32.7014 184.008 32.4668 184.074C31.8803 184.22 31.3011 184.388 30.722 184.557C30.7 184.571 30.6707 184.579 30.6414 184.579C30.6414 184.579 30.6413 184.586 30.634 184.586C27.3351 187.272 24.6739 190.294 22.6799 193.705C22.372 194.231 22.0787 194.758 21.8075 195.307C21.5289 195.849 21.2723 196.405 21.0304 196.968C19.227 201.14 18.3106 205.845 18.3252 211.173V211.29C18.3326 211.912 18.3472 212.549 18.3766 213.193C18.3766 213.266 18.3839 213.332 18.3839 213.405C18.4132 214.02 18.4572 214.635 18.5158 215.257C18.5232 215.374 18.5305 215.491 18.5452 215.608C18.8604 219.077 19.5349 222.794 20.5759 226.775C20.6858 227.163 20.7885 227.558 20.8984 227.954C20.9791 228.268 21.067 228.583 21.155 228.89C21.3529 229.608 21.5509 230.317 21.7708 231.027C21.8295 231.254 21.9028 231.481 21.9687 231.701C22.2107 232.498 22.4599 233.281 22.7165 234.072C22.9804 234.884 23.2517 235.696 23.5302 236.501C24.6372 239.714 25.8615 242.912 27.1518 246.103C27.4377 246.827 27.7236 247.544 28.0242 248.269C28.3834 249.162 28.7499 250.055 29.1238 250.947C29.2631 251.291 29.4097 251.635 29.549 251.979C29.2558 251.577 28.9626 251.174 28.6766 250.764C27.9729 249.777 27.2764 248.767 26.5873 247.727C26.0741 246.944 25.561 246.147 25.0551 245.342C22.8998 241.895 20.8984 238.243 19.1756 234.452C18.8017 233.625 18.4352 232.791 18.0906 231.957C17.7607 231.166 17.4455 230.369 17.1522 229.564C17.1889 229.571 17.2182 229.586 17.2549 229.593C17.2182 229.578 17.1816 229.564 17.1449 229.549C16.881 228.846 16.6244 228.144 16.3898 227.427C16.1479 226.724 15.9207 226.022 15.7081 225.319C14.4911 221.287 13.6847 217.167 13.4208 213.054C13.4134 212.959 13.4061 212.864 13.4061 212.776C13.3694 212.198 13.3475 211.627 13.3401 211.049C13.3328 210.924 13.3328 210.8 13.3328 210.675C13.3181 210.141 13.3255 209.607 13.3401 209.073C13.3401 208.926 13.3474 208.78 13.3548 208.634C13.4867 204.96 14.0952 201.308 15.2902 197.722C15.6567 196.624 16.0893 195.563 16.5731 194.539C16.8297 193.983 17.1083 193.434 17.4015 192.9C17.6948 192.365 18.0027 191.838 18.3252 191.326C18.6258 190.843 18.941 190.367 19.2709 189.906C18.7358 190.258 18.2079 190.624 17.7021 190.997C17.1522 191.392 16.6171 191.802 16.0966 192.219H16.0893C16.0306 192.27 15.972 192.321 15.9133 192.365C15.6641 192.57 15.4148 192.775 15.1729 192.987C14.9676 193.156 14.7697 193.331 14.5718 193.507C13.736 194.246 12.9443 195.007 12.1892 195.805C12.0279 195.966 11.8739 196.127 11.7273 196.295C11.5807 196.442 11.4414 196.595 11.3094 196.756C11.1042 196.983 10.9062 197.21 10.7083 197.444C10.525 197.649 10.3491 197.861 10.1731 198.081C9.86523 198.461 9.5573 198.849 9.27139 199.237C9.08811 199.471 8.91219 199.713 8.74357 199.954C8.37702 200.459 8.02513 200.979 7.6879 201.506C7.54128 201.725 7.40199 201.945 7.27003 202.172C6.70554 203.086 6.18503 204.023 5.70852 204.989C5.53257 205.348 5.35662 205.706 5.19534 206.072C5.10736 206.263 5.01941 206.453 4.93877 206.643C4.77749 207.009 4.62353 207.382 4.47691 207.763C4.39627 207.953 4.32297 208.151 4.25699 208.348C4.11037 208.721 3.97842 209.102 3.85379 209.483C3.7145 209.907 3.57522 210.339 3.45059 210.763C3.44326 210.793 3.43591 210.814 3.42858 210.844C3.31861 211.239 3.20865 211.634 3.11335 212.029C3.09869 212.081 3.08403 212.139 3.0767 212.19C2.98873 212.527 2.91542 212.856 2.84944 213.193C2.81279 213.325 2.78347 213.456 2.76147 213.588C2.68816 213.961 2.61483 214.335 2.55618 214.715C2.54885 214.759 2.54155 214.81 2.53421 214.861C2.4829 215.147 2.43887 215.44 2.40222 215.732C2.37289 215.959 2.34358 216.186 2.32159 216.413C2.28493 216.728 2.24827 217.042 2.22628 217.364C2.21162 217.503 2.2043 217.65 2.19697 217.796C2.16765 218.125 2.14564 218.455 2.13831 218.791C2.13098 218.843 2.13097 218.901 2.13097 218.952C2.10898 219.384 2.10166 219.823 2.10166 220.262C2.10166 220.877 2.11633 221.492 2.15299 222.099C2.16032 222.304 2.17497 222.509 2.18963 222.714C2.21896 223.124 2.25563 223.526 2.29962 223.929C2.29962 223.951 2.30691 223.973 2.30691 223.995V224.016C2.38022 224.653 2.46823 225.283 2.5782 225.912C2.49756 225.897 2.43158 225.883 2.35094 225.868C2.43158 225.89 2.50489 225.912 2.5782 225.948C2.60752 226.117 2.63681 226.292 2.67346 226.461C2.71745 226.71 2.76144 226.951 2.81275 227.2C2.86407 227.471 2.92272 227.741 2.99603 228.012C3.06934 228.342 3.14999 228.671 3.23796 229C3.82445 231.291 4.65286 233.516 5.67187 235.645H5.66453C5.80382 235.967 5.95046 236.274 6.09708 236.582C6.19239 236.787 6.28766 236.984 6.3903 237.182C6.91813 238.265 7.50462 239.326 8.13509 240.373C8.34036 240.724 8.55295 241.075 8.77288 241.419C8.77288 241.426 8.78757 241.434 8.7949 241.448C9.01483 241.807 9.24942 242.158 9.48402 242.51C10.0412 243.358 10.6277 244.193 11.2215 245.005C11.2874 245.093 11.3534 245.188 11.4267 245.276C13.2668 247.757 15.2902 250.135 17.3649 252.389C17.6434 252.697 17.9293 253.004 18.2079 253.304C18.2079 253.311 18.2226 253.326 18.2373 253.333C18.5892 253.714 18.941 254.08 19.2929 254.446C20.004 255.199 20.7151 255.931 21.4262 256.648C21.8514 257.08 22.2693 257.512 22.6945 257.929C22.9658 258.192 23.2223 258.456 23.4789 258.712C23.8528 259.085 24.2194 259.444 24.5786 259.802C24.8938 260.11 25.2091 260.417 25.517 260.725C26.0228 261.23 26.5213 261.72 27.0051 262.203L27.5917 262.788C27.7823 262.979 27.9802 263.169 28.1635 263.359C28.5447 263.74 28.9186 264.12 29.2851 264.486C29.2925 264.501 29.3071 264.515 29.3218 264.523C29.8569 265.072 30.3701 265.606 30.8613 266.125C31.2058 266.491 31.5431 266.85 31.8656 267.208C32.0196 267.369 32.1589 267.538 32.3055 267.699C32.76 268.204 33.1926 268.709 33.5884 269.199C33.6837 269.309 33.7717 269.419 33.8523 269.528C34.6734 270.553 35.3479 271.526 35.8537 272.456C35.9343 272.602 36.015 272.748 36.081 272.887C36.1616 273.048 36.2349 273.202 36.3009 273.356C36.3889 273.561 36.4768 273.766 36.5428 273.97C36.5648 274.029 36.5868 274.088 36.6015 274.153C36.6455 274.285 36.6894 274.424 36.7188 274.556C36.7554 274.695 36.7848 274.827 36.8068 274.958C36.8361 275.09 36.8507 275.215 36.8654 275.346H51.6081C51.6227 275.207 51.6447 275.061 51.6741 274.922C51.6887 274.841 51.7034 274.754 51.7327 274.673C51.7401 274.607 51.7547 274.534 51.7841 274.468C51.7987 274.373 51.828 274.278 51.8647 274.183C51.9013 274.044 51.9527 273.912 52.004 273.773C52.0553 273.627 52.1213 273.473 52.1873 273.319C52.4512 272.734 52.7884 272.126 53.1916 271.497C53.3162 271.299 53.4482 271.102 53.5948 270.897C54.7164 269.28 56.2633 267.53 58.0667 265.65C58.5579 265.137 59.0638 264.611 59.5843 264.084C59.9875 263.681 60.3907 263.271 60.8012 262.861C61.395 262.276 61.9962 261.676 62.6046 261.069C63.0445 260.644 63.477 260.212 63.9169 259.773C64.3568 259.341 64.8039 258.902 65.2511 258.456C66.2335 257.475 67.2378 256.465 68.2349 255.433C68.2715 255.397 68.3082 255.36 68.3448 255.324C68.7334 254.921 69.1219 254.511 69.5105 254.102C69.5471 254.065 69.5838 254.028 69.6131 253.992C70.0016 253.589 70.3902 253.179 70.7714 252.762" fill="white"/>
<path d="M36.8657 284.656H51.6084V295.56H36.8657V284.656Z" fill="white"/>
<path d="M23.7379 148.07L18.5328 134.758L13.3351 148.07L-2.18692e-05 153.258L13.3351 158.454L18.5328 171.766L23.7379 158.454L37.073 153.258L23.7379 148.07Z" fill="white"/>
</svg>
