<svg width="682" height="776" viewBox="0 0 682 776" fill="none" xmlns="http://www.w3.org/2000/svg">
<path d="M493.849 38.9847C499.59 41.2668 504.953 44.5442 509.68 48.7309C534.02 25.0518 561.35 7.97883 591.155 0H537.165C521.592 11.565 507.102 24.7086 493.849 38.9847Z" fill="white"/>
<path d="M517.844 0H487.747C480.94 7.65281 474.46 15.7861 468.272 24.4341C465.315 28.4664 462.427 32.5673 459.608 36.7198C464.026 35.6044 468.598 35.021 473.256 35.021C475.921 35.021 478.568 35.2098 481.163 35.5873C492.267 22.6839 504.557 10.6899 517.844 0Z" fill="white"/>
<path d="M433.019 113.659C434.222 115.718 435.597 117.708 437.161 119.613C438.141 120.797 439.172 121.947 440.289 123.062C442.644 125.413 446.031 127.695 450.156 129.891C454.453 121.895 458.957 114.139 463.666 106.658C458.2 103.106 454.556 96.9805 454.47 89.9969V89.7395C454.47 81.0744 459.936 73.6789 467.602 70.8134C469.82 69.9726 472.226 69.5094 474.736 69.5094C479.377 69.5094 483.657 71.0708 487.06 73.6961C492.406 67.0556 497.924 60.7755 503.63 54.8558C498.817 50.6862 493.351 47.7006 487.61 45.8646C483.365 44.4747 478.947 43.7369 474.53 43.6339C474.1 43.5996 473.687 43.5996 473.258 43.5996C465.763 43.5996 458.269 45.4013 451.479 48.9875C447.663 50.995 444.071 53.5689 440.822 56.7432C440.633 56.8977 440.461 57.0692 440.289 57.2408C424.974 72.5293 422.55 95.8309 433.019 113.659Z" fill="white"/>
<path d="M395.735 290.584C405.447 236.053 422.688 183.067 446.168 137.39C441.234 134.782 437.126 132.02 434.221 129.12C433.774 128.674 433.327 128.21 432.932 127.747C427.586 138.231 422.584 148.921 417.823 159.8C420.814 147.445 424.596 135.228 429.151 123.286C421.931 113.78 418.047 102.266 418.047 90.1522C418.047 75.4128 423.788 61.5828 434.221 51.1674C438.381 47.015 443.108 43.5833 448.213 41.0094C451.96 33.5797 456.051 26.2872 460.486 19.1835C464.439 12.5431 468.737 6.14284 473.36 0H447.68C434.806 21.62 423.891 45.5394 415.21 71.0888C379.148 177.267 395.735 290.584 395.735 290.584Z" fill="white"/>
<path d="M677.89 81.8295C679.678 83.5454 679.609 86.0163 681.397 87.9552V76.6304C679.575 77.2996 677.873 78.0889 675.965 78.6208C674.315 79.0841 672.081 78.7581 670.826 79.5474C668.058 81.2976 668.866 84.6092 664.896 83.0821C662.403 82.1384 660.375 77.9688 659.687 76.2358C659.464 75.7038 660.495 74.8459 659.722 73.4217C659.172 72.4265 655.236 70.4704 654.325 70.1787C656.215 74.9832 652.468 77.0422 648.205 75.8068C648.635 77.9002 650.251 78.3978 651.351 80.5083C652.21 82.1727 651.746 84.7293 652.743 86.1192C655.648 90.1687 658.33 85.8961 661.63 86.1707C665.377 86.4795 666.082 89.9628 670.568 88.2126C673.473 87.0972 675.982 83.9229 677.89 81.8295Z" fill="white"/>
<path d="M681.397 132.294V111.051C681.07 110.64 680.847 110.125 680.727 109.49C680.658 109.147 680.641 108.752 680.658 108.323C679.506 108.134 678.183 108.821 676.842 109.953C673.679 112.578 670.362 117.64 668.677 119.511C666.89 121.518 664.071 123.097 662.695 125.276H662.678C661.87 126.563 661.544 128.039 662.214 129.926C661.166 128.982 660.495 127.575 660.066 126.1C659.773 125.104 659.584 124.058 659.447 123.114C658.931 119.373 658.072 120.351 661.595 118.155C663.056 117.263 672.459 113.9 673.163 110.537C673.404 109.473 672.751 108.409 670.706 107.414C667.852 106.024 662.988 110.605 660.048 111.137C655.115 112.047 652.004 111.274 649.237 116.782C649.151 116.954 649.065 117.143 648.996 117.331C647.758 120.128 647.535 123.766 646.693 126.631C644.939 132.757 643.427 132.019 637.342 130.938C641.845 129.583 642.499 124.109 639.216 121.81C638.786 121.501 638.287 121.244 637.703 121.072C636.517 120.695 630.827 121.467 629.28 122.96C627.905 124.264 628.782 126.666 627.716 128.09C625.825 130.578 622.181 130.544 619.603 131.831C617.695 132.809 615.976 134.782 613.828 135.074C609.754 135.657 606.969 129.325 604.202 128.502C597.876 126.631 598.89 133.701 599.819 138.951C600.369 141.989 602.38 145.3 605.027 147.685C606.969 149.487 609.255 150.757 611.524 151.083C612.796 151.254 614.24 151.254 615.718 151.134C619.517 150.825 623.711 149.813 626.857 149.247C632.495 148.217 636.775 145.575 641.742 143.722C649.46 140.839 647.208 144.906 646.779 150.225C651.282 149.315 655.476 146.175 660.083 144.991C662.953 144.254 665.618 144.082 668.402 143.138C670.688 142.349 674.625 142.177 676.636 141.319C681.827 139.089 678.286 139.947 678.681 135.434C678.991 131.882 679.059 132.568 681.397 132.294Z" fill="white"/>
<path d="M530.462 117.847C530.823 119.237 531.166 120.61 531.493 121.982C523.449 130.442 516.109 139.605 509.594 149.334C508.477 149.076 507.343 148.802 506.174 148.527C513.29 137.545 521.437 127.267 530.479 117.847H530.462ZM491.787 174.471C494.674 168.225 497.872 162.134 501.361 156.249C502.478 156.523 503.561 156.78 504.644 157.038C500.055 164.571 495.929 172.412 492.337 180.545C492.835 186.757 492.371 190.858 490.515 197.412C490.223 198.425 489.518 201.222 488.744 204.825C486.561 215.206 483.949 232.245 489.758 232.759C490.876 230.134 489.758 227.149 489.93 224.317C490.24 219.753 491.993 215.052 493.145 210.642C496.548 197.824 500.055 186.036 509.251 176.256C511.451 173.905 512.963 168.448 514.974 166.818C518.498 163.97 521.523 168.311 524.824 169.1C529.912 170.319 533.71 168.208 535.756 163.627C535.773 163.592 535.79 163.558 535.807 163.524C535.842 163.575 535.876 163.61 535.928 163.661C537.629 165.703 541.084 165.806 543.783 165.051C544.453 164.862 545.072 164.622 545.605 164.347C546.843 163.695 547.668 162.632 548.441 161.516C549.18 160.435 549.833 159.303 550.762 158.393C553.563 155.699 556.932 154.636 560.731 153.606C560.353 158.634 555.609 163.833 552.652 168.14C550.693 171.022 549.369 174.111 545.124 173.442C541.308 172.841 542.03 170.164 539.434 168.14C538.214 169.804 536.976 171.812 536.048 173.75C533.349 172.978 528.743 176.05 528.107 178.366C527.522 180.545 528.76 190.326 529.413 192.316C530.651 196.16 534.415 198.751 537.578 201.942C539.812 204.19 542.631 206.352 544.574 208.857C546.31 211.054 547.513 212.032 549.18 213.576C556.657 220.371 555.918 219.05 558.118 211.139C559.545 206.095 565.132 203.126 567.796 198.802C570.941 193.689 572.42 186.86 575.892 182.175C577.473 180.031 580.086 178.761 581.753 176.976C583.73 174.883 585.346 172.052 587.408 169.89V169.804C587.718 169.461 588.044 169.135 588.371 168.792C591.963 165.154 596.054 161.585 599.853 158.205C600.145 161.654 599.578 164.828 598.478 167.796C596.759 172.464 593.699 176.599 590.434 180.425C586.79 184.732 586.154 190 583.644 195.01C581.409 199.506 577.25 203.332 574.035 207.21C571.199 210.642 566.163 213.748 564.014 217.231C562.038 220.422 563.241 224.369 558.909 225.707C555.746 226.685 545.468 223.803 542.356 222.481C539.726 221.366 539.262 218.792 536.203 221.04C534.724 232.656 542.717 245.663 548.888 254.86C551.312 258.48 553.718 259.27 556.881 261.518C559.683 263.491 560.559 265.395 562.57 268.604C566.352 274.695 571.423 279.706 572.523 287.05C573.331 292.438 570.873 295.801 569.549 300.657C568.122 305.839 568.449 312.102 570.598 317.146C571.199 318.553 572.66 320.063 573.434 321.505C574.62 323.735 574.964 326.412 576.786 328.54C579.914 332.263 583.18 332.589 587.58 334.236C587.013 336.278 584.4 340.963 585.225 343.142C585.896 344.943 586.858 343.931 587.718 345.149C589.127 347.14 590.709 349.559 592.324 351.618C595.453 355.685 600.059 359.099 603.583 362.754C607.244 366.581 608.877 371.505 611.37 376.121C612.109 377.545 612.796 379.639 614.12 380.599C615.375 381.509 617.231 380.273 618.537 381.509C620.205 383.087 619.053 385.953 620.772 387.411C621.167 387.737 625.739 388.252 626.444 388.389C632.873 389.625 640.814 391.238 647.569 390.654C649.151 383.602 654.032 380.822 657.573 374.508C661.527 367.439 662.111 361.279 663.589 353.918C663.985 351.927 664.775 348.427 665.6 346.385C666.872 343.142 670.173 342.473 671.806 340.053C673.335 337.754 673.129 330.238 672.596 327.544C671.943 324.404 669.743 319.737 669.021 317.095C667.835 312.754 667.508 309.545 667.99 305.152C668.901 296.71 675.639 294.291 680.366 287.976C680.727 287.479 681.07 286.981 681.38 286.466V470.305C679.592 470.305 677.822 470.288 676.051 470.237C674.246 470.185 672.442 470.117 670.637 470.031C668.918 469.945 667.199 469.842 665.48 469.705C663.727 469.568 661.991 469.413 660.255 469.242C660.169 469.224 660.1 469.224 660.031 469.224C656.731 468.881 653.448 468.469 650.199 467.989C549.662 452.958 472.57 366.409 472.57 261.861C472.57 230.649 479.445 201.05 491.769 174.471H491.787ZM567.693 342.352C565.51 339.247 559.769 341.254 560.748 335.678C561.367 332.092 567.143 330.908 563.12 326.446C561.659 324.851 555.746 323.975 553.409 323.392C552.085 323.066 551.965 324.833 550.555 323.907C550.212 323.667 549.421 320.235 549.197 319.651C548.441 317.489 548.304 314.658 545.622 314.916C541.755 315.379 550.744 332.555 552.463 336.072C555.575 342.455 558.548 359.666 569.171 354.93C569.669 352.991 568.862 343.983 567.693 342.352ZM621.992 61.9954C640.814 56.4016 660.753 53.416 681.397 53.416V73.7663C676.808 71.4842 672.081 72.5309 667.491 69.9914C664.483 68.3098 662.025 65.8733 658.948 64.0716C658.003 63.5054 656.989 62.9906 655.872 62.596C651.007 60.8629 636.345 62.3386 634.128 68.4128C633.904 69.0648 633.818 69.7683 633.887 70.5233C632.787 70.0772 632.065 69.5453 631.463 69.0648C630.191 68.0353 629.384 67.143 626.41 67.246C624.76 67.3146 620.548 68.9275 619.225 67.2117C588.697 76.8034 561.212 93.293 538.626 114.844C538.283 113.489 537.922 112.15 537.578 110.761C561.161 88.3684 589.969 71.4499 621.992 61.9954Z" fill="white"/>
<path d="M658.948 64.0718C666.374 63.2481 673.868 62.8363 681.397 62.8363L681.327 52.4121C659.549 52.4121 638.184 55.8184 617.678 62.3044C587.357 71.8275 559.941 87.9396 537.148 109.131C537.286 109.68 537.44 110.212 537.578 110.744C537.922 112.151 538.283 113.489 538.626 114.845C539.125 116.801 539.606 118.722 540.053 120.593C562.519 98.4922 590.09 81.7624 620.772 72.1192C624.313 71.0039 627.871 69.9744 631.463 69.065C632.34 68.8419 633.234 68.6188 634.128 68.4129C642.275 66.4397 650.577 64.9983 658.948 64.0718Z" fill="white"/>
<path d="M514.958 150.568C520.389 142.589 526.405 135.039 532.92 127.97C532.473 126.031 531.992 124.023 531.493 121.981C531.167 120.609 530.823 119.236 530.462 117.846C530.307 117.245 530.17 116.662 530.015 116.062C520.424 125.825 511.778 136.532 504.232 148.063C504.868 148.217 505.504 148.371 506.14 148.526C507.309 148.8 508.443 149.075 509.56 149.332C511.399 149.761 513.187 150.173 514.923 150.568H514.958Z" fill="white"/>
<path d="M469.579 263.988C469.579 316.665 489.088 367.129 524.531 406.096C559.717 444.789 607.657 469.035 659.516 474.337L659.842 474.371C661.578 474.543 663.332 474.697 665.102 474.834C666.855 474.972 668.626 475.075 670.396 475.178C672.253 475.263 674.092 475.332 675.931 475.384C677.736 475.435 679.558 475.452 681.397 475.452V465.157C679.661 465.157 677.942 465.14 676.223 465.088C674.435 465.037 672.665 464.968 670.895 464.882C669.244 464.814 667.577 464.711 665.91 464.574C664.225 464.436 662.575 464.299 660.925 464.127C660.719 464.11 660.547 464.093 660.392 464.076C557.482 453.437 479.892 367.455 479.892 263.988C479.892 243.689 482.866 223.87 488.761 204.824C491.065 197.309 493.849 189.896 497.064 182.638C500.811 174.179 505.108 166.062 509.921 158.29C508.219 157.895 506.449 157.466 504.661 157.037C503.578 156.78 502.495 156.522 501.378 156.248C500.742 156.093 500.089 155.922 499.436 155.75C495.07 163.025 491.133 170.627 487.661 178.468C475.681 205.459 469.596 234.234 469.596 263.988H469.579Z" fill="white"/>
<path d="M440.29 57.2408C440.462 57.0692 440.634 56.8977 440.823 56.7432C444.072 53.5689 447.664 50.995 451.48 48.9875C458.27 45.4013 465.764 43.5996 473.259 43.5996C473.688 43.5996 474.101 43.5996 474.531 43.6339C478.948 43.7369 483.366 44.4747 487.611 45.8646C493.352 47.7006 498.818 50.6862 503.631 54.8558C504.525 55.5936 505.385 56.4001 506.227 57.2408C515.732 66.7296 524.155 93.0683 530.016 116.061C530.171 116.662 530.308 117.245 530.463 117.828C530.824 119.235 531.168 120.608 531.494 121.981C531.993 124.023 532.474 126.03 532.921 127.969C536.548 143.584 538.645 155.423 538.645 155.423C538.645 155.423 528.658 153.656 514.959 150.567C513.223 150.173 511.435 149.761 509.596 149.332C508.479 149.075 507.344 148.8 506.175 148.525C505.539 148.371 504.903 148.217 504.267 148.062C485.738 143.532 463.908 137.201 450.191 129.891C446.066 127.695 442.68 125.413 440.325 123.062C439.207 121.947 438.176 120.797 437.196 119.613C435.632 117.708 434.257 115.718 433.054 113.659C422.586 95.8309 425.009 72.5293 440.325 57.2408H440.29ZM463.667 106.658C466.847 108.751 470.646 109.953 474.737 109.953C485.927 109.953 494.985 100.91 494.985 89.7395C494.985 83.202 491.891 77.3852 487.061 73.6961C483.658 71.0708 479.378 69.5094 474.737 69.5094C472.227 69.5094 469.821 69.9726 467.603 70.8134C459.937 73.6789 454.471 81.0743 454.471 89.7395V89.9969C454.557 96.9805 458.201 103.106 463.667 106.658Z" fill="white"/>
<path d="M583.197 512.618C583.197 494.961 599.2 480.634 618.967 480.634C638.734 480.634 654.737 494.944 654.737 512.618C654.737 517.199 653.654 521.626 651.712 525.676C644.87 541.05 625.98 552.357 625.224 559.375H612.71C611.954 552.357 593.063 541.05 586.222 525.676C584.28 521.626 583.197 517.199 583.197 512.618Z" fill="white"/>
<path d="M612.693 567.285H625.206V576.551H612.693V567.285Z" fill="white"/>
<path d="M531.668 601.703C533.954 604.088 536.24 606.508 538.509 608.961C539.884 610.42 541.242 611.896 542.6 613.388C542.72 613.508 542.841 613.646 542.944 613.766C544.834 615.825 546.725 617.901 548.599 619.995C548.702 620.115 548.771 620.183 548.874 620.303L548.908 620.338C548.908 620.338 548.908 620.355 548.943 620.372C558.465 631.028 567.885 642.129 577.149 653.643C586.964 665.843 596.453 678.351 605.408 690.843C611.063 698.77 616.512 706.646 621.651 714.436C621.669 714.454 621.686 714.471 621.703 714.505C628.304 721.695 634.337 728.61 639.786 735.13C639.906 735.267 640.009 735.404 640.129 735.542C645.595 744.584 650.305 752.924 654.19 760.353C654.19 760.37 654.207 760.37 654.207 760.388C654.774 761.469 655.324 762.55 655.874 763.596C656.407 764.66 656.923 765.69 657.421 766.685C659.054 769.996 660.498 773.085 661.736 775.916C661.237 773.428 660.584 770.734 659.759 767.834C659.604 767.251 659.433 766.651 659.243 766.033C659.209 765.896 659.158 765.741 659.123 765.604C659.089 765.535 659.072 765.467 659.054 765.398C658.865 764.763 658.659 764.111 658.453 763.459C658.453 763.459 658.453 763.442 658.436 763.442C658.401 763.253 658.332 763.099 658.264 762.91C658.178 762.618 658.092 762.326 657.989 762.035C657.284 759.804 656.476 757.471 655.599 755.051C655.599 755.051 655.599 755.017 655.582 755.017C654.86 753.095 654.121 751.105 653.331 749.063C653.331 749.028 653.296 749.011 653.279 748.977C653.262 748.96 653.262 748.926 653.245 748.908C652.952 748.136 652.643 747.364 652.316 746.575C651.99 745.768 651.663 744.945 651.319 744.121C650.116 741.221 648.827 738.218 647.452 735.13H647.435C645.699 731.2 643.791 727.117 641.745 722.913C641.47 722.295 641.195 721.677 640.92 721.06C640.834 720.922 640.748 720.802 640.662 720.648H640.645V720.596C640.095 719.464 639.528 718.349 638.961 717.199C638.479 716.238 637.981 715.277 637.482 714.299C634.337 708.105 630.916 701.67 627.221 695.064C627.221 695.047 627.221 695.03 627.203 695.013C626.842 694.361 626.481 693.709 626.121 693.074C625.553 692.061 624.986 691.049 624.402 690.037C624.384 690.002 624.367 689.951 624.333 689.916C623.13 687.806 621.909 685.695 620.672 683.551C619.314 681.234 617.939 678.901 616.529 676.567C615.618 675.04 614.69 673.513 613.762 671.986C612.834 670.458 611.888 668.931 610.926 667.387C609.98 665.843 609 664.281 608.021 662.72C607.024 661.158 606.044 659.597 605.03 658.036C604.033 656.457 603.019 654.895 601.987 653.317C601.73 652.922 601.472 652.51 601.197 652.116C599.873 650.091 598.532 648.066 597.174 646.042C594.82 642.507 592.396 638.938 589.904 635.369C587.858 632.4 585.744 629.415 583.613 626.429C576.754 616.837 569.518 607.194 561.937 597.585C560.511 595.783 559.084 593.999 557.64 592.197C554.804 588.663 551.916 585.128 548.96 581.61C547.017 584.15 545.023 586.655 542.961 589.092C542.033 590.207 541.104 591.305 540.142 592.386C539.231 593.45 538.285 594.514 537.34 595.56C536.653 596.333 535.948 597.105 535.226 597.877C535.037 598.117 534.813 598.34 534.573 598.58C533.834 599.404 533.077 600.228 532.287 601.034C532.097 601.257 531.891 601.48 531.668 601.703Z" fill="white"/>
<path d="M528.609 592.421C529.434 591.529 530.242 590.619 531.067 589.71C532.013 588.663 532.958 587.599 533.886 586.518C534.832 585.437 535.76 584.356 536.688 583.241C538.957 580.53 541.157 577.75 543.254 574.902C543.323 574.97 543.374 575.039 543.443 575.108C543.392 575.039 543.323 574.97 543.271 574.885C543.288 574.867 543.306 574.833 543.323 574.816C544.114 573.752 544.887 572.671 545.643 571.59C545.712 571.504 545.781 571.401 545.85 571.298C540.452 565.018 534.711 558.584 528.644 552.063C527.99 553.453 527.337 554.826 526.65 556.199C524.57 560.385 522.352 564.469 520.032 568.467C519.293 569.737 518.554 570.99 517.797 572.242C517.041 573.478 516.285 574.696 515.528 575.914C515.082 576.635 514.617 577.355 514.171 578.059C513.5 579.089 512.847 580.084 512.194 581.079C512.056 581.302 511.919 581.491 511.781 581.697C516.439 586.192 521.08 590.808 525.687 595.527C526.598 594.583 527.509 593.622 528.403 592.644" fill="white"/>
<path d="M491.447 562.841C492.805 564.025 494.145 565.243 495.503 566.461C499.852 570.391 504.184 574.423 508.515 578.575C508.515 578.575 508.515 578.592 508.55 578.592C508.55 578.61 508.567 578.61 508.567 578.61C508.567 578.627 508.584 578.627 508.584 578.627C508.584 578.644 508.601 578.644 508.601 578.644C508.601 578.661 508.618 578.661 508.618 578.661C508.618 578.678 508.618 578.678 508.618 578.678C508.618 578.695 508.636 578.695 508.636 578.695C509.048 579.09 509.461 579.485 509.873 579.879C509.925 579.794 509.959 579.691 509.994 579.605C510.544 578.266 511.076 576.945 511.592 575.607C511.901 574.852 512.211 574.114 512.486 573.359C513.053 571.952 513.603 570.545 514.136 569.138C514.686 567.731 515.219 566.324 515.752 564.9C517.591 560.01 519.344 555.102 520.977 550.178C521.493 548.633 521.991 547.089 522.473 545.545C516.594 539.368 510.44 533.173 504.029 526.996C503.651 528.592 503.221 530.17 502.791 531.749C501.073 537.875 499.061 543.897 496.844 549.783C496.311 551.19 495.761 552.58 495.211 553.953C494.661 555.342 494.094 556.715 493.509 558.071C493.423 558.294 493.338 558.517 493.234 558.723C492.65 560.112 492.048 561.485 491.43 562.841H491.447Z" fill="white"/>
<path d="M440.223 512.497C440.36 514.093 440.532 515.706 440.721 517.353C440.721 517.439 440.721 517.525 440.756 517.611C440.756 517.645 440.756 517.679 440.773 517.714C440.962 519.481 441.168 521.231 441.409 522.998C441.254 522.913 441.116 522.827 440.962 522.741C441.116 522.844 441.271 522.964 441.426 523.067C455.246 532.745 469.083 543.537 482.937 555.394L483.212 555.669L483.35 555.754C485.137 557.299 486.942 558.843 488.73 560.422C489.091 558.843 489.452 557.264 489.795 555.686C489.83 555.549 489.864 555.411 489.881 555.291C490.242 553.747 490.569 552.203 490.878 550.658C491.239 549.114 491.549 547.57 491.858 546.025C493.302 538.939 494.539 531.87 495.502 524.783C495.76 523.05 495.966 521.3 496.172 519.567C479.396 504.004 460.987 488.835 441.22 475.263C440.927 476.807 440.687 478.386 440.481 479.981C439.209 489.71 439.105 500.52 440.223 512.497Z" fill="white"/>
<path d="M405.433 495.132V495.406C405.45 496.865 405.484 498.358 405.553 499.868C405.553 500.039 405.57 500.194 405.57 500.365C413.907 505.067 422.278 510.197 430.666 515.722C430.425 514.418 430.202 513.114 430.013 511.81C429.91 511.192 429.807 510.592 429.738 510.008C429.566 508.859 429.411 507.709 429.274 506.577C427.916 495.2 427.899 483.807 429.721 472.757C429.961 471.23 430.254 469.703 430.58 468.193C425.028 464.624 419.356 461.192 413.597 457.932C412.944 459.201 412.343 460.505 411.775 461.827C407.547 471.607 405.398 482.64 405.433 495.132Z" fill="white"/>
<path d="M374.648 483.171C374.442 483.617 374.236 484.063 374.047 484.509C374.064 484.527 374.098 484.527 374.115 484.544C380.63 487.409 387.162 490.549 393.728 493.964C393.693 492.711 393.711 491.459 393.745 490.206C393.745 489.863 393.762 489.52 393.779 489.177C394.089 480.563 395.515 472.001 398.317 463.593C399.177 461.019 400.191 458.531 401.325 456.129C401.927 454.825 402.58 453.538 403.268 452.285C402.253 451.736 401.239 451.204 400.208 450.689H400.191C400.053 450.81 399.916 450.93 399.778 451.033C399.194 451.513 398.609 451.993 398.042 452.491C397.561 452.886 397.097 453.298 396.633 453.709C394.673 455.442 392.817 457.227 391.046 459.097C390.668 459.475 390.307 459.852 389.963 460.247C389.62 460.59 389.293 460.95 388.984 461.328C388.502 461.86 388.038 462.392 387.574 462.941C387.144 463.421 386.732 463.919 386.319 464.434C385.597 465.326 384.875 466.235 384.205 467.145C383.775 467.694 383.363 468.26 382.968 468.826C382.108 470.01 381.283 471.228 380.492 472.464C380.149 472.979 379.822 473.493 379.513 474.025C378.189 476.17 376.969 478.367 375.851 480.631C375.439 481.472 375.026 482.313 374.648 483.171Z" fill="white"/>
<path d="M97.9415 523.839C97.7008 524.13 97.4602 524.439 97.254 524.748C97.5977 524.559 97.9415 524.371 98.2853 524.199C99.6088 523.513 100.949 522.861 102.342 522.208L101.379 521.213C101.379 521.213 101.242 521.059 101.173 520.99C99.9697 521.745 98.8697 522.706 97.9415 523.839Z" fill="white"/>
<path d="M43.8486 491.82C44.0377 492.026 44.2267 492.232 44.4157 492.438C54.6947 503.557 68.9271 514.761 86.7863 525.812L88.8318 522.054L88.9521 521.848C89.8459 520.201 90.9289 518.708 92.1836 517.387C93.1462 516.323 94.2291 515.379 95.3979 514.538C85.4284 502.356 81.2515 490.842 83.0047 480.187C83.1766 479.123 83.4172 478.024 83.7266 476.926L83.9501 476.223C84.2595 475.21 84.6205 474.232 85.0502 473.271C83.2798 473.821 81.5437 474.387 79.8421 474.97H79.8248C67.5348 479.157 56.723 484.064 47.5613 489.521C46.2893 490.276 45.0518 491.031 43.8486 491.82Z" fill="white"/>
<path d="M285.507 449.438C285.644 449.678 285.764 449.936 285.885 450.193C301.888 454.105 318.097 458.841 334.185 464.366C345.547 468.261 356.84 472.551 367.979 477.252C372.998 467.026 379.942 457.726 388.365 449.695C388.21 449.627 388.073 449.558 387.918 449.489C369.68 441.013 351.735 433.566 334.185 427.046C321.191 422.241 308.402 417.969 295.889 414.177L298.484 422.018C302.18 433.206 296.387 445.268 285.507 449.438Z" fill="white"/>
<path d="M238.427 440.876C240.077 441.117 241.745 441.374 243.412 441.631C245.32 441.923 247.228 442.249 249.153 442.575C251.594 442.987 254.052 443.416 256.51 443.896C257.902 444.137 259.312 444.411 260.704 444.668C262.148 444.96 263.592 445.235 265.036 445.544C266.084 445.749 267.115 445.955 268.164 446.178L269.608 445.698L270.33 445.475L275.486 443.759L280.248 442.198L281.795 441.683C288.842 439.349 292.658 431.765 290.32 424.73L285.851 411.243C277.377 408.824 269.041 406.645 260.841 404.689C260.532 404.62 260.223 404.534 259.913 404.465L267.39 427.046C268.147 429.346 267.442 431.782 265.775 433.309C265.156 433.91 264.417 434.356 263.557 434.631C263.506 434.648 263.454 434.665 263.403 434.682H263.385C262.818 434.631 262.268 434.596 261.701 434.596H261.512C260.962 434.596 260.394 434.613 259.844 434.648H259.827C258.074 434.082 256.596 432.709 255.96 430.821L246.214 401.411C239.252 399.936 232.411 398.632 225.69 397.499L238.633 436.552C239.132 438.028 239.012 439.555 238.427 440.876Z" fill="white"/>
<path d="M192.308 392.969L207.004 437.324C213.502 437.805 220.119 438.474 226.875 439.315L212.333 395.405C205.526 394.427 198.84 393.621 192.308 392.969Z" fill="white"/>
<path d="M155.248 390.961L170.288 436.346C173.193 436.243 176.15 436.209 179.158 436.209C184.005 436.209 188.99 436.312 194.061 436.552L179.261 391.887C170.993 391.304 162.983 390.995 155.248 390.961Z" fill="white"/>
<path d="M123.776 392.265L139.314 439.109C146.224 437.993 153.598 437.204 161.368 436.741L146.207 391.013C138.403 391.167 130.926 391.596 123.776 392.265Z" fill="white"/>
<path d="M41.9065 482.898C42.3191 482.641 42.7316 482.401 43.1613 482.143C52.9417 476.327 64.338 471.179 77.0578 466.855L78.3984 466.392H78.4328C80.7362 465.619 83.091 464.882 85.4802 464.161C94.0575 452.956 109.923 445.166 130.79 440.705L115.045 393.227C65.2834 399.592 33.6387 418.81 29.3071 445.183C27.3303 457.315 31.8167 470.029 41.9065 482.898Z" fill="white"/>
<path d="M519.135 614.435C550.763 639.675 578.729 666.992 601.711 693.108C601.78 693.176 601.831 693.245 601.9 693.331C603.241 694.841 604.547 696.351 605.853 697.861C605.888 697.912 605.939 697.946 605.974 697.998C611.508 703.592 616.734 709.083 621.667 714.436C621.684 714.453 621.701 714.47 621.719 714.505C628.319 721.694 634.352 728.609 639.801 735.13C639.922 735.267 640.025 735.404 640.145 735.541C645.611 744.584 650.321 752.923 654.206 760.353C654.206 760.37 654.223 760.37 654.223 760.387C654.79 761.468 655.34 762.549 655.89 763.596C656.423 764.66 656.939 765.689 657.437 766.684C659.07 769.996 660.514 773.085 661.751 775.916C661.253 773.428 660.6 770.734 659.775 767.834C659.62 767.251 659.448 766.65 659.259 766.032C659.225 765.895 659.173 765.741 659.139 765.604C659.104 765.535 659.087 765.466 659.07 765.398C658.881 764.763 658.675 764.111 658.468 763.459C658.468 763.459 658.468 763.441 658.451 763.441C658.417 763.253 658.348 763.098 658.279 762.91C658.193 762.618 658.107 762.326 658.004 762.034C657.3 759.804 656.492 757.47 655.615 755.051C655.615 755.051 655.615 755.017 655.598 755.017C654.876 753.095 654.137 751.104 653.346 749.062C653.346 749.028 653.312 749.011 653.295 748.977C653.277 748.96 653.277 748.925 653.26 748.908C652.968 748.136 652.659 747.364 652.332 746.574C652.005 745.768 651.679 744.944 651.335 744.121C650.132 741.221 648.843 738.218 647.468 735.13H647.45C645.714 731.2 643.806 727.116 641.761 722.912C641.486 722.295 641.211 721.677 640.936 721.059C640.85 720.922 640.764 720.802 640.678 720.648H640.661V720.596C640.111 719.464 639.543 718.348 638.976 717.199C638.495 716.238 637.996 715.277 637.498 714.299C634.352 708.104 630.932 701.67 627.236 695.064C627.236 695.047 627.236 695.029 627.219 695.012C624.142 690.431 620.928 685.764 617.542 681.045H617.525C617.525 681.045 617.49 680.976 617.473 680.959C596.864 652.184 570.547 621.212 540.157 592.386C539.246 593.45 538.301 594.513 537.356 595.56C536.668 596.332 535.963 597.104 535.241 597.877C535.052 598.117 534.829 598.34 534.588 598.58C533.849 599.404 533.093 600.227 532.302 601.034C532.113 601.257 531.907 601.48 531.683 601.703C530.91 602.527 530.136 603.333 529.328 604.14C529.139 604.363 528.933 604.586 528.693 604.809C526.544 607.039 524.378 609.218 522.264 611.346C521.215 612.393 520.184 613.422 519.153 614.435H519.135Z" fill="white"/>
<path d="M528.607 592.42C529.432 591.528 530.24 590.619 531.065 589.709C532.011 588.662 532.956 587.599 533.884 586.518C528.642 581.679 523.262 576.909 517.796 572.242C517.039 573.477 516.283 574.695 515.527 575.913C515.08 576.634 514.616 577.355 514.169 578.058C513.498 579.088 512.845 580.083 512.192 581.078C512.054 581.301 511.917 581.49 511.779 581.696C511.126 582.691 510.456 583.669 509.786 584.63C509.631 584.853 509.476 585.076 509.321 585.299C508.668 586.26 507.998 587.221 507.328 588.165C506.692 589.057 506.056 589.932 505.42 590.807C505.849 589.778 506.262 588.765 506.692 587.736C507.19 586.552 507.671 585.368 508.153 584.167C508.221 584.012 508.29 583.841 508.359 583.669C508.875 582.417 509.39 581.147 509.889 579.877C509.94 579.791 509.975 579.688 510.009 579.603C510.559 578.264 511.092 576.943 511.608 575.605C511.917 574.85 512.226 574.112 512.501 573.357C513.069 571.95 513.619 570.543 514.152 569.136C510.181 565.79 506.159 562.512 502.085 559.287C499.816 557.485 497.53 555.7 495.227 553.95C494.677 555.34 494.109 556.713 493.525 558.068C493.439 558.291 493.353 558.514 493.25 558.72C492.665 560.11 492.064 561.483 491.445 562.838C490.861 564.177 490.242 565.498 489.623 566.819C489.451 566.716 489.296 566.631 489.125 566.528C489.279 566.665 489.417 566.785 489.571 566.922C488.987 568.192 488.385 569.462 487.767 570.714C487.131 572.018 486.477 573.305 485.824 574.575C485.532 575.176 485.223 575.776 484.913 576.377C485.085 575.69 485.24 575.021 485.412 574.335C485.773 572.876 486.116 571.418 486.477 569.959C486.821 568.501 487.182 567.042 487.509 565.584C487.56 565.447 487.578 565.309 487.612 565.189C487.99 563.593 488.368 561.998 488.729 560.419C489.09 558.84 489.451 557.262 489.795 555.683C489.829 555.546 489.864 555.409 489.881 555.289C490.242 553.744 490.568 552.2 490.878 550.656C490.19 550.124 489.503 549.609 488.798 549.094L488.712 549.009L488.609 548.94L488.403 548.785C473.569 537.838 458.58 527.972 443.471 519.255C443.454 519.255 443.419 519.221 443.402 519.204L440.772 517.711C440.961 519.478 441.168 521.228 441.408 522.996C441.254 522.91 441.116 522.824 440.961 522.738C441.116 522.841 441.271 522.962 441.425 523.064C441.666 525.021 441.941 526.96 442.25 528.916C443.024 534.063 443.935 539.211 444.949 544.359C445.293 546.057 445.654 547.773 446.015 549.489C446.359 551.205 446.737 552.938 447.132 554.671C447.596 556.816 448.077 558.961 448.576 561.123C449.023 563.044 449.47 564.966 449.934 566.888C459.714 572.55 469.306 578.556 478.656 584.802C490.259 592.54 501.501 600.674 512.329 609.081C513.361 608.069 514.409 607.039 515.458 605.993C517.761 603.693 520.116 601.326 522.454 598.906C522.54 598.82 522.626 598.735 522.712 598.649C523.623 597.705 524.534 596.744 525.445 595.783C525.531 595.698 525.616 595.612 525.685 595.526C526.596 594.582 527.507 593.621 528.401 592.643" fill="white"/>
<path d="M405.552 499.865C405.552 500.037 405.569 500.191 405.569 500.363C405.638 501.804 405.741 503.246 405.879 504.704C405.896 504.979 405.913 505.253 405.947 505.528C406.687 513.661 408.268 522.378 410.709 531.712C410.967 532.621 411.207 533.548 411.465 534.474C411.654 535.212 411.86 535.95 412.067 536.671C412.531 538.352 412.995 540.017 413.511 541.681C413.648 542.213 413.82 542.745 413.975 543.26C414.542 545.13 415.126 546.966 415.728 548.819C426.247 553.83 436.578 559.252 446.685 565.017C445.705 562.855 444.726 560.659 443.797 558.445C442.904 556.369 442.044 554.241 441.219 552.114C440.497 550.295 439.792 548.442 439.122 546.589C438.486 544.787 437.85 543.002 437.266 541.201C435.134 534.801 433.295 528.28 431.851 521.708C431.524 520.198 431.215 518.671 430.94 517.161C430.837 516.681 430.751 516.218 430.665 515.737C430.424 514.416 430.201 513.112 430.012 511.808C421.882 507.484 413.734 503.503 405.552 499.865Z" fill="white"/>
<path d="M367.46 513.37C367.408 514.382 367.391 515.411 367.391 516.441C367.391 517.882 367.425 519.324 367.511 520.748C367.529 521.228 367.563 521.709 367.597 522.189C367.666 523.15 367.752 524.094 367.855 525.038C367.855 525.089 367.872 525.14 367.872 525.192V525.243C368.044 526.736 368.25 528.212 368.508 529.688C368.319 529.653 368.165 529.619 367.975 529.585C368.165 529.636 368.336 529.688 368.508 529.773C379.251 533.325 389.977 537.426 400.531 541.956L401.253 542.265C402.456 542.78 403.677 543.312 404.88 543.861C404.106 542.008 403.367 540.137 402.68 538.25C402.766 538.267 402.834 538.301 402.92 538.318C402.834 538.284 402.749 538.25 402.663 538.215C402.044 536.568 401.442 534.921 400.892 533.239C400.325 531.592 399.792 529.945 399.294 528.298C396.44 518.843 394.549 509.183 393.931 499.54C393.913 499.317 393.896 499.093 393.896 498.888C393.81 497.532 393.759 496.194 393.742 494.838C386.832 492.024 379.922 489.467 373.012 487.151C372.995 487.151 372.977 487.134 372.96 487.134C372.771 487.58 372.599 488.043 372.445 488.506C372.101 489.382 371.791 490.274 371.499 491.166C371.173 492.161 370.846 493.174 370.554 494.169C370.537 494.238 370.519 494.289 370.502 494.358C370.244 495.284 369.987 496.211 369.763 497.137C369.729 497.257 369.694 497.395 369.677 497.515C369.471 498.304 369.299 499.076 369.144 499.866C369.058 500.174 368.99 500.483 368.938 500.792C368.766 501.667 368.594 502.542 368.457 503.435C368.44 503.538 368.422 503.658 368.405 503.778C368.285 504.447 368.182 505.133 368.096 505.82C368.027 506.352 367.958 506.884 367.907 507.415C367.821 508.153 367.735 508.891 367.683 509.646C367.649 509.972 367.632 510.315 367.614 510.658C367.546 511.431 367.494 512.203 367.477 512.992C367.46 513.112 367.46 513.249 367.46 513.37Z" fill="white"/>
<path d="M86.3371 608.035L84.2916 611.81C85.8386 612.514 87.4028 613.217 89.0014 613.904C90.3077 612.84 91.6485 611.793 93.0236 610.746C93.4533 610.42 93.8831 610.094 94.33 609.786C95.5332 608.893 96.7535 608.035 98.0083 607.16L96.9255 606.354C94.5191 604.552 92.2844 602.733 90.2046 600.932L88.1076 604.792L86.3371 608.035Z" fill="white"/>
<path d="M57.3377 597.982C63.2163 601.448 69.6106 604.845 76.4861 608.174L78.5144 604.399L81.5911 598.754L83.7397 594.808C76.8986 587.618 72.5498 580.446 70.7622 573.308L67.9089 578.558L59.3832 594.224L57.3377 597.982Z" fill="white"/>
<path d="M39.2219 585.936C39.5141 586.176 39.8063 586.399 40.1157 586.622C43.1925 588.922 46.4928 591.221 50.0165 593.486L52.062 589.711L63.0801 569.446C55.6201 573.856 48.8304 578.455 42.694 583.19C41.508 584.117 40.3564 585.026 39.2219 585.936Z" fill="white"/>
<path d="M243.41 463.387C243.547 464.623 243.805 465.858 244.218 467.076C246.744 474.729 253.861 479.568 261.51 479.568C263.4 479.568 265.343 479.259 267.233 478.641C272.768 476.822 276.842 472.584 278.664 467.505C267.388 465.532 256.336 463.936 245.541 462.684H245.507L243.41 463.387Z" fill="white"/>
<path d="M234.524 457.261L224.262 460.675L234.592 457.278H234.575L234.524 457.261Z" fill="white"/>
<path d="M218.896 495.388C217.71 497.721 216.232 499.849 214.461 501.702C216.008 501.685 217.555 501.685 219.119 501.685C255.56 501.685 295.197 506.077 334.182 515.515C334.663 515.635 335.161 515.755 335.643 515.875C343.446 516.75 351.181 517.848 358.831 519.152C358.813 518.26 358.796 517.351 358.796 516.441C358.796 506.729 360.378 497.361 363.334 488.507C353.502 485.35 343.773 482.484 334.182 479.876C318.162 475.535 302.485 471.949 287.204 469.049C286.758 470.542 286.173 471.983 285.468 473.39C282.254 479.773 276.736 484.543 269.93 486.791C267.197 487.683 264.361 488.147 261.507 488.147C249.922 488.147 239.695 480.768 236.051 469.769C235.655 468.568 235.346 467.35 235.122 466.132L218.948 471.451C219.515 472.583 219.996 473.75 220.391 474.951C222.643 481.729 222.11 488.987 218.896 495.388Z" fill="white"/>
<path d="M213.655 464.176L224.226 460.675C218.588 460.264 213.019 459.938 207.536 459.715C200.849 459.44 194.266 459.303 187.837 459.303C186.256 459.303 184.692 459.303 183.145 459.337C181.391 459.337 179.655 459.371 177.936 459.423L178.658 461.602C178.71 461.739 178.744 461.859 178.813 461.979C179.312 463.404 180.034 464.656 180.927 465.754C181.838 466.921 182.938 467.899 184.159 468.671C186.307 470.061 188.817 470.816 191.413 470.816C192.788 470.816 194.163 470.61 195.538 470.164C195.572 470.147 195.607 470.147 195.641 470.13L203.754 467.453L208.928 465.737L213.655 464.176Z" fill="white"/>
<path d="M178.604 475.297C177.401 474.456 176.284 473.461 175.304 472.38C174.221 471.247 173.293 470.012 172.502 468.673C171.677 467.318 171.007 465.842 170.491 464.298L168.961 459.699C161.295 460.025 153.852 460.557 146.65 461.261L149.916 471.11C151.773 476.738 157.032 480.307 162.67 480.307C164.063 480.307 165.489 480.084 166.899 479.621L168.463 479.106L173.19 477.544L178.347 475.846L179.051 475.605C178.897 475.52 178.759 475.417 178.604 475.297Z" fill="white"/>
<path d="M176.819 485.383C176.957 486.619 177.215 487.854 177.627 489.072C180.154 496.708 187.287 501.564 194.936 501.564C196.827 501.564 198.752 501.255 200.66 500.637C210.217 497.48 215.391 487.185 212.228 477.645C211.816 476.426 211.3 475.277 210.664 474.213L176.819 485.383Z" fill="white"/>
<path d="M97.94 523.837C97.6994 524.129 97.4588 524.438 97.2526 524.746C97.5963 524.558 97.9401 524.369 98.2838 524.197C99.6074 523.511 100.948 522.859 102.34 522.207C103.681 521.572 105.073 520.937 106.5 520.337C107.549 519.873 108.614 519.444 109.697 518.998C109.25 518.947 108.786 518.93 108.339 518.93C107.36 518.93 106.397 519.033 105.452 519.239C103.939 519.565 102.495 520.165 101.172 520.989C99.9683 521.744 98.8682 522.705 97.94 523.837Z" fill="white"/>
<path d="M90.462 528.06L89.9464 529.003C90.2901 528.797 90.6167 528.574 90.9604 528.368C90.7886 528.265 90.6339 528.163 90.462 528.06Z" fill="white"/>
<path d="M35.7848 577.648C44.8433 570.493 55.1223 563.766 66.5013 557.589C68.5983 549.198 73.8925 541.614 81.8337 534.94L84.7386 529.603L86.7841 525.811L88.8296 522.053L88.9499 521.847C89.8438 520.2 90.9267 518.707 92.1814 517.386C93.144 516.322 94.2269 515.379 95.3958 514.538C96.5646 513.68 97.8194 512.959 99.1429 512.359C101.979 511.055 105.09 510.351 108.339 510.351C111.983 510.351 115.61 511.26 118.841 513.011L121.867 514.641C137.955 509.51 156.811 505.821 177.507 503.711C173.863 500.622 171.044 496.538 169.462 491.768C169.067 490.55 168.758 489.332 168.534 488.079C166.609 488.611 164.65 488.885 162.673 488.885C153.15 488.885 144.745 482.828 141.754 473.803L137.921 462.221C120.715 464.314 104.953 467.471 90.8235 471.521C88.8639 472.087 86.9388 472.67 85.048 473.271C83.2776 473.82 81.5416 474.386 79.8399 474.97H79.8227C67.5326 479.156 56.7208 484.064 47.5591 489.52C46.2872 490.275 45.0496 491.03 43.8464 491.82C42.6088 492.609 41.4055 493.415 40.2367 494.239C23.0478 506.25 13.2846 520.509 12.5282 535.54C11.8063 549.953 20.0742 564.178 35.7848 577.648Z" fill="white"/>
<path d="M512.432 621.061C512.432 621.061 512.501 621.096 512.535 621.13C513.549 621.799 514.581 622.468 515.578 623.138C516.592 623.807 517.606 624.476 518.603 625.162C519.6 625.814 520.597 626.501 521.594 627.187C522.402 627.736 523.21 628.285 524.017 628.851C525.186 629.658 526.355 630.464 527.507 631.305C528.452 631.957 529.398 632.626 530.326 633.296C531.34 633.999 532.337 634.72 533.334 635.458C534.778 636.487 536.204 637.534 537.631 638.598C539.058 639.644 540.467 640.708 541.877 641.772C545.624 644.603 549.302 647.452 552.912 650.317C554.717 651.741 556.504 653.183 558.275 654.641C559.048 655.242 559.805 655.877 560.561 656.511C560.595 656.511 560.63 656.563 560.664 656.58C560.767 656.666 560.87 656.752 560.973 656.855C561.111 656.94 561.231 657.043 561.369 657.181C562.091 657.764 562.83 658.365 563.535 658.982C565.236 660.389 566.921 661.813 568.588 663.238C569.379 663.907 570.17 664.576 570.943 665.262C572.456 666.549 573.951 667.853 575.429 669.157C578.97 672.263 582.408 675.386 585.777 678.492C586.877 679.504 587.977 680.534 589.077 681.563C590.091 682.507 591.106 683.451 592.103 684.412C593.099 685.355 594.096 686.299 595.059 687.243C596.039 688.186 597.019 689.13 597.981 690.074C599.803 691.824 601.591 693.591 603.344 695.342C603.396 695.393 603.43 695.427 603.482 695.479C604.272 696.268 605.063 697.075 605.854 697.864C605.888 697.916 605.94 697.95 605.974 698.001C611.509 703.595 616.734 709.086 621.667 714.439C621.685 714.457 621.702 714.474 621.719 714.508C628.319 721.698 634.353 728.613 639.802 735.133C639.922 735.27 640.025 735.407 640.145 735.545C645.611 744.587 650.321 752.927 654.206 760.356C654.206 760.373 654.223 760.373 654.223 760.391C655.993 762.793 657.351 764.663 658.245 765.933L659.07 765.401C658.881 764.766 658.675 764.114 658.469 763.462C658.469 763.462 658.469 763.445 658.451 763.445C658.417 763.256 658.348 763.102 658.28 762.913C658.194 762.621 658.108 762.33 658.005 762.038C657.3 759.807 656.492 757.474 655.615 755.054C655.615 755.054 655.615 755.02 655.598 755.02C654.876 753.098 654.137 751.108 653.346 749.066C653.346 749.031 653.312 749.014 653.295 748.98C653.278 748.963 653.278 748.929 653.26 748.911C652.968 748.139 652.659 747.367 652.332 746.578C652.006 745.771 651.679 744.948 651.335 744.124C650.132 741.224 648.843 738.221 647.468 735.133H647.451C645.715 731.204 643.807 727.12 641.761 722.916C641.486 722.298 641.211 721.68 640.936 721.063C640.85 720.925 640.764 720.805 640.678 720.651H640.661V720.599C633.27 709.429 624.607 697.109 614.586 684.223C614.5 684.137 614.431 684.051 614.379 683.948C598.256 663.289 578.626 641.223 555.215 620.221C554.115 619.243 553.032 618.264 551.932 617.321V617.286C545.486 611.624 538.937 606.202 532.302 601.037C532.113 601.26 531.907 601.483 531.684 601.706C530.91 602.53 530.137 603.336 529.329 604.143C529.14 604.366 528.933 604.589 528.693 604.812C526.544 607.043 524.378 609.222 522.264 611.349C521.216 612.396 520.184 613.426 519.153 614.438C518.139 615.45 517.125 616.446 516.128 617.424L516.076 617.475C514.89 618.659 513.67 619.86 512.467 621.061H512.432Z" fill="white"/>
<path d="M412.067 536.676C412.531 538.357 412.995 540.022 413.511 541.686C413.648 542.218 413.82 542.75 413.975 543.265C414.542 545.135 415.126 546.971 415.728 548.824C416.347 550.729 416.983 552.633 417.636 554.521C420.231 562.054 423.102 569.552 426.127 577.033C426.797 578.732 427.468 580.413 428.173 582.112C454.781 592.202 479.516 605.036 502.171 619.192C503.116 618.249 504.061 617.288 505.024 616.327C506.416 614.954 507.826 613.547 509.252 612.123C510.284 611.128 511.298 610.115 512.329 609.086C513.361 608.073 514.409 607.044 515.458 605.997C517.761 603.698 520.116 601.33 522.453 598.911C522.539 598.825 522.625 598.739 522.711 598.653C523.622 597.71 524.533 596.749 525.444 595.788C523.846 594.587 522.23 593.403 520.614 592.236C520.047 591.824 519.497 591.429 518.93 591.018C518.122 590.434 517.297 589.851 516.489 589.285C514.581 587.929 512.656 586.591 510.731 585.269C510.421 585.064 510.112 584.84 509.785 584.635C509.631 584.858 509.476 585.081 509.321 585.304C508.668 586.265 507.998 587.226 507.327 588.169C506.691 589.062 506.055 589.937 505.419 590.812C505.849 589.782 506.262 588.77 506.691 587.74C507.19 586.556 507.671 585.372 508.152 584.171C508.221 584.017 508.29 583.845 508.359 583.674C507.602 583.159 506.829 582.644 506.055 582.129C506.021 582.112 505.987 582.078 505.952 582.061C500.778 578.629 495.536 575.334 490.259 572.177C489.434 571.697 488.591 571.199 487.766 570.719C487.13 572.023 486.477 573.31 485.824 574.579C485.532 575.18 485.222 575.781 484.913 576.381C485.085 575.695 485.24 575.026 485.411 574.339C485.772 572.881 486.116 571.422 486.477 569.964C473.328 562.294 459.834 555.482 446.015 549.493C446.358 551.209 446.737 552.942 447.132 554.675C447.596 556.82 448.077 558.965 448.576 561.127C449.023 563.049 449.47 564.971 449.934 566.892C450.398 568.814 450.862 570.753 451.326 572.692C451.635 573.91 451.928 575.146 452.237 576.381C451.463 574.906 450.707 573.396 449.968 571.886C448.851 569.638 447.768 567.356 446.702 565.039H446.685C445.705 562.86 444.725 560.664 443.797 558.45C442.903 556.374 442.044 554.246 441.219 552.119C440.497 550.3 439.792 548.447 439.122 546.594C430.235 542.939 421.228 539.627 412.067 536.676Z" fill="white"/>
<path d="M375.764 552.511H375.747C376.074 553.266 376.418 553.987 376.761 554.707C376.985 555.188 377.208 555.651 377.449 556.114C378.686 558.654 380.062 561.142 381.54 563.596C382.021 564.419 382.52 565.243 383.035 566.049C383.035 566.067 383.07 566.084 383.087 566.118C383.602 566.959 384.153 567.782 384.703 568.606C398.488 571.935 411.861 576.053 424.804 580.84C423.601 579.004 422.398 577.134 421.212 575.246C416.158 567.165 411.466 558.602 407.426 549.714C406.55 547.775 405.69 545.819 404.882 543.863C404.109 542.01 403.37 540.14 402.682 538.252C402.768 538.269 402.837 538.304 402.923 538.321C402.837 538.286 402.751 538.252 402.665 538.218C402.046 536.571 401.444 534.923 400.894 533.242C390.444 530.188 379.821 527.579 369.044 525.435C369.044 525.435 369.026 525.417 369.009 525.417C368.631 525.349 368.253 525.263 367.875 525.194V525.246C368.046 526.739 368.253 528.214 368.511 529.69C368.322 529.656 368.167 529.621 367.978 529.587C368.167 529.638 368.339 529.69 368.511 529.776C368.579 530.17 368.648 530.582 368.734 530.977C368.837 531.56 368.94 532.126 369.061 532.71C369.181 533.345 369.318 533.98 369.49 534.614C369.662 535.387 369.851 536.159 370.058 536.931C371.433 542.302 373.375 547.518 375.764 552.511Z" fill="white"/>
<path d="M220.531 562.738C245.678 558.432 273.06 555.772 302.178 555.206C304.258 555.154 306.303 555.137 308.366 555.137C317.081 555.137 325.692 555.497 334.183 556.201C346.491 557.196 358.574 558.912 370.4 561.228C369.507 559.513 368.681 557.779 367.891 556.012L367.461 555.068C367.049 554.176 366.653 553.284 366.275 552.374L364.212 547.776L364.401 547.69C362.459 542.405 361.015 537.017 360.087 531.561C359.881 530.377 359.692 529.193 359.554 527.992C351.321 526.533 342.898 525.315 334.269 524.354C334.269 524.337 334.235 524.337 334.218 524.337C334.218 524.337 334.206 524.343 334.183 524.354C322.925 523.084 311.34 522.261 299.41 521.918C292.397 521.729 285.556 521.626 278.801 521.626C253.362 521.626 229.675 523.016 207.725 525.555C217.952 535.01 222.731 549.114 220.531 562.738Z" fill="white"/>
<path d="M79.0669 621.421L82.2296 615.587L84.2923 611.829L86.3378 608.037L88.1083 604.794L90.2053 600.934L92.3024 597.073L121.3 543.709C128.812 541.273 136.684 538.991 144.917 536.897L150.693 540.02C151.398 538.75 152.171 537.549 153.031 536.417C153.495 535.782 153.976 535.181 154.492 534.598C155.471 534.358 156.434 534.135 157.431 533.929C169.36 531.269 181.994 528.97 195.298 527.134C208.86 534.512 215.168 550.092 211.421 564.403C210.098 564.643 208.774 564.917 207.468 565.192C205.989 565.466 204.528 565.775 203.067 566.084C201.538 566.41 200.008 566.736 198.495 567.079C158.686 575.916 125.631 589.094 101.773 604.64C100.484 605.464 99.2294 606.322 98.009 607.162C96.7542 608.037 95.5339 608.895 94.3307 609.788C93.8837 610.096 93.454 610.422 93.0243 610.748C91.6492 611.795 90.3084 612.842 89.002 613.906C87.7473 614.918 86.5268 615.948 85.3408 616.977C82.6937 619.276 80.253 621.627 78.0012 623.995C78.2591 623.12 78.62 622.262 79.0669 621.421ZM161.763 546.026L194.49 563.751C194.628 563.819 194.765 563.905 194.885 563.991L198.1 565.724C198.719 564.54 199.217 563.322 199.595 562.086C200.059 560.525 200.334 558.946 200.437 557.35C200.902 549.474 196.897 541.667 189.505 537.652C186.343 535.936 182.922 535.13 179.553 535.13C175.101 535.13 170.735 536.537 167.125 539.179C165.905 540.054 164.771 541.084 163.756 542.233C162.828 543.297 161.986 544.481 161.264 545.751L161.763 546.026ZM52.4414 606.991L55.2947 601.757L57.3402 597.982L59.3857 594.225L67.9114 578.559L70.7647 573.308L74.1165 567.131L77.0215 561.795C86.8363 556.801 97.5794 552.117 109.268 547.844L85.9253 590.793L83.7423 594.808L81.5937 598.754L78.5169 604.4L76.4886 608.175L74.4259 611.932L71.5038 617.32C69.1661 621.644 68.3238 626.517 69.1145 631.288L57.8386 625.179C51.3241 621.644 48.9005 613.511 52.4414 606.991ZM35.8541 588.768C36.9542 587.824 38.0715 586.898 39.2232 585.937C40.3576 585.027 41.5092 584.118 42.6953 583.192C48.8317 578.456 55.6214 573.857 63.0813 569.447L52.0632 589.712L47.9722 597.262L44.8955 602.907C42.0765 608.072 41.4577 614.009 43.125 619.654C44.8095 625.282 48.5738 629.932 53.7477 632.729L66.3471 639.558C59.7638 651.346 57.9246 663.597 61.5343 675.712C66.4675 692.235 83.9142 704.058 110.763 711.196C50.5334 708.433 10.1224 693.488 2.02647 666.377C-5.00378 642.767 6.25491 614.232 35.8541 588.768Z" fill="white"/>
<path d="M512.43 621.06C512.43 621.06 512.499 621.095 512.533 621.129C513.547 621.798 514.579 622.467 515.575 623.137C516.59 623.806 517.604 624.475 518.601 625.161C519.598 625.813 520.595 626.5 521.592 627.186C522.399 627.735 523.207 628.284 524.015 628.85C525.184 629.657 526.353 630.463 527.505 631.304C528.45 631.939 529.395 632.608 530.324 633.295C531.338 633.998 532.335 634.719 533.332 635.457C534.775 636.486 536.202 637.533 537.629 638.597C539.055 639.626 540.465 640.69 541.874 641.771C545.622 644.585 549.3 647.433 552.91 650.316C554.714 651.74 556.502 653.182 558.273 654.64C559.046 655.241 559.802 655.875 560.559 656.51C560.593 656.51 560.627 656.562 560.662 656.579C560.765 656.665 560.868 656.751 560.971 656.854C561.109 656.939 561.229 657.042 561.367 657.18C562.089 657.763 562.828 658.363 563.532 658.981C565.234 660.371 566.919 661.795 568.586 663.237C569.377 663.906 570.167 664.575 570.941 665.261C572.453 666.548 573.949 667.852 575.427 669.156C578.968 672.262 582.406 675.385 585.775 678.491C586.875 679.503 587.975 680.533 589.075 681.562C590.089 682.506 591.103 683.45 592.1 684.41C593.097 685.354 594.094 686.298 595.057 687.242C596.037 688.185 597.016 689.129 597.979 690.073C599.801 691.823 601.588 693.59 603.342 695.341C603.393 695.392 603.428 695.426 603.479 695.478C604.27 696.267 605.061 697.074 605.851 697.863C605.886 697.914 605.937 697.949 605.972 698C611.506 703.594 616.732 709.085 621.665 714.438C621.682 714.455 621.699 714.473 621.717 714.507C628.317 721.697 634.35 728.611 639.799 735.132C639.92 735.269 640.023 735.406 640.143 735.544C645.609 744.586 650.319 752.925 654.204 760.355C654.204 760.372 654.221 760.372 654.221 760.39C654.788 761.471 655.338 762.552 655.888 763.598C656.421 764.662 656.937 765.692 657.435 766.687C659.068 769.998 660.512 773.087 661.75 775.918C661.251 773.43 660.598 770.736 659.773 767.836C659.618 767.253 659.446 766.652 659.257 766.035C659.223 765.897 659.171 765.743 659.137 765.606C659.102 765.537 659.085 765.468 659.068 765.4C658.879 764.765 658.673 764.113 658.466 763.461C658.466 763.461 658.466 763.444 658.449 763.444C658.415 763.255 658.346 763.101 658.277 762.912C658.191 762.62 658.105 762.328 658.002 762.037C657.298 759.806 656.49 757.472 655.613 755.053C655.613 755.053 655.613 755.019 655.596 755.019C654.874 753.097 654.135 751.107 653.344 749.065C653.344 749.03 653.31 749.013 653.293 748.979C653.275 748.962 653.275 748.927 653.258 748.91C652.966 748.138 652.657 747.366 652.33 746.577C652.003 745.77 651.677 744.947 651.333 744.123C650.13 741.223 648.841 738.22 647.466 735.132H647.448C645.712 731.202 643.804 727.119 641.759 722.915C641.398 722.16 641.02 721.405 640.676 720.65H640.659V720.598C640.109 719.466 639.542 718.351 638.974 717.201C638.493 716.24 637.994 715.279 637.496 714.301C634.35 708.107 630.93 701.672 627.234 695.066C627.234 695.049 627.234 695.032 627.217 695.015C626.856 694.363 626.495 693.711 626.134 693.076C625.567 692.063 625 691.051 624.415 690.039C624.398 690.004 624.381 689.953 624.347 689.918C623.143 687.808 621.923 685.697 620.685 683.553C619.327 681.236 617.952 678.903 616.543 676.569C615.632 675.042 614.704 673.515 613.775 671.988C612.847 670.46 611.902 668.933 610.939 667.389C609.994 665.845 609.014 664.283 608.034 662.722C607.037 661.16 606.058 659.599 605.043 658.037C604.047 656.459 603.032 654.897 602.001 653.319C601.743 652.924 601.485 652.512 601.21 652.118C599.887 650.093 598.546 648.068 597.188 646.043C594.833 642.509 592.41 638.94 589.917 635.371C587.872 632.402 585.758 629.417 583.626 626.431C576.768 616.839 569.531 607.196 561.951 597.587C560.524 595.785 559.098 594.001 557.654 592.199C554.818 588.665 551.93 585.13 548.973 581.612C547.031 584.152 545.037 586.657 542.975 589.094C542.046 590.209 541.118 591.307 540.156 592.388C539.245 593.452 538.299 594.516 537.354 595.562C536.666 596.335 535.961 597.107 535.24 597.879C535.05 598.119 534.827 598.342 534.586 598.582C533.847 599.406 533.091 600.23 532.3 601.036C532.111 601.259 531.905 601.482 531.681 601.705C530.908 602.529 530.134 603.335 529.327 604.142C529.137 604.365 528.931 604.588 528.691 604.811C526.542 607.042 524.376 609.221 522.262 611.348C521.213 612.395 520.182 613.425 519.151 614.437C518.137 615.449 517.122 616.445 516.126 617.423L516.074 617.474C514.888 618.658 513.668 619.859 512.464 621.06H512.43Z" fill="white"/>
<path d="M528.604 592.424C529.429 591.531 530.237 590.622 531.062 589.713C532.008 588.666 532.953 587.602 533.881 586.521C534.826 585.44 535.755 584.359 536.683 583.244C538.952 580.533 541.152 577.753 543.249 574.905C543.197 574.819 543.129 574.733 543.043 574.647C541.582 572.949 540.121 571.233 538.625 569.551C537.886 568.693 537.147 567.852 536.391 567.012C535.205 565.656 534.001 564.301 532.781 562.962C531.732 561.778 530.667 560.611 529.601 559.445C528.621 558.364 527.642 557.283 526.645 556.202C524.565 560.388 522.347 564.472 520.027 568.47C519.288 569.74 518.549 570.992 517.792 572.245C517.036 573.48 516.28 574.699 515.523 575.917C515.076 576.638 514.612 577.358 514.165 578.062C513.495 579.091 512.842 580.087 512.189 581.082C512.051 581.305 511.914 581.494 511.776 581.7C511.123 582.695 510.453 583.673 509.782 584.634C509.628 584.857 509.473 585.08 509.318 585.303C508.665 586.264 507.995 587.225 507.324 588.168C506.688 589.061 506.052 589.936 505.416 590.811C505.846 589.781 506.259 588.769 506.688 587.739C507.187 586.555 507.668 585.371 508.149 584.17C508.218 584.016 508.287 583.844 508.356 583.673C508.871 582.42 509.387 581.15 509.885 579.881C509.937 579.795 509.971 579.692 510.006 579.606C510.556 578.268 511.089 576.947 511.604 575.608C511.914 574.853 512.223 574.115 512.498 573.36C513.065 571.953 513.615 570.546 514.148 569.139C514.698 567.732 515.231 566.325 515.764 564.901C517.603 560.011 519.356 555.103 520.989 550.179C520.388 549.527 519.769 548.892 519.15 548.24C517.981 547.004 516.795 545.769 515.609 544.551L504.987 556.116L502.082 559.29L499.16 562.465L498.386 563.305L495.498 566.463L493.212 568.951L492.594 569.62L490.256 572.176L487.265 575.419L481.627 581.562L478.653 584.805L475.714 587.997L468.649 595.701C470.592 596.696 472.534 597.691 474.459 598.721C475.284 599.133 476.109 599.579 476.934 600.025C480.613 601.981 484.24 603.989 487.832 606.048C488.743 606.563 489.654 607.077 490.565 607.609C492.232 608.57 493.9 609.548 495.55 610.543C496.289 610.972 497.045 611.419 497.784 611.882C500.225 613.34 502.632 614.816 505.021 616.326C506.413 614.953 507.823 613.546 509.249 612.122C510.281 611.127 511.295 610.114 512.326 609.085C513.358 608.073 514.406 607.043 515.455 605.996C517.758 603.697 520.113 601.329 522.45 598.91C522.536 598.824 522.622 598.738 522.708 598.652C523.619 597.709 524.53 596.748 525.441 595.787C525.527 595.701 525.613 595.615 525.682 595.529C526.593 594.586 527.504 593.625 528.398 592.647" fill="white"/>
<path d="M528.604 592.423C529.429 591.531 530.237 590.622 531.062 589.712C532.007 588.666 532.953 587.602 533.881 586.521C534.826 585.44 535.755 584.359 536.683 583.243C538.952 580.532 541.152 577.753 543.249 574.904C543.318 574.973 543.369 575.042 543.438 575.11C543.386 575.042 543.318 574.973 543.266 574.887C543.283 574.87 543.301 574.836 543.318 574.818C544.108 573.755 544.882 572.674 545.638 571.593C545.707 571.507 545.776 571.404 545.844 571.301C546.274 570.7 546.687 570.083 547.099 569.465C547.512 568.847 547.924 568.229 548.32 567.612C549.076 566.462 549.798 565.33 550.503 564.163C551.637 562.275 552.72 560.371 553.751 558.415C554.095 557.78 554.422 557.128 554.748 556.476C555.401 555.172 556.037 553.85 556.622 552.529H556.605C561.968 541.325 564.958 529.09 564.958 516.444C564.958 491.015 552.961 468.108 533.744 451.996C535.755 455.634 537.474 459.512 538.849 463.595C548.079 491.358 542.458 520.94 530.581 547.828C529.945 549.252 529.309 550.676 528.638 552.066C527.985 553.456 527.332 554.829 526.645 556.201C524.565 560.388 522.347 564.472 520.027 568.47C519.288 569.739 518.549 570.992 517.792 572.245C517.036 573.48 516.28 574.698 515.523 575.917C515.076 576.637 514.612 577.358 514.165 578.061C513.495 579.091 512.842 580.086 512.189 581.081C512.051 581.304 511.914 581.493 511.776 581.699C511.123 582.694 510.453 583.672 509.782 584.633C509.628 584.856 509.473 585.079 509.318 585.302C508.665 586.263 507.995 587.224 507.324 588.168C506.688 589.06 506.052 589.935 505.416 590.81C505.846 589.781 506.259 588.769 506.688 587.739C507.187 586.555 507.668 585.371 508.149 584.17C508.218 584.016 508.287 583.844 508.356 583.672C508.871 582.42 509.387 581.15 509.885 579.88C509.937 579.794 509.971 579.692 510.006 579.606C510.556 578.267 511.089 576.946 511.604 575.608C511.914 574.853 512.223 574.115 512.498 573.36C513.065 571.953 513.615 570.546 514.148 569.139C514.698 567.732 515.231 566.325 515.764 564.901C517.603 560.01 519.356 555.103 520.989 550.178C521.505 548.634 522.004 547.09 522.485 545.546C522.983 543.95 523.465 542.388 523.911 540.81C524.547 538.716 525.132 536.589 525.699 534.478C538.299 488.939 530.821 457.727 506.207 435.661C500.38 433.344 494.261 431.508 487.901 430.239C492.043 434.751 495.653 439.865 498.609 445.579C510.728 469.155 510.968 496.163 505.193 522.175C504.849 523.788 504.454 525.401 504.041 526.997C503.663 528.593 503.233 530.171 502.804 531.75C501.085 537.876 499.074 543.898 496.856 549.784C496.323 551.191 495.773 552.581 495.223 553.953C494.673 555.343 494.106 556.716 493.522 558.072C493.436 558.295 493.35 558.518 493.247 558.724C492.662 560.113 492.061 561.486 491.442 562.842C490.857 564.18 489.568 566.925 489.568 566.925C488.984 568.195 488.382 569.465 487.763 570.718C487.127 572.022 486.474 573.308 485.821 574.578C485.529 575.179 485.219 575.779 484.91 576.38C485.082 575.694 485.237 575.024 485.408 574.338C485.769 572.88 486.113 571.421 486.474 569.963C486.818 568.504 487.179 567.046 487.506 565.587C487.557 565.45 487.574 565.312 487.609 565.192C487.987 563.597 488.365 562.001 488.726 560.422C489.087 558.844 489.448 557.265 489.792 555.686C489.826 555.549 489.86 555.412 489.878 555.292C490.239 553.748 490.565 552.203 490.875 550.659C491.236 549.115 491.545 547.57 491.854 546.026C493.298 538.939 494.536 531.87 495.498 524.784C495.756 523.05 495.962 521.3 496.169 519.567C496.255 518.915 496.323 518.263 496.392 517.611C496.53 516.496 496.65 515.381 496.753 514.282C500.896 473.479 491.253 446.042 469.285 428.145C469.045 427.957 468.821 427.768 468.581 427.579C468.357 427.751 468.134 427.922 467.91 428.111C454.898 438.698 446.201 452.614 442.127 470.699C441.783 472.192 441.474 473.719 441.216 475.263C440.924 476.808 440.683 478.386 440.477 479.982C439.205 489.711 439.102 500.521 440.219 512.498C440.356 514.094 440.528 515.706 440.717 517.354C440.717 517.44 440.717 517.525 440.752 517.611C440.752 517.645 440.752 517.68 440.769 517.714C440.958 519.481 441.164 521.232 441.405 522.999C441.25 522.913 441.113 522.827 440.958 522.742C441.113 522.845 441.267 522.965 441.422 523.068C441.663 525.024 441.938 526.963 442.247 528.919C443.021 534.066 443.932 539.214 444.946 544.362C445.29 546.06 445.651 547.776 446.012 549.492C446.355 551.208 446.734 552.941 447.129 554.674C447.593 556.819 448.074 558.964 448.573 561.126C449.02 563.048 449.467 564.969 449.931 566.891C450.395 568.813 450.859 570.752 451.323 572.691C451.632 573.909 451.925 575.144 452.234 576.38C451.46 574.904 450.704 573.394 449.965 571.884C448.848 569.636 447.765 567.354 446.699 565.038H446.682C445.702 562.859 444.722 560.662 443.794 558.449C442.9 556.373 442.041 554.245 441.216 552.117C440.494 550.299 439.789 548.445 439.119 546.592C438.483 544.791 437.847 543.006 437.263 541.204C435.131 534.804 433.292 528.284 431.848 521.712C431.521 520.202 431.212 518.675 430.937 517.165C430.834 516.685 430.748 516.221 430.662 515.741C430.421 514.42 430.198 513.116 430.009 511.811C429.906 511.194 429.803 510.593 429.734 510.01C429.562 508.86 429.407 507.711 429.27 506.578C427.912 495.202 427.895 483.808 429.717 472.758C429.957 471.231 430.249 469.704 430.576 468.194C430.868 466.718 431.229 465.26 431.625 463.801C433.24 457.555 435.526 451.464 438.552 445.579C441.732 439.436 445.668 433.996 450.206 429.244C449.277 429.381 448.366 429.518 447.455 429.69C445.015 430.101 442.625 430.599 440.253 431.165C439.703 431.303 439.136 431.44 438.586 431.594C437.211 431.937 435.853 432.332 434.495 432.727C434.443 432.761 434.375 432.778 434.306 432.778C434.306 432.778 434.306 432.795 434.289 432.795C426.554 439.093 420.314 446.179 415.639 454.175C414.917 455.411 414.229 456.646 413.593 457.933C412.94 459.203 412.339 460.507 411.771 461.828C407.543 471.608 405.394 482.642 405.429 495.133V495.408C405.446 496.866 405.48 498.359 405.549 499.869C405.549 500.041 405.566 500.195 405.566 500.367C405.635 501.808 405.738 503.249 405.876 504.708C405.893 504.982 405.91 505.257 405.944 505.531C406.683 513.665 408.265 522.381 410.706 531.716C410.964 532.625 411.204 533.552 411.462 534.478C411.651 535.216 411.857 535.954 412.064 536.675C412.528 538.356 412.992 540.021 413.507 541.685C413.645 542.217 413.817 542.749 413.972 543.263C414.539 545.134 415.123 546.97 415.725 548.823C416.344 550.728 416.98 552.632 417.633 554.52C420.228 562.052 423.099 569.551 426.124 577.032C426.794 578.731 427.465 580.412 428.17 582.111C429.012 584.204 429.871 586.298 430.748 588.391C431.074 589.198 431.418 590.004 431.745 590.81C431.057 589.867 430.37 588.923 429.699 587.962C428.049 585.646 426.416 583.278 424.801 580.841C423.597 579.005 422.394 577.135 421.208 575.247C416.155 567.166 411.462 558.603 407.423 549.715C406.546 547.776 405.687 545.82 404.879 543.864C404.105 542.011 403.366 540.141 402.678 538.253C402.764 538.27 402.833 538.305 402.919 538.322C402.833 538.287 402.747 538.253 402.661 538.219C402.043 536.572 401.441 534.924 400.891 533.243C400.324 531.596 399.791 529.948 399.292 528.301C396.439 518.847 394.548 509.186 393.929 499.543C393.912 499.32 393.895 499.097 393.895 498.891C393.809 497.535 393.757 496.197 393.74 494.841C393.723 494.55 393.723 494.258 393.723 493.966C393.689 492.714 393.706 491.461 393.74 490.209C393.74 489.865 393.757 489.522 393.775 489.179C394.084 480.565 395.511 472.003 398.312 463.595C399.172 461.022 400.186 458.533 401.321 456.131C401.922 454.827 402.575 453.54 403.263 452.288C403.95 451.035 404.672 449.8 405.429 448.599C406.133 447.466 406.873 446.351 407.646 445.27C406.391 446.093 405.154 446.951 403.968 447.826C402.678 448.753 401.424 449.714 400.203 450.692H400.186C400.049 450.812 399.911 450.932 399.774 451.035C399.189 451.516 398.605 451.996 398.038 452.494C397.556 452.888 397.092 453.3 396.628 453.712C394.668 455.445 392.812 457.229 391.042 459.1C390.663 459.477 390.303 459.855 389.959 460.249C389.615 460.593 389.288 460.953 388.979 461.33C388.498 461.862 388.034 462.394 387.569 462.943C387.14 463.424 386.727 463.921 386.315 464.436C385.593 465.328 384.871 466.238 384.2 467.147C383.771 467.696 383.358 468.263 382.963 468.829C382.103 470.013 381.278 471.231 380.488 472.466C380.144 472.981 379.817 473.496 379.508 474.028C378.184 476.173 376.964 478.369 375.847 480.634C375.434 481.475 375.022 482.316 374.643 483.173C374.437 483.62 374.231 484.066 374.042 484.512C373.664 485.37 373.303 486.245 372.959 487.137C372.77 487.583 372.598 488.047 372.443 488.51C372.1 489.385 371.79 490.277 371.498 491.169C371.171 492.165 370.845 493.177 370.553 494.172C370.535 494.241 370.518 494.292 370.501 494.361C370.243 495.288 369.985 496.214 369.762 497.141C369.727 497.261 369.693 497.398 369.676 497.518C369.47 498.308 369.298 499.08 369.143 499.869C369.057 500.178 368.988 500.487 368.937 500.796C368.765 501.671 368.593 502.546 368.455 503.438C368.438 503.541 368.421 503.661 368.404 503.781C368.284 504.45 368.18 505.137 368.094 505.823C368.026 506.355 367.957 506.887 367.905 507.419C367.819 508.157 367.734 508.894 367.682 509.649C367.648 509.975 367.63 510.319 367.613 510.662C367.544 511.434 367.493 512.206 367.476 512.995C367.458 513.116 367.458 513.253 367.458 513.373C367.407 514.385 367.39 515.415 367.39 516.444C367.39 517.886 367.424 519.327 367.51 520.751C367.527 521.232 367.562 521.712 367.596 522.193C367.665 523.153 367.751 524.097 367.854 525.041C367.854 525.092 367.871 525.144 367.871 525.195V525.247C368.043 526.74 368.249 528.215 368.507 529.691C368.318 529.657 368.163 529.622 367.974 529.588C368.163 529.639 368.335 529.691 368.507 529.777C368.576 530.171 368.644 530.583 368.73 530.978C368.834 531.561 368.937 532.127 369.057 532.711C369.177 533.346 369.315 533.981 369.487 534.615C369.659 535.388 369.848 536.16 370.054 536.932C371.429 542.303 373.371 547.519 375.761 552.512H375.744C376.07 553.267 376.414 553.988 376.758 554.708C376.981 555.189 377.205 555.652 377.445 556.115C378.683 558.655 380.058 561.143 381.536 563.597C382.017 564.42 382.516 565.244 383.032 566.05C383.032 566.067 383.066 566.085 383.083 566.119C383.599 566.96 384.149 567.783 384.699 568.607C386.005 570.597 387.38 572.553 388.773 574.458C388.927 574.664 389.082 574.887 389.254 575.093C393.568 580.91 398.313 586.486 403.177 591.771C403.83 592.492 404.5 593.213 405.154 593.916C405.154 593.933 405.188 593.968 405.222 593.985C406.048 594.877 406.873 595.735 407.698 596.593C409.365 598.36 411.032 600.076 412.7 601.758C413.697 602.77 414.676 603.782 415.673 604.76C416.309 605.378 416.911 605.996 417.512 606.596C418.389 607.472 419.248 608.312 420.091 609.153C420.83 609.874 421.569 610.594 422.291 611.315C423.477 612.499 424.646 613.649 425.78 614.781L427.155 616.154C427.602 616.6 428.066 617.046 428.496 617.492C429.39 618.385 430.267 619.277 431.126 620.135C431.143 620.169 431.178 620.203 431.212 620.221C432.467 621.507 433.67 622.76 434.822 623.978C435.629 624.836 436.42 625.677 437.176 626.518C437.537 626.895 437.864 627.29 438.208 627.667C439.274 628.851 440.288 630.035 441.216 631.185C441.439 631.442 441.646 631.7 441.835 631.957C443.76 634.359 445.341 636.641 446.527 638.821C446.716 639.164 446.905 639.507 447.06 639.833C447.249 640.211 447.421 640.571 447.576 640.931C447.782 641.412 447.988 641.892 448.143 642.373C448.195 642.51 448.246 642.647 448.281 642.802C448.384 643.11 448.487 643.436 448.555 643.745C448.641 644.071 448.71 644.38 448.762 644.689C448.831 644.998 448.865 645.29 448.899 645.598H483.466C483.5 645.272 483.552 644.929 483.621 644.603C483.655 644.414 483.69 644.209 483.758 644.02C483.776 643.865 483.81 643.694 483.879 643.539C483.913 643.316 483.982 643.093 484.068 642.87C484.154 642.544 484.274 642.235 484.394 641.909C484.515 641.566 484.669 641.206 484.824 640.845C485.443 639.473 486.234 638.049 487.179 636.573C487.471 636.11 487.781 635.646 488.124 635.166C490.754 631.374 494.381 627.273 498.609 622.863C499.761 621.662 500.947 620.426 502.168 619.191C503.113 618.247 504.058 617.286 505.021 616.326C506.413 614.953 507.823 613.546 509.249 612.122C510.281 611.126 511.295 610.114 512.326 609.085C513.358 608.072 514.406 607.043 515.455 605.996C517.758 603.697 520.113 601.329 522.45 598.909C522.536 598.824 522.622 598.738 522.708 598.652C523.619 597.708 524.53 596.747 525.441 595.786C525.527 595.701 525.613 595.615 525.682 595.529C526.593 594.585 527.504 593.624 528.398 592.646" fill="white"/>
<path d="M448.9 667.426H483.467V692.992H448.9V667.426Z" fill="white"/>
<path d="M418.116 347.173L405.912 315.961L393.725 347.173L362.459 359.338L393.725 371.521L405.912 402.733L418.116 371.521L449.383 359.338L418.116 347.173Z" fill="white"/>
</svg>
