<svg width="694" height="790" viewBox="0 0 694 790" fill="none" xmlns="http://www.w3.org/2000/svg">
<path d="M502.618 39.6769C508.461 41.9995 513.919 45.335 518.73 49.5961C543.502 25.4966 571.317 8.12049 601.652 0H546.703C530.853 11.7703 516.106 25.1473 502.618 39.6769Z" fill="white"/>
<path d="M527.039 0H496.407C489.479 7.78869 482.884 16.0663 476.586 24.8679C473.577 28.9718 470.638 33.1456 467.769 37.3717C472.265 36.2366 476.919 35.6428 481.66 35.6428C484.371 35.6428 487.065 35.8349 489.707 36.2191C501.008 23.0866 513.516 10.8797 527.039 0Z" fill="white"/>
<path d="M440.707 115.677C441.931 117.772 443.331 119.798 444.923 121.737C445.92 122.941 446.97 124.112 448.107 125.247C450.503 127.639 453.95 129.962 458.148 132.197C462.522 124.059 467.105 116.166 471.899 108.552C466.335 104.937 462.627 98.7022 462.539 91.5946V91.3327C462.539 82.5136 468.102 74.9869 475.905 72.0705C478.161 71.2148 480.611 70.7433 483.165 70.7433C487.888 70.7433 492.244 72.3325 495.708 75.0044C501.149 68.246 506.764 61.8544 512.572 55.8295C507.674 51.5859 502.111 48.5473 496.268 46.6787C491.947 45.2642 487.451 44.5132 482.955 44.4085C482.518 44.3735 482.098 44.3735 481.66 44.3735C474.033 44.3735 466.405 46.2072 459.495 49.857C455.612 51.9003 451.955 54.5198 448.649 57.7505C448.457 57.9077 448.282 58.0823 448.107 58.257C432.519 73.8169 430.053 97.5322 440.707 115.677Z" fill="white"/>
<path d="M402.762 295.743C412.647 240.244 430.193 186.317 454.09 139.83C449.069 137.175 444.888 134.364 441.932 131.412C441.477 130.958 441.022 130.487 440.62 130.015C435.179 140.685 430.088 151.565 425.242 162.637C428.286 150.063 432.135 137.629 436.771 125.475C429.423 115.8 425.47 104.082 425.47 91.7528C425.47 76.7517 431.313 62.6762 441.932 52.0759C446.165 47.8498 450.976 44.3571 456.172 41.7376C459.986 34.1759 464.149 26.754 468.662 19.5241C472.686 12.7658 477.06 6.2519 481.766 0H455.63C442.526 22.0039 431.418 46.3479 422.583 72.351C385.881 180.415 402.762 295.743 402.762 295.743Z" fill="white"/>
<path d="M689.927 83.2825C691.746 85.0288 691.676 87.5435 693.496 89.5169V77.991C691.641 78.6721 689.909 79.4754 687.967 80.0168C686.288 80.4883 684.014 80.1565 682.737 80.9598C679.92 82.7411 680.742 86.1115 676.701 84.5573C674.165 83.5968 672.1 79.3532 671.401 77.5894C671.173 77.048 672.223 76.1749 671.436 74.7254C670.876 73.7125 666.87 71.7217 665.942 71.4248C667.867 76.3146 664.053 78.4102 659.715 77.1528C660.152 79.2833 661.796 79.7898 662.916 81.9378C663.791 83.6317 663.318 86.2338 664.333 87.6483C667.29 91.7697 670.019 87.4213 673.377 87.7007C677.191 88.0151 677.908 91.5601 682.474 89.7789C685.431 88.6437 687.985 85.413 689.927 83.2825Z" fill="white"/>
<path d="M693.496 134.643V113.023C693.163 112.604 692.936 112.08 692.813 111.434C692.743 111.084 692.726 110.683 692.743 110.246C691.571 110.054 690.224 110.753 688.86 111.905C685.641 114.577 682.264 119.729 680.55 121.632C678.731 123.676 675.862 125.282 674.462 127.5H674.445C673.622 128.81 673.29 130.312 673.972 132.233C672.905 131.272 672.223 129.84 671.785 128.338C671.488 127.325 671.296 126.26 671.156 125.3C670.631 121.493 669.756 122.488 673.342 120.253C674.829 119.345 684.399 115.922 685.116 112.499C685.361 111.416 684.696 110.334 682.614 109.321C679.71 107.906 674.76 112.569 671.768 113.11C666.747 114.036 663.581 113.25 660.764 118.856C660.677 119.03 660.589 119.222 660.519 119.415C659.26 122.261 659.032 125.963 658.175 128.88C656.391 135.114 654.851 134.363 648.658 133.263C653.242 131.883 653.907 126.313 650.565 123.972C650.128 123.658 649.621 123.396 649.026 123.222C647.819 122.837 642.028 123.623 640.454 125.143C639.054 126.47 639.946 128.915 638.862 130.364C636.937 132.896 633.229 132.861 630.605 134.171C628.663 135.167 626.913 137.175 624.727 137.472C620.58 138.065 617.746 131.621 614.93 130.783C608.492 128.88 609.524 136.075 610.469 141.418C611.029 144.509 613.075 147.88 615.77 150.307C617.746 152.141 620.073 153.433 622.382 153.765C623.677 153.94 625.146 153.94 626.651 153.817C630.517 153.503 634.786 152.473 637.987 151.896C643.725 150.849 648.081 148.159 653.137 146.273C660.992 143.339 658.7 147.478 658.263 152.892C662.846 151.966 667.115 148.771 671.803 147.566C674.725 146.815 677.436 146.64 680.27 145.679C682.597 144.876 686.603 144.702 688.65 143.828C693.933 141.558 690.329 142.431 690.732 137.838C691.046 134.223 691.116 134.922 693.496 134.643Z" fill="white"/>
<path d="M539.88 119.94C540.248 121.354 540.598 122.752 540.93 124.149C532.743 132.758 525.273 142.084 518.643 151.985C517.506 151.723 516.351 151.444 515.161 151.165C522.404 139.988 530.696 129.527 539.898 119.94H539.88ZM500.519 177.569C503.458 171.213 506.712 165.013 510.263 159.023C511.4 159.302 512.502 159.564 513.604 159.826C508.933 167.493 504.735 175.474 501.079 183.751C501.586 190.073 501.114 194.247 499.224 200.918C498.927 201.948 498.21 204.795 497.422 208.462C495.201 219.027 492.541 236.369 498.454 236.892C499.592 234.221 498.454 231.182 498.629 228.3C498.944 223.655 500.729 218.87 501.901 214.382C505.365 201.337 508.933 189.34 518.293 179.385C520.532 176.993 522.071 171.44 524.118 169.781C527.705 166.882 530.783 171.3 534.142 172.103C539.321 173.343 543.187 171.195 545.269 166.532C545.286 166.497 545.304 166.462 545.321 166.428C545.356 166.48 545.391 166.515 545.443 166.567C547.175 168.645 550.692 168.75 553.438 167.982C554.121 167.79 554.75 167.545 555.293 167.266C556.552 166.602 557.392 165.519 558.179 164.384C558.931 163.284 559.596 162.132 560.541 161.206C563.392 158.464 566.821 157.381 570.687 156.334C570.303 161.45 565.474 166.742 562.465 171.125C560.471 174.059 559.124 177.202 554.803 176.521C550.919 175.91 551.654 173.186 549.012 171.125C547.77 172.819 546.511 174.862 545.566 176.836C542.819 176.05 538.131 179.176 537.484 181.533C536.889 183.751 538.148 193.705 538.813 195.731C540.073 199.643 543.904 202.28 547.123 205.528C549.397 207.816 552.266 210.016 554.243 212.566C556.01 214.801 557.234 215.797 558.931 217.368C566.541 224.284 565.789 222.939 568.028 214.889C569.48 209.754 575.166 206.733 577.877 202.332C581.079 197.128 582.583 190.178 586.117 185.41C587.727 183.227 590.386 181.935 592.083 180.119C594.094 177.988 595.739 175.107 597.838 172.906V172.819C598.153 172.47 598.485 172.138 598.818 171.789C602.474 168.087 606.638 164.454 610.504 161.014C610.801 164.524 610.224 167.755 609.104 170.776C607.355 175.526 604.241 179.735 600.917 183.629C597.208 188.012 596.561 193.374 594.007 198.473C591.733 203.048 587.499 206.943 584.228 210.889C581.341 214.382 576.215 217.543 574.029 221.088C572.017 224.336 573.242 228.353 568.833 229.715C565.614 230.71 555.153 227.777 551.986 226.432C549.31 225.297 548.837 222.677 545.723 224.965C544.219 236.788 552.354 250.025 558.634 259.385C561.101 263.07 563.55 263.873 566.769 266.161C569.62 268.169 570.512 270.108 572.559 273.374C576.408 279.573 581.569 284.672 582.688 292.147C583.511 297.63 581.009 301.053 579.662 305.995C578.21 311.269 578.542 317.643 580.729 322.778C581.341 324.21 582.828 325.746 583.615 327.213C584.823 329.484 585.172 332.208 587.027 334.373C590.211 338.163 593.535 338.495 598.013 340.171C597.436 342.249 594.777 347.017 595.616 349.235C596.299 351.068 597.278 350.038 598.153 351.278C599.588 353.304 601.197 355.766 602.841 357.862C606.025 362 610.714 365.476 614.3 369.195C618.026 373.09 619.688 378.102 622.225 382.799C622.977 384.249 623.677 386.379 625.024 387.357C626.301 388.283 628.19 387.026 629.52 388.283C631.217 389.89 630.045 392.806 631.794 394.29C632.196 394.622 636.85 395.146 637.567 395.286C644.11 396.543 652.192 398.185 659.067 397.591C660.677 390.413 665.645 387.584 669.249 381.158C673.273 373.963 673.867 367.693 675.372 360.202C675.774 358.176 676.579 354.613 677.419 352.535C678.713 349.235 682.072 348.554 683.734 346.091C685.291 343.751 685.081 336.102 684.539 333.36C683.874 330.165 681.635 325.415 680.9 322.725C679.693 318.307 679.36 315.041 679.85 310.571C680.777 301.979 687.635 299.516 692.446 293.09C692.813 292.583 693.163 292.077 693.478 291.553V478.656C691.659 478.656 689.857 478.639 688.055 478.586C686.218 478.534 684.381 478.464 682.544 478.377C680.795 478.289 679.046 478.185 677.296 478.045C675.512 477.905 673.745 477.748 671.978 477.573C671.89 477.556 671.82 477.556 671.751 477.556C668.392 477.207 665.05 476.787 661.744 476.299C559.421 461.001 480.96 372.915 480.96 266.51C480.96 234.744 487.958 204.62 500.501 177.569H500.519ZM577.772 348.431C575.551 345.27 569.708 347.314 570.705 341.638C571.335 337.988 577.213 336.783 573.119 332.243C571.632 330.619 565.614 329.728 563.235 329.134C561.888 328.802 561.765 330.601 560.331 329.658C559.981 329.414 559.176 325.921 558.949 325.327C558.179 323.127 558.039 320.245 555.31 320.507C551.374 320.979 560.523 338.46 562.273 342.04C565.439 348.536 568.466 366.052 579.277 361.232C579.784 359.259 578.962 350.09 577.772 348.431ZM633.036 63.0965C652.192 57.4034 672.485 54.3647 693.496 54.3647V75.0764C688.825 72.7537 684.014 73.819 679.343 71.2344C676.281 69.523 673.78 67.0432 670.648 65.2095C669.686 64.6332 668.654 64.1093 667.517 63.7077C662.566 61.9439 647.644 63.4457 645.387 69.6278C645.16 70.2914 645.072 71.0074 645.142 71.7758C644.022 71.3217 643.288 70.7804 642.675 70.2914C641.381 69.2436 640.559 68.3355 637.532 68.4403C635.853 68.5101 631.567 70.1517 630.22 68.4053C599.15 78.1674 571.177 94.9497 548.19 116.884C547.84 115.504 547.473 114.142 547.123 112.728C571.125 89.9377 600.445 72.7188 633.036 63.0965Z" fill="white"/>
<path d="M670.648 65.2094C678.206 64.3712 685.833 63.9521 693.496 63.9521L693.425 53.3428C671.26 53.3428 649.516 56.8095 628.645 63.4107C597.786 73.1029 569.883 89.5011 546.686 111.068C546.826 111.627 546.983 112.169 547.123 112.71C547.473 114.142 547.84 115.504 548.19 116.884C548.697 118.875 549.187 120.83 549.642 122.734C572.507 100.241 600.567 83.2142 631.794 73.3998C635.398 72.2647 639.019 71.2169 642.675 70.2913C643.568 70.0643 644.477 69.8373 645.387 69.6277C653.679 67.6194 662.129 66.1525 670.648 65.2094Z" fill="white"/>
<path d="M524.101 153.241C529.629 145.121 535.752 137.437 542.382 130.242C541.927 128.268 541.438 126.225 540.93 124.147C540.598 122.75 540.248 121.353 539.881 119.938C539.723 119.327 539.583 118.733 539.426 118.122C529.664 128.059 520.865 138.956 513.185 150.691C513.832 150.849 514.479 151.006 515.127 151.163C516.316 151.442 517.471 151.722 518.608 151.984C520.48 152.42 522.299 152.839 524.066 153.241H524.101Z" fill="white"/>
<path d="M477.916 268.675C477.916 322.288 497.772 373.648 533.845 413.307C569.655 452.687 618.446 477.363 671.226 482.759L671.558 482.794C673.325 482.969 675.109 483.126 676.911 483.265C678.696 483.405 680.498 483.51 682.299 483.615C684.189 483.702 686.061 483.772 687.933 483.824C689.769 483.877 691.624 483.894 693.496 483.894V473.416C691.729 473.416 689.979 473.399 688.23 473.346C686.41 473.294 684.609 473.224 682.807 473.137C681.127 473.067 679.43 472.962 677.733 472.822C676.019 472.683 674.34 472.543 672.66 472.368C672.45 472.351 672.275 472.333 672.118 472.316C567.381 461.489 488.413 373.979 488.413 268.675C488.413 248.016 491.439 227.845 497.44 208.461C499.784 200.812 502.618 193.268 505.889 185.881C509.703 177.271 514.077 169.011 518.975 161.1C517.243 160.699 515.441 160.262 513.622 159.825C512.52 159.563 511.418 159.301 510.28 159.022C509.633 158.865 508.968 158.69 508.304 158.516C503.86 165.92 499.854 173.656 496.32 181.637C484.127 209.107 477.934 238.393 477.934 268.675H477.916Z" fill="white"/>
<path d="M448.108 58.257C448.283 58.0823 448.458 57.9077 448.65 57.7505C451.957 54.5198 455.613 51.9003 459.497 49.857C466.407 46.2072 474.034 44.3735 481.662 44.3735C482.099 44.3735 482.519 44.3735 482.956 44.4085C487.452 44.5132 491.948 45.2642 496.269 46.6787C502.112 48.5473 507.675 51.5859 512.574 55.8295C513.483 56.5805 514.358 57.4012 515.215 58.257C524.889 67.9142 533.461 94.7206 539.427 118.122C539.584 118.733 539.724 119.327 539.882 119.92C540.249 121.352 540.599 122.749 540.931 124.146C541.439 126.225 541.929 128.268 542.383 130.241C546.075 146.133 548.209 158.183 548.209 158.183C548.209 158.183 538.045 156.384 524.102 153.241C522.335 152.839 520.516 152.42 518.644 151.983C517.507 151.721 516.352 151.442 515.163 151.162C514.515 151.005 513.868 150.848 513.221 150.691C494.362 146.081 472.145 139.636 458.185 132.197C453.986 129.962 450.54 127.639 448.143 125.247C447.006 124.112 445.956 122.941 444.959 121.736C443.367 119.798 441.968 117.772 440.743 115.677C430.089 97.5322 432.556 73.8169 448.143 58.257H448.108ZM471.9 108.552C475.136 110.682 479.003 111.905 483.166 111.905C494.555 111.905 503.774 102.701 503.774 91.3327C503.774 84.6791 500.625 78.759 495.709 75.0044C492.246 72.3325 487.89 70.7433 483.166 70.7433C480.612 70.7433 478.163 71.2148 475.906 72.0705C468.104 74.9869 462.541 82.5136 462.541 91.3327V91.5946C462.628 98.7022 466.337 104.937 471.9 108.552Z" fill="white"/>
<path d="M593.552 521.719C593.552 503.749 609.839 489.167 629.957 489.167C650.075 489.167 666.362 503.732 666.362 521.719C666.362 526.382 665.26 530.887 663.283 535.009C656.32 550.656 637.094 562.164 636.325 569.307H623.589C622.819 562.164 603.593 550.656 596.631 535.009C594.654 530.887 593.552 526.382 593.552 521.719Z" fill="white"/>
<path d="M623.571 577.356H636.307V586.786H623.571V577.356Z" fill="white"/>
<path d="M541.108 612.387C543.435 614.815 545.761 617.277 548.071 619.774C549.47 621.259 550.852 622.76 552.234 624.28C552.357 624.402 552.479 624.542 552.584 624.664C554.508 626.76 556.433 628.873 558.34 631.003C558.444 631.125 558.514 631.195 558.619 631.317L558.654 631.352C558.654 631.352 558.654 631.37 558.689 631.387C568.381 642.232 577.968 653.531 587.397 665.249C597.386 677.665 607.043 690.396 616.157 703.11C621.913 711.178 627.458 719.193 632.689 727.122C632.707 727.139 632.724 727.157 632.742 727.192C639.459 734.509 645.6 741.547 651.145 748.183C651.268 748.322 651.373 748.462 651.495 748.602C657.058 757.805 661.852 766.292 665.805 773.854C665.805 773.871 665.823 773.871 665.823 773.889C666.4 774.989 666.96 776.089 667.52 777.155C668.062 778.237 668.587 779.285 669.094 780.298C670.756 783.668 672.226 786.812 673.485 789.693C672.978 787.161 672.313 784.419 671.474 781.468C671.316 780.874 671.141 780.263 670.949 779.634C670.914 779.495 670.861 779.338 670.826 779.198C670.791 779.128 670.774 779.058 670.756 778.988C670.564 778.342 670.354 777.678 670.144 777.015C670.144 777.015 670.144 776.997 670.127 776.997C670.092 776.805 670.022 776.648 669.952 776.456C669.864 776.159 669.777 775.862 669.672 775.565C668.954 773.295 668.132 770.92 667.24 768.458C667.24 768.458 667.24 768.423 667.223 768.423C666.488 766.467 665.736 764.441 664.931 762.363C664.931 762.328 664.896 762.311 664.878 762.276C664.861 762.258 664.861 762.223 664.843 762.206C664.546 761.42 664.231 760.634 663.899 759.831C663.566 759.01 663.234 758.172 662.884 757.334C661.659 754.382 660.347 751.326 658.948 748.183H658.93C657.163 744.184 655.222 740.027 653.14 735.749C652.86 735.12 652.58 734.491 652.3 733.863C652.213 733.723 652.125 733.601 652.038 733.444H652.02V733.391C651.46 732.239 650.883 731.103 650.306 729.933C649.816 728.955 649.309 727.978 648.801 726.982C645.6 720.678 642.119 714.129 638.357 707.406C638.357 707.388 638.357 707.371 638.34 707.353C637.972 706.69 637.605 706.026 637.238 705.38C636.66 704.35 636.083 703.319 635.488 702.289C635.471 702.254 635.453 702.202 635.418 702.167C634.194 700.019 632.952 697.871 631.692 695.688C630.31 693.33 628.911 690.955 627.476 688.58C626.549 687.026 625.604 685.472 624.659 683.917C623.715 682.363 622.753 680.809 621.773 679.237C620.811 677.665 619.814 676.076 618.816 674.487C617.802 672.898 616.805 671.309 615.773 669.72C614.758 668.113 613.726 666.524 612.676 664.917C612.414 664.516 612.151 664.096 611.871 663.695C610.524 661.634 609.16 659.573 607.778 657.513C605.381 653.915 602.914 650.283 600.378 646.65C598.296 643.629 596.144 640.591 593.975 637.552C586.995 627.79 579.63 617.975 571.915 608.196C570.463 606.362 569.011 604.546 567.541 602.712C564.655 599.115 561.716 595.518 558.707 591.938C556.73 594.522 554.701 597.072 552.601 599.552C551.657 600.687 550.712 601.804 549.732 602.905C548.805 603.987 547.843 605.07 546.881 606.135C546.181 606.921 545.464 607.707 544.729 608.493C544.537 608.737 544.309 608.964 544.064 609.209C543.312 610.047 542.542 610.885 541.738 611.706C541.545 611.933 541.335 612.16 541.108 612.387Z" fill="white"/>
<path d="M537.995 602.94C538.835 602.032 539.657 601.106 540.497 600.18C541.459 599.115 542.421 598.032 543.366 596.932C544.328 595.832 545.272 594.732 546.217 593.597C548.526 590.838 550.766 588.008 552.9 585.11C552.97 585.179 553.022 585.249 553.092 585.319C553.04 585.249 552.97 585.179 552.917 585.092C552.935 585.075 552.952 585.04 552.97 585.022C553.775 583.94 554.562 582.839 555.332 581.739C555.402 581.652 555.472 581.547 555.542 581.442C550.048 575.051 544.205 568.502 538.03 561.866C537.365 563.28 536.7 564.677 536.001 566.074C533.884 570.335 531.627 574.492 529.265 578.561C528.513 579.853 527.761 581.128 526.991 582.403C526.221 583.66 525.452 584.9 524.682 586.14C524.227 586.873 523.755 587.607 523.3 588.323C522.618 589.371 521.953 590.384 521.288 591.396C521.148 591.623 521.008 591.815 520.868 592.025C525.609 596.6 530.333 601.298 535.021 606.101C535.948 605.14 536.875 604.162 537.785 603.167" fill="white"/>
<path d="M500.173 572.834C501.555 574.039 502.919 575.279 504.301 576.518C508.727 580.518 513.136 584.621 517.544 588.848C517.544 588.848 517.544 588.865 517.579 588.865C517.579 588.882 517.597 588.882 517.597 588.882C517.597 588.9 517.614 588.9 517.614 588.9C517.614 588.917 517.632 588.917 517.632 588.917C517.632 588.935 517.649 588.935 517.649 588.935C517.649 588.952 517.649 588.952 517.649 588.952C517.649 588.97 517.667 588.97 517.667 588.97C518.087 589.371 518.506 589.773 518.926 590.175C518.979 590.087 519.014 589.983 519.049 589.895C519.609 588.533 520.151 587.189 520.676 585.826C520.991 585.058 521.306 584.307 521.585 583.539C522.163 582.107 522.723 580.675 523.265 579.243C523.825 577.811 524.367 576.379 524.909 574.929C526.781 569.952 528.566 564.958 530.228 559.946C530.752 558.374 531.26 556.802 531.75 555.23C525.767 548.944 519.504 542.639 512.978 536.353C512.594 537.977 512.156 539.583 511.719 541.19C509.969 547.424 507.923 553.554 505.666 559.544C505.124 560.976 504.564 562.39 504.004 563.788C503.444 565.202 502.867 566.599 502.272 567.979C502.185 568.206 502.097 568.433 501.992 568.642C501.397 570.057 500.785 571.454 500.155 572.834H500.173Z" fill="white"/>
<path d="M448.039 521.597C448.179 523.221 448.354 524.863 448.547 526.539C448.547 526.627 448.547 526.714 448.582 526.801C448.582 526.836 448.582 526.871 448.599 526.906C448.792 528.705 449.001 530.486 449.246 532.285C449.089 532.197 448.949 532.11 448.792 532.023C448.949 532.128 449.106 532.25 449.264 532.355C463.329 542.204 477.412 553.188 491.512 565.256L491.792 565.535L491.932 565.622C493.751 567.194 495.588 568.766 497.408 570.372C497.775 568.766 498.142 567.159 498.492 565.553C498.527 565.413 498.562 565.273 498.58 565.151C498.947 563.579 499.279 562.007 499.594 560.436C499.962 558.864 500.277 557.292 500.591 555.721C502.061 548.508 503.32 541.313 504.3 534.101C504.563 532.337 504.772 530.556 504.982 528.792C487.908 512.953 469.172 497.515 449.054 483.701C448.757 485.273 448.512 486.88 448.302 488.504C447.007 498.406 446.902 509.408 448.039 521.597Z" fill="white"/>
<path d="M412.632 503.923V504.203C412.649 505.687 412.684 507.207 412.754 508.743C412.754 508.918 412.772 509.075 412.772 509.25C421.256 514.035 429.776 519.256 438.313 524.88C438.068 523.552 437.841 522.225 437.648 520.898C437.543 520.269 437.438 519.658 437.368 519.064C437.193 517.894 437.036 516.724 436.896 515.572C435.514 503.993 435.496 492.398 437.351 481.151C437.596 479.597 437.893 478.043 438.226 476.506C432.575 472.873 426.802 469.381 420.941 466.063C420.277 467.355 419.664 468.682 419.087 470.027C414.784 479.981 412.597 491.21 412.632 503.923Z" fill="white"/>
<path d="M381.301 491.75C381.091 492.204 380.881 492.658 380.688 493.112C380.706 493.129 380.741 493.129 380.758 493.147C387.389 496.063 394.036 499.259 400.719 502.734C400.684 501.459 400.702 500.184 400.737 498.91C400.737 498.56 400.754 498.211 400.771 497.862C401.086 489.095 402.538 480.381 405.39 471.824C406.265 469.204 407.297 466.672 408.451 464.227C409.064 462.9 409.728 461.59 410.428 460.315C409.396 459.757 408.364 459.215 407.314 458.691H407.297C407.157 458.814 407.017 458.936 406.877 459.041C406.282 459.53 405.687 460.019 405.11 460.525C404.62 460.927 404.148 461.346 403.676 461.765C401.681 463.529 399.792 465.345 397.99 467.248C397.605 467.633 397.238 468.017 396.888 468.418C396.538 468.768 396.206 469.135 395.891 469.519C395.401 470.06 394.928 470.601 394.456 471.16C394.019 471.649 393.599 472.156 393.179 472.68C392.444 473.588 391.71 474.513 391.027 475.439C390.59 475.998 390.17 476.574 389.768 477.15C388.893 478.355 388.053 479.595 387.249 480.852C386.899 481.376 386.566 481.9 386.251 482.442C384.904 484.625 383.662 486.86 382.525 489.165C382.105 490.021 381.685 490.876 381.301 491.75Z" fill="white"/>
<path d="M99.6807 533.139C99.4358 533.436 99.1909 533.751 98.981 534.065C99.3309 533.873 99.6807 533.681 100.031 533.506C101.378 532.808 102.742 532.144 104.159 531.48L103.18 530.467C103.18 530.467 103.04 530.31 102.97 530.24C101.745 531.009 100.625 531.987 99.6807 533.139Z" fill="white"/>
<path d="M44.6281 500.552C44.8206 500.762 45.0129 500.971 45.2054 501.181C55.6668 512.497 70.1519 523.901 88.3282 535.147L90.41 531.323L90.5325 531.113C91.4422 529.437 92.5443 527.918 93.8214 526.573C94.8011 525.49 95.9032 524.53 97.0928 523.674C86.9462 511.275 82.6951 499.557 84.4795 488.712C84.6545 487.629 84.8994 486.512 85.2142 485.394L85.4417 484.678C85.7566 483.648 86.124 482.652 86.5613 481.674C84.7594 482.233 82.9926 482.809 81.2607 483.403H81.2432C68.7349 487.664 57.7311 492.659 48.4068 498.212C47.1122 498.981 45.8527 499.749 44.6281 500.552Z" fill="white"/>
<path d="M290.576 457.418C290.716 457.663 290.838 457.925 290.961 458.186C307.248 462.168 323.745 466.988 340.119 472.611C351.683 476.575 363.176 480.941 374.512 485.726C379.621 475.318 386.688 465.853 395.26 457.68C395.103 457.61 394.963 457.54 394.805 457.47C376.244 448.844 357.98 441.264 340.119 434.628C326.893 429.739 313.878 425.39 301.142 421.531L303.784 429.512C307.545 440.898 301.65 453.174 290.576 457.418Z" fill="white"/>
<path d="M242.661 448.705C244.34 448.949 246.037 449.211 247.734 449.473C249.676 449.77 251.618 450.102 253.577 450.434C256.062 450.853 258.563 451.289 261.065 451.778C262.482 452.023 263.916 452.302 265.333 452.564C266.803 452.861 268.272 453.14 269.742 453.455C270.809 453.664 271.859 453.874 272.926 454.101L274.395 453.612L275.13 453.385L280.378 451.639L285.224 450.049L286.799 449.525C293.971 447.15 297.855 439.432 295.476 432.272L290.927 418.545C282.303 416.083 273.818 413.865 265.473 411.874C265.158 411.804 264.843 411.717 264.529 411.647L272.139 434.629C272.908 436.969 272.191 439.449 270.494 441.003C269.864 441.615 269.112 442.069 268.237 442.348C268.185 442.365 268.132 442.383 268.08 442.4H268.062C267.485 442.348 266.925 442.313 266.348 442.313H266.156C265.596 442.313 265.018 442.331 264.459 442.365H264.441C262.657 441.789 261.152 440.392 260.505 438.471L250.586 408.539C243.501 407.037 236.538 405.71 229.698 404.557L242.871 444.304C243.378 445.806 243.256 447.36 242.661 448.705Z" fill="white"/>
<path d="M195.723 399.946L210.68 445.089C217.293 445.577 224.028 446.259 230.903 447.114L216.103 402.425C209.176 401.43 202.371 400.609 195.723 399.946Z" fill="white"/>
<path d="M158.005 397.903L173.313 444.093C176.269 443.989 179.278 443.954 182.34 443.954C187.273 443.954 192.346 444.058 197.507 444.303L182.444 398.846C174.03 398.252 165.878 397.938 158.005 397.903Z" fill="white"/>
<path d="M125.973 399.23L141.788 446.905C148.821 445.77 156.326 444.967 164.233 444.495L148.803 397.955C140.861 398.112 133.251 398.549 125.973 399.23Z" fill="white"/>
<path d="M42.6507 491.472C43.0705 491.21 43.4903 490.965 43.9277 490.704C53.8818 484.783 65.4804 479.544 78.426 475.144L79.7905 474.672H79.8255C82.1697 473.886 84.5664 473.135 86.998 472.402C95.7276 460.998 111.875 453.07 133.112 448.529L117.088 400.208C66.4425 406.687 34.236 426.246 29.8275 453.087C27.8157 465.434 32.3817 478.374 42.6507 491.472Z" fill="white"/>
<path d="M528.353 625.344C560.542 651.033 589.005 678.835 612.395 705.414C612.465 705.484 612.517 705.554 612.587 705.641C613.952 707.178 615.281 708.715 616.611 710.251C616.646 710.304 616.698 710.339 616.733 710.391C622.366 716.084 627.685 721.673 632.705 727.121C632.723 727.139 632.74 727.156 632.758 727.191C639.476 734.508 645.616 741.546 651.162 748.182C651.284 748.322 651.389 748.461 651.511 748.601C657.075 757.804 661.868 766.292 665.822 773.853C665.822 773.871 665.839 773.871 665.839 773.888C666.416 774.988 666.976 776.089 667.536 777.154C668.078 778.237 668.603 779.284 669.11 780.297C670.772 783.668 672.242 786.811 673.501 789.693C672.994 787.16 672.329 784.419 671.49 781.467C671.332 780.874 671.157 780.262 670.965 779.634C670.93 779.494 670.877 779.337 670.842 779.197C670.807 779.127 670.79 779.057 670.772 778.987C670.58 778.341 670.37 777.678 670.16 777.014C670.16 777.014 670.16 776.997 670.143 776.997C670.108 776.805 670.038 776.647 669.968 776.455C669.88 776.158 669.793 775.862 669.688 775.565C668.971 773.294 668.148 770.919 667.256 768.457C667.256 768.457 667.256 768.422 667.239 768.422C666.504 766.466 665.752 764.44 664.947 762.362C664.947 762.327 664.912 762.31 664.894 762.275C664.877 762.258 664.877 762.223 664.859 762.205C664.562 761.419 664.247 760.633 663.915 759.83C663.582 759.009 663.25 758.171 662.9 757.333C661.675 754.382 660.363 751.325 658.964 748.182H658.946C657.18 744.183 655.238 740.027 653.156 735.748C652.876 735.119 652.596 734.491 652.316 733.862C652.229 733.722 652.141 733.6 652.054 733.443H652.036V733.39C651.476 732.238 650.899 731.103 650.322 729.933C649.832 728.955 649.325 727.977 648.817 726.981C645.616 720.677 642.135 714.128 638.373 707.405C638.373 707.387 638.373 707.37 638.356 707.353C635.224 702.69 631.953 697.94 628.507 693.137H628.489C628.489 693.137 628.454 693.067 628.437 693.05C607.461 663.764 580.678 632.242 549.749 602.904C548.821 603.987 547.859 605.069 546.897 606.135C546.197 606.92 545.48 607.706 544.745 608.492C544.553 608.737 544.325 608.964 544.08 609.208C543.328 610.046 542.559 610.885 541.754 611.705C541.561 611.932 541.351 612.159 541.124 612.386C540.337 613.225 539.55 614.045 538.727 614.866C538.535 615.093 538.325 615.32 538.08 615.547C535.893 617.818 533.689 620.035 531.537 622.201C530.47 623.266 529.42 624.314 528.371 625.344H528.353Z" fill="white"/>
<path d="M537.994 602.939C538.833 602.03 539.656 601.105 540.495 600.179C541.457 599.114 542.42 598.031 543.364 596.931C538.029 592.006 532.553 587.152 526.99 582.402C526.22 583.659 525.45 584.899 524.681 586.139C524.226 586.872 523.753 587.606 523.299 588.322C522.616 589.369 521.952 590.382 521.287 591.395C521.147 591.622 521.007 591.814 520.867 592.024C520.202 593.037 519.52 594.032 518.838 595.01C518.68 595.237 518.523 595.464 518.365 595.691C517.701 596.669 517.018 597.647 516.336 598.608C515.689 599.516 515.041 600.406 514.394 601.297C514.831 600.249 515.251 599.219 515.689 598.171C516.196 596.966 516.686 595.761 517.176 594.539C517.246 594.381 517.316 594.207 517.386 594.032C517.91 592.757 518.435 591.465 518.943 590.173C518.995 590.085 519.03 589.981 519.065 589.893C519.625 588.531 520.167 587.187 520.692 585.824C521.007 585.056 521.322 584.305 521.602 583.537C522.179 582.105 522.739 580.673 523.281 579.241C519.24 575.835 515.146 572.5 511 569.217C508.691 567.383 506.364 565.567 504.02 563.786C503.46 565.2 502.883 566.597 502.288 567.977C502.201 568.204 502.113 568.431 502.008 568.64C501.414 570.055 500.801 571.452 500.171 572.832C499.577 574.194 498.947 575.538 498.317 576.883C498.142 576.778 497.985 576.691 497.81 576.586C497.967 576.726 498.107 576.848 498.265 576.988C497.67 578.28 497.057 579.572 496.428 580.847C495.78 582.175 495.116 583.484 494.451 584.777C494.154 585.388 493.839 585.999 493.524 586.61C493.699 585.912 493.856 585.231 494.031 584.532C494.398 583.048 494.748 581.563 495.116 580.079C495.466 578.595 495.833 577.11 496.165 575.626C496.218 575.486 496.235 575.346 496.27 575.224C496.655 573.6 497.04 571.976 497.407 570.369C497.775 568.763 498.142 567.156 498.492 565.549C498.527 565.41 498.562 565.27 498.58 565.148C498.947 563.576 499.279 562.004 499.594 560.433C498.894 559.891 498.195 559.367 497.477 558.843L497.39 558.756L497.285 558.686L497.075 558.529C481.978 547.387 466.723 537.346 451.346 528.475C451.328 528.475 451.293 528.44 451.276 528.422L448.599 526.903C448.791 528.702 449.001 530.483 449.246 532.282C449.089 532.194 448.949 532.107 448.791 532.02C448.949 532.124 449.106 532.247 449.264 532.351C449.509 534.342 449.789 536.316 450.103 538.306C450.891 543.545 451.818 548.784 452.85 554.024C453.2 555.752 453.567 557.499 453.935 559.245C454.285 560.991 454.669 562.755 455.072 564.519C455.544 566.702 456.034 568.885 456.541 571.085C456.996 573.041 457.451 574.997 457.923 576.953C467.878 582.716 477.639 588.828 487.156 595.185C498.964 603.061 510.406 611.338 521.427 619.896C522.476 618.865 523.543 617.817 524.611 616.752C526.955 614.412 529.352 612.002 531.731 609.54C531.818 609.452 531.906 609.365 531.993 609.278C532.92 608.317 533.848 607.339 534.775 606.361C534.862 606.274 534.95 606.187 535.02 606.099C535.947 605.139 536.874 604.161 537.784 603.166" fill="white"/>
<path d="M412.753 508.741C412.753 508.915 412.77 509.073 412.77 509.247C412.84 510.714 412.945 512.181 413.085 513.665C413.103 513.945 413.12 514.224 413.155 514.504C413.908 522.781 415.517 531.653 418.001 541.153C418.264 542.078 418.509 543.021 418.771 543.964C418.963 544.715 419.173 545.466 419.383 546.2C419.856 547.911 420.328 549.605 420.853 551.299C420.993 551.84 421.168 552.382 421.325 552.906C421.902 554.809 422.497 556.678 423.109 558.564C433.816 563.663 444.33 569.182 454.616 575.049C453.619 572.849 452.622 570.614 451.677 568.361C450.768 566.248 449.893 564.082 449.053 561.917C448.318 560.066 447.601 558.18 446.919 556.294C446.272 554.46 445.624 552.644 445.03 550.81C442.86 544.296 440.988 537.66 439.519 530.972C439.186 529.435 438.872 527.881 438.592 526.344C438.487 525.855 438.399 525.383 438.312 524.894C438.067 523.55 437.839 522.223 437.647 520.895C429.372 516.495 421.08 512.443 412.753 508.741Z" fill="white"/>
<path d="M373.984 522.484C373.932 523.514 373.914 524.562 373.914 525.61C373.914 527.077 373.949 528.544 374.037 529.993C374.054 530.482 374.089 530.971 374.124 531.46C374.194 532.438 374.282 533.399 374.387 534.359C374.387 534.412 374.404 534.464 374.404 534.516V534.569C374.579 536.088 374.789 537.59 375.051 539.092C374.859 539.057 374.702 539.022 374.509 538.987C374.702 539.039 374.877 539.092 375.051 539.179C385.985 542.794 396.901 546.968 407.643 551.578L408.378 551.892C409.602 552.416 410.844 552.958 412.069 553.517C411.282 551.631 410.529 549.727 409.83 547.806C409.917 547.823 409.987 547.858 410.075 547.876C409.987 547.841 409.9 547.806 409.812 547.771C409.182 546.095 408.57 544.418 408.01 542.707C407.433 541.03 406.891 539.354 406.383 537.677C403.479 528.055 401.555 518.223 400.925 508.409C400.908 508.182 400.89 507.954 400.89 507.745C400.803 506.365 400.75 505.003 400.733 503.624C393.7 500.76 386.668 498.158 379.635 495.8C379.617 495.8 379.6 495.782 379.582 495.782C379.39 496.237 379.215 496.708 379.058 497.18C378.708 498.07 378.393 498.978 378.095 499.886C377.763 500.899 377.431 501.93 377.133 502.942C377.116 503.012 377.098 503.065 377.081 503.135C376.818 504.078 376.556 505.021 376.329 505.964C376.294 506.086 376.259 506.226 376.241 506.348C376.031 507.151 375.856 507.937 375.699 508.74C375.611 509.055 375.541 509.369 375.489 509.683C375.314 510.574 375.139 511.465 374.999 512.373C374.981 512.478 374.964 512.6 374.947 512.722C374.824 513.403 374.719 514.102 374.632 514.8C374.562 515.341 374.492 515.883 374.439 516.424C374.352 517.175 374.264 517.926 374.212 518.694C374.177 519.026 374.159 519.376 374.142 519.725C374.072 520.511 374.019 521.297 374.002 522.1C373.984 522.222 373.984 522.362 373.984 522.484Z" fill="white"/>
<path d="M87.8706 618.831L85.7888 622.673C87.3633 623.389 88.9552 624.105 90.5822 624.804C91.9117 623.721 93.2763 622.656 94.6758 621.591C95.1132 621.259 95.5505 620.927 96.0054 620.613C97.23 619.705 98.472 618.831 99.749 617.941L98.647 617.12C96.1978 615.286 93.9235 613.435 91.8068 611.602L89.6725 615.531L87.8706 618.831Z" fill="white"/>
<path d="M58.3562 608.599C64.3392 612.126 70.847 615.584 77.8446 618.972L79.9089 615.13L83.0403 609.385L85.2271 605.368C78.2644 598.051 73.8384 590.751 72.0191 583.486L69.1151 588.83L60.438 604.774L58.3562 608.599Z" fill="white"/>
<path d="M39.9189 596.339C40.2163 596.584 40.5137 596.811 40.8286 597.038C43.96 599.378 47.3189 601.718 50.9051 604.023L52.9869 600.181L64.2007 579.557C56.6083 584.045 49.698 588.725 43.4527 593.545C42.2456 594.488 41.0735 595.414 39.9189 596.339Z" fill="white"/>
<path d="M247.732 471.614C247.872 472.872 248.134 474.129 248.554 475.369C251.126 483.158 258.368 488.082 266.153 488.082C268.078 488.082 270.054 487.768 271.979 487.139C277.612 485.288 281.758 480.975 283.612 475.806C272.136 473.797 260.888 472.173 249.901 470.898H249.866L247.732 471.614Z" fill="white"/>
<path d="M238.688 465.379L228.244 468.855L238.758 465.397H238.74L238.688 465.379Z" fill="white"/>
<path d="M222.783 504.183C221.576 506.558 220.071 508.724 218.269 510.61C219.844 510.592 221.418 510.592 223.01 510.592C260.097 510.592 300.439 515.063 340.115 524.668C340.605 524.79 341.112 524.912 341.602 525.034C349.544 525.925 357.417 527.043 365.202 528.37C365.184 527.462 365.167 526.536 365.167 525.611C365.167 515.726 366.776 506.191 369.785 497.18C359.779 493.967 349.877 491.051 340.115 488.396C323.811 483.978 307.856 480.328 292.304 477.377C291.849 478.896 291.254 480.363 290.537 481.795C287.266 488.291 281.65 493.146 274.722 495.434C271.941 496.342 269.054 496.814 266.15 496.814C254.359 496.814 243.95 489.304 240.242 478.11C239.839 476.888 239.524 475.648 239.297 474.408L222.835 479.822C223.412 480.974 223.902 482.162 224.305 483.384C226.596 490.282 226.054 497.669 222.783 504.183Z" fill="white"/>
<path d="M217.449 472.417L228.208 468.855C222.469 468.435 216.801 468.104 211.221 467.877C204.416 467.597 197.715 467.458 191.173 467.458C189.563 467.458 187.971 467.458 186.397 467.492C184.612 467.492 182.845 467.527 181.096 467.58L181.831 469.798C181.883 469.937 181.918 470.06 181.988 470.182C182.495 471.631 183.23 472.906 184.14 474.024C185.067 475.211 186.187 476.207 187.429 476.993C189.616 478.407 192.17 479.175 194.811 479.175C196.211 479.175 197.61 478.966 199.01 478.512C199.045 478.494 199.08 478.494 199.115 478.477L207.372 475.753L212.638 474.006L217.449 472.417Z" fill="white"/>
<path d="M181.776 483.735C180.552 482.879 179.414 481.866 178.417 480.766C177.315 479.614 176.37 478.356 175.566 476.994C174.726 475.615 174.044 474.113 173.519 472.541L171.962 467.861C164.16 468.193 156.585 468.734 149.255 469.45L152.579 479.474C154.468 485.202 159.821 488.834 165.559 488.834C166.976 488.834 168.428 488.607 169.863 488.136L171.455 487.612L176.266 486.023L181.514 484.294L182.231 484.049C182.074 483.962 181.934 483.857 181.776 483.735Z" fill="white"/>
<path d="M179.959 494.001C180.099 495.258 180.361 496.516 180.781 497.756C183.353 505.527 190.613 510.469 198.397 510.469C200.322 510.469 202.281 510.155 204.223 509.526C213.95 506.313 219.215 495.835 215.996 486.125C215.577 484.885 215.052 483.715 214.405 482.632L179.959 494.001Z" fill="white"/>
<path d="M99.6795 533.138C99.4346 533.435 99.1898 533.749 98.9798 534.064C99.3297 533.872 99.6796 533.679 100.029 533.505C101.376 532.806 102.741 532.143 104.158 531.479C105.523 530.833 106.94 530.187 108.392 529.576C109.459 529.104 110.543 528.667 111.646 528.213C111.191 528.161 110.718 528.144 110.263 528.144C109.266 528.144 108.287 528.248 107.324 528.458C105.785 528.79 104.315 529.401 102.968 530.239C101.744 531.008 100.624 531.985 99.6795 533.138Z" fill="white"/>
<path d="M92.0689 537.435L91.5441 538.396C91.894 538.186 92.2263 537.959 92.5762 537.749C92.4012 537.645 92.2438 537.54 92.0689 537.435Z" fill="white"/>
<path d="M36.4204 587.904C45.6397 580.622 56.1012 573.776 67.6822 567.489C69.8165 558.95 75.2046 551.231 83.2869 544.438L86.2434 539.007L88.3252 535.147L90.407 531.323L90.5294 531.113C91.4391 529.437 92.5413 527.917 93.8183 526.573C94.798 525.49 95.9001 524.529 97.0897 523.674C98.2793 522.801 99.5564 522.067 100.903 521.456C103.79 520.129 106.956 519.413 110.263 519.413C113.971 519.413 117.663 520.338 120.952 522.119L124.03 523.778C140.405 518.557 159.596 514.802 180.659 512.654C176.95 509.511 174.081 505.355 172.471 500.5C172.069 499.26 171.754 498.02 171.527 496.745C169.568 497.286 167.573 497.566 165.561 497.566C155.87 497.566 147.315 491.401 144.271 482.216L140.37 470.428C122.858 472.558 106.816 475.772 92.4362 479.893C90.4419 480.469 88.4826 481.063 86.5583 481.674C84.7564 482.233 82.9895 482.809 81.2576 483.403H81.2401C68.7319 487.664 57.7281 492.659 48.4038 498.212C47.1092 498.98 45.8497 499.749 44.6251 500.552C43.3655 501.355 42.1409 502.176 40.9513 503.014C23.4572 515.239 13.5206 529.751 12.7509 545.049C12.0161 559.718 20.4308 574.195 36.4204 587.904Z" fill="white"/>
<path d="M521.531 632.088C521.531 632.088 521.601 632.123 521.636 632.158C522.668 632.839 523.718 633.52 524.733 634.201C525.765 634.882 526.797 635.564 527.812 636.262C528.826 636.926 529.841 637.624 530.856 638.323C531.678 638.882 532.5 639.44 533.322 640.017C534.512 640.837 535.701 641.658 536.873 642.514C537.836 643.178 538.798 643.859 539.743 644.54C540.775 645.256 541.789 645.989 542.804 646.74C544.273 647.788 545.726 648.853 547.178 649.936C548.63 651.001 550.064 652.084 551.499 653.167C555.312 656.048 559.056 658.947 562.73 661.863C564.567 663.313 566.386 664.78 568.188 666.264C568.975 666.875 569.745 667.522 570.515 668.168C570.55 668.168 570.585 668.22 570.62 668.238C570.724 668.325 570.829 668.412 570.934 668.517C571.074 668.604 571.197 668.709 571.337 668.849C572.072 669.443 572.824 670.054 573.541 670.682C575.273 672.114 576.987 673.564 578.684 675.013C579.489 675.694 580.294 676.376 581.081 677.074C582.62 678.384 584.142 679.711 585.647 681.038C589.251 684.199 592.749 687.377 596.178 690.538C597.298 691.569 598.418 692.617 599.537 693.664C600.569 694.625 601.601 695.585 602.616 696.563C603.631 697.524 604.645 698.484 605.625 699.445C606.622 700.405 607.619 701.366 608.599 702.326C610.453 704.107 612.273 705.906 614.057 707.687C614.11 707.74 614.145 707.775 614.197 707.827C615.002 708.63 615.807 709.451 616.611 710.255C616.646 710.307 616.699 710.342 616.734 710.394C622.367 716.087 627.685 721.676 632.706 727.124C632.723 727.142 632.741 727.159 632.758 727.194C639.476 734.511 645.617 741.549 651.162 748.185C651.285 748.325 651.39 748.465 651.512 748.604C657.075 757.807 661.868 766.295 665.822 773.856C665.822 773.874 665.84 773.874 665.84 773.891C667.642 776.336 669.024 778.24 669.933 779.532L670.773 778.991C670.581 778.344 670.371 777.681 670.161 777.017C670.161 777.017 670.161 777 670.143 777C670.108 776.808 670.038 776.651 669.968 776.458C669.881 776.162 669.793 775.865 669.688 775.568C668.971 773.298 668.149 770.922 667.257 768.46C667.257 768.46 667.257 768.425 667.239 768.425C666.504 766.469 665.752 764.444 664.947 762.365C664.947 762.331 664.912 762.313 664.895 762.278C664.877 762.261 664.877 762.226 664.86 762.208C664.563 761.422 664.248 760.637 663.915 759.833C663.583 759.012 663.251 758.174 662.901 757.336C661.676 754.385 660.364 751.329 658.964 748.185H658.947C657.18 744.186 655.238 740.03 653.156 735.751C652.877 735.123 652.597 734.494 652.317 733.865C652.229 733.725 652.142 733.603 652.054 733.446H652.037V733.394C644.514 722.025 635.697 709.486 625.498 696.371C625.411 696.284 625.341 696.197 625.288 696.092C608.879 675.066 588.901 652.608 565.074 631.233C563.954 630.237 562.852 629.242 561.733 628.281V628.246C555.172 622.483 548.507 616.965 541.754 611.708C541.562 611.936 541.352 612.163 541.125 612.39C540.337 613.228 539.55 614.049 538.728 614.869C538.535 615.096 538.326 615.323 538.081 615.55C535.894 617.821 533.69 620.039 531.538 622.204C530.471 623.269 529.421 624.317 528.371 625.347C527.339 626.378 526.307 627.391 525.292 628.386L525.24 628.438C524.033 629.643 522.791 630.866 521.566 632.088H521.531Z" fill="white"/>
<path d="M419.384 546.204C419.856 547.915 420.328 549.609 420.853 551.303C420.993 551.845 421.168 552.386 421.325 552.91C421.903 554.813 422.498 556.682 423.11 558.568C423.74 560.506 424.387 562.445 425.052 564.366C427.693 572.032 430.615 579.664 433.694 587.278C434.376 589.007 435.058 590.718 435.776 592.447C462.856 602.716 488.03 615.778 511.087 630.185C512.05 629.225 513.012 628.247 513.991 627.269C515.408 625.872 516.843 624.44 518.295 622.991C519.345 621.978 520.377 620.947 521.426 619.9C522.476 618.869 523.543 617.821 524.61 616.756C526.955 614.416 529.351 612.006 531.73 609.544C531.818 609.456 531.905 609.369 531.993 609.282C532.92 608.321 533.847 607.343 534.774 606.365C533.147 605.143 531.503 603.938 529.859 602.75C529.281 602.331 528.721 601.93 528.144 601.511C527.322 600.917 526.482 600.323 525.66 599.747C523.718 598.367 521.759 597.005 519.799 595.66C519.485 595.451 519.17 595.224 518.837 595.014C518.68 595.241 518.522 595.468 518.365 595.695C517.7 596.673 517.018 597.651 516.336 598.612C515.688 599.52 515.041 600.41 514.394 601.301C514.831 600.253 515.251 599.223 515.688 598.175C516.196 596.97 516.686 595.765 517.175 594.543C517.245 594.385 517.315 594.211 517.385 594.036C516.616 593.512 515.828 592.988 515.041 592.464C515.006 592.447 514.971 592.412 514.936 592.395C509.67 588.902 504.335 585.549 498.964 582.336C498.124 581.847 497.267 581.34 496.427 580.851C495.78 582.179 495.115 583.488 494.451 584.781C494.153 585.392 493.838 586.003 493.523 586.614C493.698 585.916 493.856 585.235 494.031 584.536C494.398 583.052 494.748 581.567 495.115 580.083C481.732 572.277 468 565.344 453.934 559.249C454.284 560.995 454.669 562.759 455.072 564.523C455.544 566.706 456.034 568.889 456.541 571.089C456.996 573.045 457.451 575.001 457.923 576.957C458.395 578.913 458.868 580.886 459.34 582.86C459.655 584.099 459.952 585.357 460.267 586.614C459.48 585.112 458.71 583.576 457.958 582.039C456.821 579.751 455.719 577.428 454.634 575.071H454.617C453.62 572.853 452.622 570.618 451.678 568.365C450.768 566.252 449.893 564.086 449.054 561.921C448.319 560.07 447.602 558.184 446.919 556.298C437.875 552.578 428.708 549.208 419.384 546.204Z" fill="white"/>
<path d="M382.437 562.321H382.419C382.751 563.089 383.101 563.823 383.451 564.556C383.679 565.045 383.906 565.517 384.151 565.988C385.411 568.573 386.81 571.105 388.315 573.602C388.804 574.441 389.312 575.279 389.837 576.1C389.837 576.117 389.872 576.135 389.889 576.17C390.414 577.025 390.974 577.864 391.534 578.702C405.564 582.09 419.174 586.281 432.347 591.153C431.123 589.285 429.898 587.381 428.691 585.46C423.548 577.235 418.772 568.521 414.661 559.475C413.768 557.501 412.894 555.51 412.072 553.52C411.284 551.633 410.532 549.73 409.832 547.809C409.92 547.826 409.99 547.861 410.077 547.879C409.99 547.844 409.902 547.809 409.815 547.774C409.185 546.098 408.573 544.421 408.013 542.71C397.377 539.601 386.565 536.947 375.596 534.764C375.596 534.764 375.579 534.746 375.561 534.746C375.177 534.676 374.792 534.589 374.407 534.519V534.572C374.582 536.091 374.792 537.593 375.054 539.095C374.862 539.06 374.704 539.025 374.512 538.99C374.704 539.042 374.879 539.095 375.054 539.182C375.124 539.584 375.194 540.003 375.281 540.404C375.386 540.998 375.491 541.575 375.614 542.168C375.736 542.814 375.876 543.461 376.051 544.107C376.226 544.893 376.419 545.678 376.629 546.464C378.028 551.93 380.005 557.239 382.437 562.321Z" fill="white"/>
<path d="M224.446 572.73C250.04 568.346 277.908 565.639 307.543 565.063C309.66 565.011 311.742 564.993 313.841 564.993C322.71 564.993 331.475 565.36 340.117 566.076C352.643 567.089 364.941 568.835 376.977 571.193C376.067 569.446 375.228 567.683 374.423 565.884L373.986 564.923C373.566 564.015 373.163 563.107 372.778 562.182L370.679 557.501L370.872 557.414C368.895 552.035 367.425 546.552 366.481 540.998C366.271 539.794 366.078 538.589 365.938 537.366C357.559 535.882 348.987 534.642 340.205 533.664C340.205 533.646 340.17 533.646 340.152 533.646C340.152 533.646 340.14 533.652 340.117 533.664C328.658 532.372 316.868 531.533 304.727 531.184C297.589 530.992 290.626 530.887 283.751 530.887C257.86 530.887 233.753 532.302 211.413 534.886C221.822 544.509 226.686 558.864 224.446 572.73Z" fill="white"/>
<path d="M80.471 632.455L83.6898 626.517L85.7891 622.693L87.8709 618.833L89.6729 615.533L91.8071 611.603L93.9414 607.674L123.454 553.363C131.099 550.883 139.111 548.56 147.491 546.43L153.369 549.608C154.086 548.316 154.873 547.093 155.748 545.941C156.22 545.295 156.71 544.684 157.235 544.09C158.232 543.845 159.212 543.618 160.226 543.409C172.367 540.702 185.225 538.362 198.766 536.493C212.569 544.002 218.989 559.859 215.175 574.424C213.828 574.668 212.481 574.948 211.152 575.227C209.647 575.506 208.16 575.821 206.673 576.135C205.116 576.467 203.559 576.799 202.02 577.148C161.503 586.142 127.862 599.554 103.581 615.375C102.269 616.214 100.991 617.087 99.7494 617.943C98.4723 618.833 97.2303 619.706 96.0057 620.615C95.5509 620.929 95.1135 621.261 94.6762 621.592C93.2766 622.658 91.912 623.723 90.5825 624.806C89.3054 625.836 88.0633 626.884 86.8563 627.932C84.1622 630.272 81.6781 632.664 79.3864 635.074C79.6488 634.184 80.0162 633.31 80.471 632.455ZM164.635 555.72L197.943 573.76C198.083 573.83 198.223 573.917 198.346 574.005L201.617 575.768C202.247 574.563 202.754 573.324 203.139 572.066C203.612 570.477 203.891 568.87 203.996 567.246C204.469 559.231 200.393 551.285 192.87 547.198C189.651 545.452 186.17 544.631 182.741 544.631C178.21 544.631 173.767 546.063 170.093 548.752C168.851 549.643 167.696 550.691 166.664 551.861C165.719 552.944 164.862 554.149 164.128 555.441L164.635 555.72ZM53.3727 617.768L56.2767 612.442L58.3585 608.6L60.4403 604.775L69.1174 588.831L72.0213 583.487L75.4327 577.2L78.3892 571.769C88.3783 566.687 99.3121 561.92 111.208 557.572L87.4511 601.282L85.2293 605.369L83.0426 609.385L79.9112 615.131L77.8469 618.973L75.7476 622.797L72.7736 628.281C70.3944 632.682 69.5371 637.641 70.3419 642.496L58.8658 636.279C52.2355 632.682 49.769 624.404 53.3727 617.768ZM36.4909 599.222C37.6106 598.261 38.7477 597.318 39.9198 596.34C41.0744 595.415 42.2464 594.489 43.4535 593.546C49.6989 588.726 56.6091 584.046 64.2016 579.558L52.9878 600.182L48.8242 607.866L45.6928 613.612C42.8238 618.868 42.194 624.911 43.8909 630.656C45.6053 636.384 49.4365 641.117 54.7022 643.963L67.5254 650.914C60.8251 662.911 58.9533 675.38 62.627 687.709C67.6478 704.526 85.4043 716.559 112.73 723.823C51.4309 721.012 10.3024 705.801 2.06266 678.209C-5.09241 654.179 6.36618 625.138 36.4909 599.222Z" fill="white"/>
<path d="M521.529 632.087C521.529 632.087 521.599 632.122 521.634 632.157C522.666 632.838 523.715 633.519 524.73 634.2C525.762 634.881 526.794 635.562 527.809 636.261C528.824 636.924 529.838 637.623 530.853 638.321C531.675 638.88 532.497 639.439 533.32 640.015C534.509 640.836 535.699 641.657 536.871 642.513C537.833 643.159 538.795 643.84 539.74 644.538C540.772 645.254 541.787 645.988 542.802 646.739C544.271 647.787 545.723 648.852 547.175 649.934C548.627 650.982 550.062 652.065 551.496 653.165C555.31 656.029 559.053 658.928 562.727 661.862C564.564 663.312 566.383 664.778 568.185 666.263C568.973 666.874 569.742 667.52 570.512 668.166C570.547 668.166 570.582 668.219 570.617 668.236C570.722 668.323 570.827 668.411 570.932 668.516C571.072 668.603 571.194 668.708 571.334 668.847C572.069 669.441 572.821 670.052 573.539 670.681C575.27 672.096 576.985 673.545 578.682 675.012C579.486 675.693 580.291 676.374 581.078 677.073C582.618 678.382 584.14 679.71 585.644 681.037C589.248 684.198 592.747 687.376 596.176 690.537C597.295 691.567 598.415 692.615 599.535 693.663C600.567 694.623 601.599 695.584 602.614 696.562C603.628 697.522 604.643 698.483 605.623 699.443C606.62 700.404 607.617 701.364 608.597 702.325C610.451 704.106 612.27 705.905 614.055 707.686C614.107 707.738 614.142 707.773 614.195 707.826C614.999 708.629 615.804 709.45 616.609 710.253C616.644 710.306 616.696 710.34 616.731 710.393C622.364 716.086 627.683 721.674 632.703 727.123C632.721 727.14 632.738 727.158 632.756 727.193C639.474 734.51 645.614 741.548 651.16 748.184C651.282 748.323 651.387 748.463 651.509 748.603C657.073 757.806 661.866 766.293 665.82 773.855C665.82 773.872 665.837 773.872 665.837 773.89C666.414 774.99 666.974 776.09 667.534 777.156C668.076 778.238 668.601 779.286 669.108 780.299C670.77 783.669 672.24 786.813 673.5 789.694C672.992 787.162 672.327 784.42 671.488 781.469C671.33 780.875 671.155 780.264 670.963 779.635C670.928 779.496 670.875 779.338 670.84 779.199C670.805 779.129 670.788 779.059 670.77 778.989C670.578 778.343 670.368 777.679 670.158 777.016C670.158 777.016 670.158 776.998 670.141 776.998C670.106 776.806 670.036 776.649 669.966 776.457C669.878 776.16 669.791 775.863 669.686 775.566C668.969 773.296 668.146 770.921 667.254 768.459C667.254 768.459 667.254 768.424 667.237 768.424C666.502 766.468 665.75 764.442 664.945 762.364C664.945 762.329 664.91 762.312 664.892 762.277C664.875 762.259 664.875 762.224 664.857 762.207C664.56 761.421 664.245 760.635 663.913 759.832C663.58 759.011 663.248 758.173 662.898 757.335C661.674 754.383 660.361 751.327 658.962 748.184H658.944C657.178 744.185 655.236 740.028 653.154 735.75C652.787 734.981 652.402 734.213 652.052 733.445H652.034V733.392C651.475 732.24 650.897 731.104 650.32 729.934C649.83 728.956 649.323 727.979 648.815 726.983C645.614 720.679 642.133 714.13 638.371 707.407C638.371 707.389 638.371 707.372 638.354 707.354C637.987 706.691 637.619 706.027 637.252 705.381C636.675 704.351 636.097 703.32 635.502 702.29C635.485 702.255 635.467 702.203 635.432 702.168C634.208 700.02 632.966 697.872 631.706 695.689C630.324 693.331 628.925 690.956 627.49 688.581C626.563 687.027 625.618 685.473 624.674 683.918C623.729 682.364 622.767 680.81 621.787 679.238C620.825 677.666 619.828 676.077 618.831 674.488C617.816 672.899 616.819 671.31 615.787 669.721C614.772 668.114 613.74 666.525 612.69 664.918C612.428 664.516 612.165 664.097 611.885 663.696C610.538 661.635 609.174 659.574 607.792 657.514C605.395 653.916 602.929 650.284 600.392 646.651C598.31 643.63 596.158 640.592 593.989 637.553C587.009 627.791 579.644 617.976 571.929 608.197C570.477 606.363 569.025 604.547 567.556 602.713C564.669 599.116 561.73 595.518 558.721 591.938C556.744 594.523 554.715 597.073 552.616 599.553C551.671 600.688 550.726 601.805 549.747 602.906C548.819 603.988 547.857 605.071 546.895 606.136C546.195 606.922 545.478 607.708 544.743 608.494C544.551 608.738 544.323 608.965 544.079 609.21C543.326 610.048 542.557 610.886 541.752 611.707C541.559 611.934 541.349 612.161 541.122 612.388C540.335 613.226 539.548 614.047 538.725 614.868C538.533 615.095 538.323 615.322 538.078 615.549C535.891 617.819 533.687 620.037 531.535 622.203C530.468 623.268 529.419 624.316 528.369 625.346C527.337 626.376 526.305 627.389 525.29 628.385L525.237 628.437C524.03 629.642 522.788 630.864 521.564 632.087H521.529Z" fill="white"/>
<path d="M537.99 602.943C538.83 602.035 539.652 601.109 540.492 600.183C541.454 599.118 542.416 598.035 543.361 596.935C544.323 595.835 545.268 594.735 546.212 593.6C548.521 590.841 550.761 588.011 552.895 585.113C552.843 585.025 552.773 584.938 552.685 584.851C551.198 583.122 549.711 581.375 548.189 579.664C547.437 578.791 546.685 577.935 545.915 577.079C544.708 575.7 543.483 574.32 542.241 572.958C541.174 571.753 540.089 570.565 539.005 569.378C538.008 568.278 537.01 567.178 535.996 566.077C533.879 570.338 531.622 574.495 529.261 578.564C528.508 579.856 527.756 581.131 526.986 582.406C526.217 583.663 525.447 584.903 524.677 586.143C524.222 586.876 523.75 587.61 523.295 588.326C522.613 589.374 521.948 590.386 521.283 591.399C521.143 591.626 521.003 591.818 520.863 592.028C520.199 593.041 519.516 594.036 518.834 595.014C518.677 595.241 518.519 595.468 518.362 595.695C517.697 596.673 517.015 597.651 516.332 598.612C515.685 599.52 515.038 600.41 514.391 601.301C514.828 600.253 515.248 599.223 515.685 598.175C516.193 596.97 516.682 595.765 517.172 594.543C517.242 594.386 517.312 594.211 517.382 594.036C517.907 592.762 518.432 591.469 518.939 590.177C518.992 590.09 519.027 589.985 519.062 589.897C519.621 588.535 520.164 587.191 520.688 585.829C521.003 585.06 521.318 584.309 521.598 583.541C522.175 582.109 522.735 580.677 523.278 579.245C523.837 577.813 524.38 576.381 524.922 574.931C526.794 569.954 528.578 564.96 530.24 559.948C529.628 559.284 528.998 558.638 528.368 557.974C527.179 556.717 525.972 555.46 524.765 554.22L513.953 565.99L510.997 569.221L508.023 572.452L507.236 573.307L504.296 576.521L501.97 579.053L501.34 579.734L498.961 582.336L495.917 585.636L490.179 591.888L487.152 595.189L484.161 598.437L476.971 606.278C478.948 607.291 480.924 608.304 482.884 609.352C483.724 609.771 484.563 610.225 485.403 610.679C489.147 612.67 492.838 614.713 496.494 616.809C497.421 617.333 498.349 617.856 499.276 618.398C500.973 619.376 502.67 620.371 504.349 621.384C505.101 621.821 505.871 622.275 506.623 622.746C509.107 624.231 511.557 625.732 513.988 627.269C515.405 625.872 516.84 624.44 518.292 622.991C519.341 621.978 520.374 620.948 521.423 619.9C522.473 618.869 523.54 617.822 524.607 616.756C526.951 614.416 529.348 612.006 531.727 609.544C531.815 609.457 531.902 609.369 531.99 609.282C532.917 608.321 533.844 607.343 534.771 606.366C534.859 606.278 534.946 606.191 535.016 606.104C535.943 605.143 536.87 604.165 537.78 603.17" fill="white"/>
<path d="M537.99 602.942C538.83 602.034 539.652 601.108 540.491 600.183C541.454 599.117 542.416 598.035 543.36 596.935C544.323 595.834 545.267 594.734 546.212 593.599C548.521 590.84 550.76 588.011 552.895 585.112C552.965 585.182 553.017 585.252 553.087 585.321C553.035 585.252 552.965 585.182 552.912 585.094C552.93 585.077 552.947 585.042 552.965 585.025C553.769 583.942 554.557 582.842 555.326 581.741C555.396 581.654 555.466 581.549 555.536 581.444C555.974 580.833 556.394 580.205 556.813 579.576C557.233 578.947 557.653 578.319 558.056 577.69C558.825 576.52 559.56 575.367 560.277 574.18C561.432 572.259 562.534 570.32 563.584 568.329C563.933 567.683 564.266 567.02 564.598 566.356C565.263 565.029 565.91 563.684 566.505 562.339H566.488C571.946 550.936 574.99 538.484 574.99 525.614C574.99 499.733 562.779 476.419 543.221 460.021C545.267 463.724 547.017 467.67 548.416 471.827C557.811 500.082 552.09 530.189 540.002 557.555C539.354 559.004 538.707 560.453 538.025 561.868C537.36 563.283 536.695 564.68 535.995 566.077C533.879 570.338 531.622 574.494 529.26 578.563C528.508 579.855 527.756 581.13 526.986 582.405C526.216 583.662 525.447 584.902 524.677 586.142C524.222 586.876 523.75 587.609 523.295 588.325C522.613 589.373 521.948 590.386 521.283 591.399C521.143 591.626 521.003 591.818 520.863 592.027C520.198 593.04 519.516 594.036 518.834 595.014C518.676 595.241 518.519 595.468 518.362 595.695C517.697 596.673 517.014 597.651 516.332 598.611C515.685 599.519 515.038 600.41 514.39 601.3C514.828 600.253 515.248 599.222 515.685 598.174C516.192 596.969 516.682 595.764 517.172 594.542C517.242 594.385 517.312 594.21 517.382 594.036C517.907 592.761 518.431 591.468 518.939 590.176C518.991 590.089 519.026 589.984 519.061 589.897C519.621 588.535 520.163 587.19 520.688 585.828C521.003 585.059 521.318 584.309 521.598 583.54C522.175 582.108 522.735 580.676 523.277 579.244C523.837 577.812 524.379 576.38 524.922 574.931C526.794 569.954 528.578 564.959 530.24 559.947C530.765 558.375 531.272 556.804 531.762 555.232C532.269 553.608 532.759 552.019 533.214 550.412C533.861 548.281 534.456 546.116 535.033 543.968C547.856 497.62 540.247 465.854 515.195 443.396C509.265 441.039 503.037 439.17 496.564 437.878C500.78 442.471 504.454 447.675 507.463 453.49C519.796 477.485 520.041 504.972 514.163 531.447C513.813 533.088 513.411 534.73 512.991 536.354C512.606 537.978 512.169 539.585 511.731 541.191C509.982 547.426 507.935 553.555 505.678 559.545C505.136 560.977 504.576 562.392 504.016 563.789C503.457 565.204 502.879 566.601 502.284 567.98C502.197 568.207 502.109 568.434 502.005 568.644C501.41 570.058 500.797 571.455 500.168 572.835C499.573 574.197 498.261 576.991 498.261 576.991C497.666 578.284 497.054 579.576 496.424 580.851C495.777 582.178 495.112 583.488 494.447 584.78C494.15 585.391 493.835 586.002 493.52 586.614C493.695 585.915 493.852 585.234 494.027 584.536C494.395 583.051 494.744 581.567 495.112 580.082C495.462 578.598 495.829 577.114 496.162 575.629C496.214 575.489 496.232 575.35 496.267 575.228C496.651 573.603 497.036 571.979 497.404 570.373C497.771 568.766 498.138 567.159 498.488 565.553C498.523 565.413 498.558 565.273 498.576 565.151C498.943 563.579 499.276 562.008 499.59 560.436C499.958 558.864 500.273 557.293 500.587 555.721C502.057 548.509 503.317 541.314 504.296 534.101C504.559 532.337 504.769 530.556 504.979 528.792C505.066 528.129 505.136 527.465 505.206 526.801C505.346 525.666 505.468 524.531 505.573 523.414C509.789 481.886 499.975 453.962 477.618 435.747C477.373 435.555 477.146 435.363 476.901 435.171C476.673 435.346 476.446 435.52 476.218 435.712C462.975 446.487 454.123 460.65 449.977 479.056C449.627 480.576 449.313 482.13 449.05 483.702C448.753 485.273 448.508 486.88 448.298 488.504C447.003 498.406 446.898 509.408 448.035 521.597C448.175 523.221 448.35 524.863 448.543 526.539C448.543 526.627 448.543 526.714 448.578 526.801C448.578 526.836 448.578 526.871 448.595 526.906C448.788 528.705 448.998 530.486 449.243 532.285C449.085 532.198 448.945 532.11 448.788 532.023C448.945 532.128 449.103 532.25 449.26 532.355C449.505 534.346 449.785 536.319 450.1 538.31C450.887 543.549 451.814 548.788 452.846 554.027C453.196 555.756 453.564 557.502 453.931 559.248C454.281 560.995 454.666 562.759 455.068 564.522C455.54 566.705 456.03 568.888 456.537 571.089C456.992 573.045 457.447 575.001 457.92 576.956C458.392 578.912 458.864 580.886 459.337 582.859C459.651 584.099 459.949 585.356 460.264 586.614C459.477 585.112 458.707 583.575 457.955 582.038C456.817 579.751 455.715 577.428 454.631 575.07H454.613C453.616 572.852 452.619 570.617 451.674 568.364C450.765 566.251 449.89 564.086 449.05 561.92C448.315 560.069 447.598 558.183 446.916 556.297C446.268 554.464 445.621 552.647 445.026 550.814C442.857 544.3 440.985 537.664 439.516 530.975C439.183 529.438 438.868 527.884 438.589 526.347C438.484 525.858 438.396 525.387 438.309 524.898C438.064 523.553 437.836 522.226 437.644 520.899C437.539 520.27 437.434 519.659 437.364 519.065C437.189 517.895 437.032 516.725 436.892 515.572C435.51 503.994 435.492 492.399 437.347 481.152C437.591 479.598 437.889 478.044 438.221 476.507C438.519 475.005 438.886 473.521 439.288 472.036C440.933 465.679 443.26 459.48 446.339 453.49C449.575 447.238 453.581 441.702 458.199 436.865C457.255 437.005 456.328 437.144 455.4 437.319C452.916 437.738 450.485 438.244 448.07 438.821C447.511 438.96 446.933 439.1 446.373 439.257C444.974 439.607 443.592 440.008 442.21 440.41C442.157 440.445 442.087 440.462 442.017 440.462C442.017 440.462 442.017 440.48 442 440.48C434.128 446.889 427.777 454.101 423.019 462.239C422.284 463.497 421.584 464.754 420.937 466.064C420.272 467.356 419.66 468.683 419.083 470.028C414.779 479.982 412.592 491.211 412.627 503.924V504.204C412.645 505.688 412.68 507.207 412.75 508.744C412.75 508.919 412.767 509.076 412.767 509.251C412.837 510.718 412.942 512.185 413.082 513.669C413.1 513.948 413.117 514.228 413.152 514.507C413.905 522.785 415.514 531.656 417.998 541.156C418.261 542.082 418.505 543.025 418.768 543.968C418.96 544.719 419.17 545.47 419.38 546.203C419.852 547.915 420.325 549.609 420.85 551.303C420.99 551.844 421.165 552.385 421.322 552.909C421.899 554.813 422.494 556.681 423.106 558.567C423.736 560.506 424.383 562.444 425.048 564.365C427.69 572.032 430.611 579.663 433.69 587.277C434.373 589.006 435.055 590.718 435.772 592.446C436.629 594.577 437.504 596.708 438.396 598.838C438.729 599.659 439.078 600.48 439.411 601.3C438.711 600.34 438.011 599.379 437.329 598.402C435.65 596.044 433.988 593.634 432.343 591.154C431.119 589.286 429.894 587.382 428.687 585.461C423.544 577.236 418.768 568.522 414.657 559.476C413.765 557.502 412.89 555.511 412.068 553.52C411.28 551.634 410.528 549.731 409.828 547.81C409.916 547.827 409.986 547.862 410.073 547.88C409.986 547.845 409.898 547.81 409.811 547.775C409.181 546.099 408.569 544.422 408.009 542.711C407.432 541.034 406.889 539.358 406.382 537.681C403.478 528.059 401.554 518.227 400.924 508.412C400.906 508.185 400.889 507.958 400.889 507.749C400.801 506.369 400.749 505.007 400.732 503.627C400.714 503.331 400.714 503.034 400.714 502.737C400.679 501.462 400.697 500.187 400.732 498.912C400.732 498.563 400.749 498.214 400.766 497.865C401.081 489.098 402.533 480.384 405.385 471.827C406.26 469.207 407.292 466.675 408.446 464.23C409.059 462.903 409.723 461.593 410.423 460.318C411.123 459.043 411.858 457.786 412.627 456.564C413.345 455.411 414.097 454.276 414.884 453.176C413.607 454.014 412.348 454.887 411.14 455.778C409.828 456.721 408.551 457.699 407.309 458.694H407.292C407.152 458.816 407.012 458.939 406.872 459.043C406.277 459.532 405.682 460.021 405.105 460.528C404.615 460.929 404.143 461.349 403.671 461.768C401.676 463.531 399.787 465.348 397.985 467.251C397.6 467.635 397.233 468.02 396.883 468.421C396.533 468.77 396.201 469.137 395.886 469.521C395.396 470.063 394.923 470.604 394.451 471.163C394.014 471.652 393.594 472.158 393.174 472.682C392.439 473.59 391.705 474.516 391.022 475.442C390.585 476 390.165 476.577 389.763 477.153C388.888 478.358 388.048 479.598 387.244 480.855C386.894 481.379 386.561 481.903 386.246 482.444C384.899 484.627 383.657 486.863 382.52 489.168C382.1 490.023 381.68 490.879 381.296 491.752C381.086 492.206 380.876 492.66 380.683 493.115C380.298 493.988 379.931 494.878 379.581 495.786C379.389 496.24 379.214 496.712 379.056 497.183C378.707 498.074 378.392 498.982 378.094 499.89C377.762 500.903 377.429 501.934 377.132 502.946C377.115 503.016 377.097 503.069 377.08 503.139C376.817 504.082 376.555 505.025 376.327 505.968C376.292 506.09 376.257 506.23 376.24 506.352C376.03 507.155 375.855 507.941 375.698 508.744C375.61 509.059 375.54 509.373 375.488 509.687C375.313 510.578 375.138 511.469 374.998 512.377C374.98 512.481 374.963 512.604 374.945 512.726C374.823 513.407 374.718 514.106 374.63 514.804C374.56 515.345 374.49 515.887 374.438 516.428C374.35 517.179 374.263 517.93 374.21 518.698C374.176 519.03 374.158 519.379 374.141 519.729C374.071 520.515 374.018 521.3 374.001 522.104C373.983 522.226 373.983 522.366 373.983 522.488C373.931 523.518 373.913 524.566 373.913 525.614C373.913 527.081 373.948 528.548 374.036 529.997C374.053 530.486 374.088 530.975 374.123 531.464C374.193 532.442 374.281 533.403 374.386 534.363C374.386 534.416 374.403 534.468 374.403 534.52V534.573C374.578 536.092 374.788 537.594 375.05 539.096C374.858 539.061 374.7 539.026 374.508 538.991C374.7 539.043 374.875 539.096 375.05 539.183C375.12 539.585 375.19 540.004 375.278 540.405C375.383 540.999 375.488 541.576 375.61 542.169C375.732 542.815 375.872 543.462 376.047 544.108C376.222 544.894 376.415 545.679 376.625 546.465C378.024 551.931 380.001 557.24 382.433 562.322H382.415C382.748 563.09 383.098 563.824 383.447 564.557C383.675 565.046 383.902 565.518 384.147 565.989C385.407 568.574 386.806 571.106 388.311 573.603C388.801 574.442 389.308 575.28 389.833 576.101C389.833 576.118 389.868 576.136 389.885 576.171C390.41 577.026 390.97 577.865 391.53 578.703C392.859 580.729 394.259 582.719 395.676 584.658C395.833 584.867 395.991 585.094 396.166 585.304C400.557 591.224 405.385 596.9 410.336 602.278C411.001 603.012 411.683 603.745 412.348 604.461C412.348 604.479 412.383 604.514 412.418 604.531C413.257 605.439 414.097 606.312 414.937 607.186C416.634 608.984 418.33 610.731 420.027 612.442C421.042 613.472 422.039 614.503 423.054 615.498C423.701 616.127 424.313 616.756 424.926 617.367C425.818 618.257 426.693 619.113 427.55 619.969C428.302 620.702 429.054 621.436 429.789 622.169C430.996 623.374 432.186 624.544 433.34 625.697L434.74 627.094C435.195 627.548 435.667 628.002 436.104 628.456C437.014 629.364 437.906 630.272 438.781 631.145C438.799 631.18 438.834 631.215 438.869 631.233C440.146 632.542 441.37 633.817 442.542 635.057C443.364 635.93 444.169 636.786 444.939 637.642C445.306 638.026 445.639 638.428 445.989 638.812C447.073 640.017 448.105 641.222 449.05 642.392C449.278 642.654 449.487 642.916 449.68 643.178C451.639 645.623 453.249 647.945 454.456 650.163C454.648 650.512 454.841 650.862 454.998 651.193C455.19 651.578 455.365 651.944 455.523 652.311C455.733 652.8 455.943 653.289 456.1 653.778C456.153 653.918 456.205 654.057 456.24 654.215C456.345 654.529 456.45 654.861 456.52 655.175C456.607 655.507 456.678 655.821 456.73 656.136C456.8 656.45 456.835 656.747 456.87 657.061H492.05C492.085 656.729 492.138 656.38 492.208 656.048C492.243 655.856 492.278 655.647 492.348 655.454C492.365 655.297 492.4 655.123 492.47 654.965C492.505 654.738 492.575 654.511 492.663 654.284C492.75 653.953 492.873 653.638 492.995 653.307C493.118 652.957 493.275 652.59 493.432 652.224C494.062 650.827 494.867 649.377 495.829 647.875C496.127 647.404 496.441 646.932 496.791 646.443C499.468 642.584 503.159 638.41 507.463 633.922C508.635 632.7 509.842 631.442 511.084 630.185C512.046 629.224 513.008 628.246 513.988 627.269C515.405 625.871 516.84 624.439 518.292 622.99C519.341 621.977 520.373 620.947 521.423 619.899C522.473 618.869 523.54 617.821 524.607 616.756C526.951 614.415 529.348 612.005 531.727 609.543C531.814 609.456 531.902 609.368 531.989 609.281C532.917 608.321 533.844 607.343 534.771 606.365C534.858 606.278 534.946 606.19 535.016 606.103C535.943 605.142 536.87 604.164 537.78 603.169" fill="white"/>
<path d="M456.87 679.275H492.051V705.296H456.87V679.275Z" fill="white"/>
<path d="M425.54 353.337L413.119 321.571L400.716 353.337L368.894 365.719L400.716 378.118L413.119 409.884L425.54 378.118L457.362 365.719L425.54 353.337Z" fill="white"/>
</svg>
