<svg width="502" height="900" viewBox="0 0 502 900" fill="none" xmlns="http://www.w3.org/2000/svg">
<g clip-path="url(#clip0_27_279)">
<path d="M372.641 -24.2094C444.695 -86.0716 517.337 -131.894 592.056 -120.012V-83.8068C526.383 -90.446 455.63 -68.1086 410.805 -20.2383C463.343 -55.2025 529.481 -71.211 592.056 -62.4312V-19.866C481.403 -22.0998 381.067 -2.83382 308.331 115.461C235.565 233.756 218.155 386.147 150.128 482.787C82.1014 579.428 16.212 601.734 -16.9961 628.477C-50.2041 655.22 -78.5797 731.849 -78.5797 731.849C-95.1217 719.253 -108.969 705.727 -121.422 691.456C-118.2 683.514 -114.669 675.727 -110.92 668.56C-53.6427 553.274 63.9485 553.212 124.851 447.482C51.2786 538.755 -55.0676 536.242 -119.532 639.801C-125.975 650.256 -131.737 661.269 -136.849 672.717C-148.744 657.453 -159.803 641.569 -171.42 625.281C-148.93 588.176 -119.625 555.88 -80.6862 532.457C-56.2448 517.255 -29.8208 504.814 -3.02518 492.188C50.8759 467.554 105.273 438.33 144.862 393.283C99.0152 431.597 45.3309 455.083 -9.77833 476.707C-55.7492 494.639 -103.424 516.759 -140.163 551.196C-144.965 555.694 -149.611 560.41 -154.01 565.343C-154.258 565.622 -154.506 565.87 -154.754 566.149C-166.153 578.621 -176.252 592.116 -185.174 606.388C-193.971 594.598 -203.327 582.654 -213.828 570.648C-213.828 570.648 -201.375 548.683 -176.407 522.219C-172.039 517.565 -167.269 512.788 -162.095 507.948C-144.097 491.102 -121.391 473.697 -94.0065 459.767C57.8459 382.672 124.851 435.475 237.671 165.658C396.896 -215.225 592.056 -184.48 592.056 -184.48V-141.915C584.404 -142.97 576.536 -143.466 568.482 -143.373C487.816 -141.667 420.439 -84.4894 372.641 -24.2094Z" fill="white"/>
<path d="M-5.55575 687.099C-32.1466 682.135 -53.072 667.996 -71.279 649.557C-75.4138 645.371 -79.4116 640.955 -83.318 636.38C-92.9812 625.01 -102.005 612.656 -110.891 600.165C-114.295 595.406 -117.676 590.625 -121.057 585.866C-154.684 538.67 -189.43 494.7 -254.217 502.341C-323.618 510.508 -363.87 558.414 -346.371 646.011C-346.371 646.011 -341.893 625.765 -327.113 602.018C-312.333 578.271 -288.232 569.12 -288.232 569.12C-299.905 601.057 -288.232 639.606 -288.232 639.606C-278.112 601.446 -213.028 571.156 -188.128 633.063C-155.255 714.85 -261.801 727.981 -261.801 727.981C-232.56 749.303 -198.02 765.935 -163.844 778.403C-162.953 778.746 -162.04 779.066 -161.149 779.387C-141.16 786.547 -121.377 792.29 -102.896 796.705C-100.497 797.277 -98.1211 797.826 -95.7682 798.352C-72.2385 803.66 -51.1759 806.725 -35.0935 807.823C56.6723 814.046 145.857 752.94 206.76 657.519C272.871 553.93 297.772 401.497 297.772 401.497C234.767 543.795 107.227 708.124 -5.55575 687.099ZM148.164 696.776C145.56 699.773 137.975 708.261 135.166 711.326C130.825 715.787 125.754 720.706 121.253 725.121C116.319 729.217 111.225 733.906 106.176 737.796L95.5306 745.665C23.0454 795.012 -42.1981 771.425 -87.43 718.99C-91.4963 714.3 -95.3798 709.359 -99.1035 704.234C-111.599 687.008 -122.176 667.539 -130.492 647.018C-132.708 641.596 -134.718 636.151 -136.591 630.638C-134.17 634.893 -131.702 639.102 -129.189 643.22C-118.978 660.15 -108.241 675.843 -96.9561 689.822C-93.004 694.717 -88.9834 699.407 -84.8943 703.845C-30.9815 762.549 35.29 781.377 119.015 712.653C126.805 706.705 135.668 698.446 143.07 691.926C147.456 687.648 152.367 682.798 156.822 678.566C162.967 672.572 168.701 666.235 174.869 660.241C166.714 672.847 157.69 685.109 148.164 696.776ZM22.8398 731.916C-18.4628 734.089 -54.2143 711.83 -80.1426 681.105C-84.3688 676.141 -88.298 670.948 -91.976 665.594C-98.2125 656.489 -103.649 646.949 -108.196 637.272C-102.325 644.822 -96.3393 652.005 -90.2398 658.754C-86.1507 663.238 -82.0387 667.539 -77.8354 671.588C-33.4716 714.621 18.2024 733.037 83.149 697.188C120.819 676.026 151.751 646.492 182.659 615.836C147.182 670.147 91.6928 728.21 22.8398 731.916Z" fill="white"/>
<path d="M307.186 382.7L354.741 285.289C356.49 281.691 356.869 277.588 355.781 273.738L352.756 262.944C351.747 259.347 347.572 257.737 344.42 259.741L334.95 265.722C331.578 267.852 329.104 271.166 328.001 275L298.188 379.228L307.186 382.7Z" fill="white"/>
<path d="M375.729 364.331L330.773 328.131L342.749 296.918L381.402 349.576L375.729 364.331Z" fill="white"/>
<path d="M259.143 319.453L316.735 322.735L328.711 291.522L264.799 304.715L259.143 319.453Z" fill="white"/>
<path d="M334.999 387.495L311.521 368.59L317.776 352.273L337.961 379.794L334.999 387.495Z" fill="white"/>
<path d="M274.098 364.062L304.179 365.766L310.434 349.465L277.061 356.345L274.098 364.062Z" fill="white"/>
<path d="M231.325 4.09471C231.325 4.09471 264.458 39.3606 265.103 80.3596C265.103 80.3596 229.52 140.83 216.406 175.932C203.292 211.034 192.027 232.625 184.422 247.323L128.191 238.17L138.695 214.314L213.807 43.8607L231.325 4.09471ZM197.259 50.3483L132.257 197.825L124.746 194.563L188.852 46.6948L197.259 50.3483ZM177.354 41.688L113.248 189.556L96.5074 182.282L108.594 154.423L90.3995 146.514L101.696 120.45L119.9 128.363L122.927 121.388L122.945 121.344L104.718 113.421L116.016 87.3571L134.226 95.2725L160.631 34.4132L177.354 41.688Z" fill="white"/>
</g>
<defs>
<clipPath id="clip0_27_279">
<rect width="502" height="900" fill="white"/>
</clipPath>
</defs>
</svg>
