<svg width="24" height="25" viewBox="0 0 24 25" fill="none" xmlns="http://www.w3.org/2000/svg">
<path fill-rule="evenodd" clip-rule="evenodd" d="M13.2584 3.6454C13.3096 3.18575 13.7243 2.85452 14.1848 2.90558C16.0762 3.11534 17.8399 3.96087 19.1864 5.30334C20.533 6.64581 21.3822 8.40543 21.5947 10.2933C21.6464 10.7529 21.3151 11.1673 20.8547 11.2189C20.3943 11.2706 19.9792 10.9399 19.9275 10.4803C19.7575 8.97001 19.0781 7.56232 18.0009 6.48834C16.9237 5.41436 15.5126 4.73794 13.9995 4.57014C13.5391 4.51907 13.2072 4.10506 13.2584 3.6454ZM7.42787 3.73786C8.03692 3.73297 8.62714 3.94875 9.089 4.34526C9.55201 4.74276 9.85444 5.29476 9.93991 5.89838L9.94096 5.90608C10.0389 6.64716 10.2204 7.3748 10.4821 8.07514C10.6511 8.52442 10.6876 9.0126 10.5873 9.48195C10.4869 9.95169 10.2538 10.3829 9.91549 10.7244L9.91219 10.7277L9.31064 11.3282C10.297 12.8729 11.6101 14.1837 13.1575 15.1683L13.7623 14.5645C14.1044 14.2268 14.5364 13.9941 15.0069 13.8939C15.4771 13.7938 15.9661 13.8302 16.4162 13.9988C17.1177 14.2601 17.8467 14.4413 18.5891 14.5391L18.5966 14.5401C19.2078 14.6262 19.766 14.9335 20.1651 15.4037C20.5616 15.8709 20.7735 16.4666 20.7611 17.0786V19.5796C20.7623 19.9289 20.6905 20.2746 20.5503 20.5946C20.4099 20.9152 20.204 21.2029 19.9458 21.4394C19.6876 21.6759 19.3827 21.8559 19.0507 21.968C18.7188 22.0801 18.367 22.1217 18.018 22.0902L18.0029 22.0887C15.2924 21.7947 12.6888 20.8704 10.401 19.3901C8.27266 18.0394 6.46802 16.2379 5.11496 14.1133C3.62678 11.819 2.70064 9.20719 2.4115 6.48921L2.41021 6.47615C2.37877 6.1288 2.42012 5.77871 2.53164 5.44819C2.64316 5.11767 2.82239 4.81394 3.05794 4.55636C3.29349 4.29877 3.58018 4.09297 3.89977 3.95205C4.21936 3.81114 4.56484 3.73819 4.91421 3.73786H7.42787ZM13.2688 6.92709C13.3575 6.47317 13.7981 6.17699 14.2528 6.26555C15.236 6.45704 16.1396 6.93706 16.8479 7.64417C17.5563 8.35128 18.0371 9.25331 18.229 10.2348C18.3177 10.6887 18.021 11.1285 17.5663 11.2171C17.1115 11.3056 16.671 11.0094 16.5823 10.5555C16.4544 9.90119 16.1338 9.29984 15.6616 8.82843C15.1894 8.35702 14.587 8.03701 13.9315 7.90935C13.4768 7.82078 13.1801 7.38101 13.2688 6.92709Z" fill="#293C92"/>
</svg>
