<svg width="48" height="48" viewBox="0 0 48 48" fill="none" xmlns="http://www.w3.org/2000/svg">
<rect width="48" height="48" rx="14" fill="#97E8FF"/>
<path d="M33.6349 37.8877C34.782 37.8879 35.7119 38.8081 35.712 39.9434C35.712 41.0789 34.7803 42 33.6329 42H14.3693C13.2219 42 12.2912 41.0789 12.2912 39.9434C12.2913 38.808 13.222 37.8877 14.3693 37.8877H33.6349ZM30.9357 33.7754C31.9045 33.7755 32.6894 34.553 32.6896 35.5117V36.6182H15.3136V35.5117C15.3138 34.553 16.0988 33.7756 17.0675 33.7754H30.9357ZM28.3273 32.5059H19.6749L20.3322 30.3916C21.482 30.7916 22.7165 31.0098 24.0011 31.0098C25.2857 31.0098 26.5214 30.7904 27.6701 30.3916L28.3273 32.5059ZM13.5529 23.7471C14.4103 26.0928 16.0531 28.0695 18.1642 29.3662C18.0333 29.4234 17.8992 29.4771 17.7619 29.5254C15.2913 30.3902 12.5434 29.437 11.1535 28.8096C10.5942 28.5568 10.3862 27.9685 10.6593 27.4238C11.1573 26.4357 12.1116 24.861 13.5529 23.7471ZM34.4484 23.7451C35.8897 24.859 36.843 26.4347 37.341 27.4229C37.6154 27.9677 37.4053 28.5559 36.8458 28.8086C35.4572 29.436 32.7093 30.3893 30.2374 29.5244C30.1001 29.4761 29.966 29.4227 29.8351 29.3643C31.9476 28.0687 33.591 26.0911 34.4484 23.7451ZM33.8214 20.0186C33.8214 25.3862 29.4262 29.7392 24.0011 29.7393C18.5773 29.7393 14.1788 25.3875 14.1788 20.0186V12.1299H33.8214V20.0186ZM23.7296 13.5703C20.1053 13.5704 17.1574 16.4874 17.1574 20.0742C17.1574 23.6611 20.1053 26.579 23.7296 26.5791C27.354 26.5791 30.3019 23.6611 30.3019 20.0742C30.3018 16.4874 27.354 13.5703 23.7296 13.5703ZM12.8956 20.0176C12.8957 20.8533 12.9904 21.6675 13.1701 22.4512C11.7622 23.4139 10.7403 24.7488 10.0626 25.8652C8.77803 25.0371 7.79871 23.9231 7.22377 23.1699C6.85297 22.6847 6.95215 22.0683 7.45521 21.7178C8.5552 20.9531 10.6447 19.7516 12.8956 19.749V20.0176ZM35.1056 19.7471C37.3566 19.7484 39.4462 20.9522 40.546 21.7168C41.049 22.0661 41.1461 22.6848 40.7765 23.1699C40.2015 23.9231 39.2223 25.0362 37.9376 25.8643C37.26 24.7478 36.2381 23.4127 34.8302 22.4512C35.0099 21.6688 35.1056 20.8546 35.1056 20.0176V19.7471ZM23.7296 14.8389C26.6507 14.8389 29.0187 17.1824 29.0187 20.0732C29.0186 22.964 26.6507 25.3076 23.7296 25.3076C20.8087 25.3075 18.4407 22.964 18.4406 20.0732C18.4406 17.1824 20.8086 14.839 23.7296 14.8389ZM23.7306 15.7354C22.9697 15.7355 22.2778 16.1497 21.9249 16.8164L21.6056 17.4209L20.9269 17.5352C20.1763 17.6609 19.5642 18.1843 19.3292 18.9004C19.0944 19.6167 19.2785 20.3973 19.8097 20.9346L20.2912 21.4219L20.1915 22.0967C20.1056 22.6771 20.2773 23.2638 20.6622 23.707C21.0523 24.1527 21.6144 24.409 22.2072 24.4092C22.5216 24.4092 22.8272 24.3379 23.1134 24.1982L23.7306 23.8965L24.3488 24.1982C24.6349 24.3379 24.9387 24.4092 25.2531 24.4092C25.846 24.4092 26.4088 24.1529 26.799 23.707C27.1851 23.2651 27.3569 22.678 27.2697 22.0977L27.1691 21.4238L27.6505 20.9355C28.1831 20.3971 28.3667 19.6174 28.132 18.9023C27.8971 18.1861 27.285 17.6629 26.5343 17.5371L25.8556 17.4229L25.8566 17.4209L25.5372 16.8164C25.1843 16.1496 24.4917 15.7354 23.7306 15.7354ZM23.0597 17.4062C23.3421 16.8715 24.1162 16.8715 24.3986 17.4062L25.0128 18.5684L26.3195 18.7881C26.9201 18.8897 27.1587 19.616 26.7326 20.0479H26.7345L25.8078 20.9854L26.0001 22.2822C26.0885 22.8791 25.4638 23.3284 24.9171 23.0605L23.7296 22.4785L22.5421 23.0605C21.9955 23.3281 21.3708 22.8789 21.4591 22.2822L21.6515 20.9854L20.7257 20.0479C20.2996 19.616 20.5382 18.8897 21.1388 18.7881L22.4454 18.5684L23.0597 17.4062ZM8.19447 16.1592C9.27641 15.8899 11.103 15.5809 12.8947 15.9365V18.4775C11.1903 18.4775 9.59057 19.0625 8.35463 19.6963C7.91698 18.8542 7.63037 18.0372 7.45326 17.4326C7.28267 16.8484 7.59901 16.3078 8.19447 16.1592ZM35.1066 15.9336C36.8982 15.578 38.7248 15.8886 39.8068 16.1592C40.4021 16.3079 40.7177 16.8485 40.547 17.4326C40.3712 18.0371 40.0822 18.8536 39.6447 19.6943C38.41 19.0619 36.8108 18.4788 35.1066 18.4775V15.9336ZM9.54603 10.8594C10.0247 10.867 10.638 10.905 11.3117 11.0078C11.7442 11.4486 12.2873 11.7833 12.8956 11.9688V14.6436C12.3515 14.5521 11.7799 14.5049 11.1818 14.5049C10.3323 14.5049 9.53395 14.6003 8.86537 14.7197C8.58818 13.6453 8.51005 12.6203 8.4972 11.9014C8.48694 11.293 8.93225 10.8521 9.54701 10.8623L9.54603 10.8594ZM38.4562 10.8584C39.071 10.8482 39.5163 11.2891 39.506 11.8975L39.505 11.8984C39.4922 12.6173 39.414 13.6424 39.1369 14.7168C38.4683 14.5974 37.6699 14.502 36.8204 14.502C36.2211 14.502 35.6495 14.5521 35.1066 14.6436V11.9658C35.7149 11.7816 36.2568 11.4463 36.6906 11.0068C37.3642 10.904 37.9775 10.8673 38.4562 10.8584ZM34.0119 6C35.3684 6.00001 36.4669 7.08846 36.4669 8.42969C36.4669 9.77097 35.3672 10.8594 34.0119 10.8594H13.9904C12.6338 10.8594 11.5353 9.77097 11.5353 8.42969C11.5354 7.08846 12.6351 6 13.9904 6H34.0119Z" fill="white"/>
</svg>
