<svg width="214" height="64" viewBox="0 0 214 64" fill="none" xmlns="http://www.w3.org/2000/svg">
<path d="M16.9121 59.9058C20.9955 62.4977 25.8447 64 31.0468 64C45.5895 64 57.3789 52.2661 57.3789 37.7917C57.3789 35.747 57.1434 33.757 56.6981 31.8471C56.2241 29.8142 55.1324 26.4528 54.2137 24.6318C46.8499 39.361 35.1791 51.5384 19.9858 58.6373C18.9259 59.1327 17.899 59.5565 16.9121 59.9058Z" fill="url(#paint0_linear_0_470)"/>
<mask id="mask0_0_470" style="mask-type:luminance" maskUnits="userSpaceOnUse" x="16" y="24" width="42" height="40">
<path d="M16.9121 59.9058C20.9955 62.4977 25.8447 64 31.0468 64C45.5895 64 57.3789 52.2661 57.3789 37.7917C57.3789 35.747 57.1434 33.757 56.6981 31.8471C56.2241 29.8142 55.1324 26.4528 54.2137 24.6318C46.8499 39.361 35.1791 51.5384 19.9858 58.6373C18.9259 59.1327 17.899 59.5565 16.9121 59.9058Z" fill="white"/>
</mask>
<g mask="url(#mask0_0_470)">
<g opacity="0.2">
<path d="M42.5225 27.5099C42.8132 27.8122 43.0385 28.2087 43.3161 28.5013C43.5513 28.7516 43.9171 28.9304 44.1392 29.2294C44.6258 29.8861 44.8348 30.8418 45.2757 31.5569C45.6513 32.1615 46.4352 32.5776 46.6344 33.283C46.9447 34.3915 46.8402 34.5768 47.8886 33.6243C48.1237 33.4098 48.2935 33.2733 48.5352 32.9644C48.8096 32.6134 49.2048 32.3111 49.5183 31.9958C49.9625 31.5504 50.4916 31.1863 50.6647 30.65C50.7561 30.3704 50.9292 29.0019 50.8476 28.6963C50.7594 28.3713 50.1127 27.9422 49.7339 28.0495C49.6032 27.7797 49.4301 27.4969 49.257 27.2661C48.8945 27.5489 48.9957 27.9227 48.4601 28.0072C47.8624 28.1015 47.6763 27.6691 47.4019 27.2661C46.9871 26.6614 46.3209 25.9333 46.2686 25.2312C46.801 25.3742 47.2745 25.5237 47.6665 25.9008C47.9343 26.1608 48.0486 26.5542 48.3915 26.733C48.7834 26.9345 49.4758 26.9963 49.7665 26.6192C50.0539 27.2693 50.5896 27.5716 51.3081 27.3993C51.7718 27.2888 52.1964 26.6809 52.6929 27.0808C52.9737 27.3083 53.186 28.0722 53.4963 28.4005C54.7864 29.7691 55.2795 31.4204 55.7564 33.2147C55.9197 33.8324 56.1646 34.489 56.2071 35.1294C56.2332 35.5259 56.0765 35.942 56.2332 36.3094C57.3339 36.2118 56.2822 31.9177 56.1254 31.3619C55.8315 30.3282 55.7858 29.7301 55.9066 28.6476C55.9589 28.1827 55.985 27.6951 55.9719 27.2108C52.51 19.5588 45.5436 13.8214 37.1009 12.0303C37.5484 12.3033 38.0971 12.6772 38.1167 12.8787C38.1722 13.4963 37.3361 13.155 37.0487 13.142C36.4314 13.1192 36.4771 13.4053 36.0003 13.6003C36.1113 12.5049 33.6683 12.2221 32.9139 12.4919C32.2542 12.7259 31.8361 13.2168 31.2809 13.5256C30.5003 13.9579 29.6871 13.6491 28.9163 14.3382C29.3409 14.4227 29.6871 14.621 30.0921 14.7348C30.3239 14.7998 30.6375 14.7543 30.8138 14.8648C31.2025 15.1086 31.0882 15.5735 31.6467 15.3589C31.9961 15.2257 32.2803 14.6438 32.3783 14.4C32.4077 14.3252 32.264 14.205 32.3717 14.0067C32.4501 13.8669 33.0021 13.5938 33.1294 13.5516C32.8649 14.2245 33.3907 14.5138 33.9884 14.3415C33.9296 14.634 33.701 14.7023 33.5475 14.9981C33.4266 15.2322 33.492 15.5897 33.3515 15.7848C32.9433 16.3504 32.5677 15.7523 32.1039 15.7913C31.5781 15.8335 31.4801 16.3211 30.8498 16.0773C30.4415 15.9213 30.0888 15.476 29.821 15.1834C29.5597 15.4337 29.5826 15.801 29.2951 16.0773C28.8934 16.4674 28.348 16.6007 27.845 16.7567C27.0285 17.0103 26.0063 17.1793 25.1212 17.3126C24.7064 18.044 25.8985 17.9302 25.8397 18.6258C25.8168 18.8956 25.7646 18.8371 25.6242 19.0224C25.5817 19.0777 25.033 19.4645 24.9024 19.562C24.579 19.2207 24.2492 19.1069 23.7919 19.1427C23.5078 19.1654 22.6815 19.289 22.4202 19.4482C21.4763 20.0301 22.0283 21.2784 21.9956 22.104C22.4855 22.2731 22.8448 22.078 23.3118 22.052C23.5208 22.039 23.5796 21.9643 23.7919 21.9903C23.9356 22.0098 24.0205 22.2341 24.1838 22.2536C24.6541 22.3153 25.2159 21.8537 25.5131 21.5547C25.8266 21.2329 25.9834 20.521 26.3165 20.2772C26.5484 20.1081 26.5713 20.2187 26.8489 20.1374C27.1722 20.0399 28.2402 19.9586 27.7895 19.3572C28.2729 19.4482 29.4715 19.7571 29.4323 18.8924C29.9712 18.8014 30.7779 20.0854 31.1143 20.4592C31.5128 20.9013 32.277 21.2036 32.0223 21.9155C32.2705 21.6945 32.3652 21.2914 32.4109 20.9631C32.4828 20.4397 32.6036 20.5762 32.1104 20.2674C31.8426 20.1016 29.6348 19.341 30.8302 18.7656C31.2319 18.5706 31.9145 19.211 32.326 19.2857C33.0184 19.4125 33.456 19.3052 33.8447 20.0756C34.0472 20.4755 34.0766 21.0281 34.2007 21.4539C34.4489 22.3121 34.6612 22.208 35.5136 22.0585C34.7984 21.8407 34.7755 20.8883 35.4646 20.677C35.6312 20.625 36.4281 20.7323 36.6469 20.9403C36.8396 21.1223 36.7155 21.4604 36.8658 21.6587C37.1303 22.0065 37.6431 22.0033 38.0056 22.182C38.2734 22.3186 38.5151 22.5949 38.8156 22.6371C39.3871 22.7184 39.7791 21.831 40.1677 21.7172C41.0561 21.4539 40.9124 22.4453 40.7817 23.18C40.6511 23.9179 39.8934 24.7728 39.1389 24.8768C38.502 24.9646 37.6006 24.7306 36.9866 24.62C36.1962 24.477 35.5953 24.1064 34.8964 23.8464C33.812 23.4433 34.1288 24.0122 34.1909 24.7566C33.5573 24.6298 32.9694 24.1909 32.3227 24.0252C31.9178 23.9211 31.5454 23.8984 31.1535 23.7651C30.8334 23.6546 30.2815 23.6318 29.9973 23.5116C29.269 23.1995 29.7654 23.3198 29.7099 22.6859C29.6577 22.0878 29.6544 22.3511 29.0861 22.2015C28.6224 22.078 28.1978 21.8667 27.6948 21.9155C26.9828 21.987 26.3427 22.3706 25.6437 22.4031C24.5921 22.4519 23.6711 22.5234 22.6553 22.7639C21.9956 22.9199 21.9891 23.2743 21.6135 23.9504C21.411 24.3177 21.1856 24.529 20.8721 24.7891C20.3397 25.2312 20.0817 25.6895 19.6049 26.2259C19.3665 26.4957 18.9811 27.1783 18.7231 27.3636C18.4553 27.5554 18.1776 27.3896 17.8837 27.5326C17.384 27.7732 16.9757 28.8914 16.7341 29.3497C16.4009 29.9836 15.9339 30.6207 15.9437 31.3586C15.96 32.2363 16.2148 32.8929 15.9633 33.7283C15.8392 34.1379 15.5877 34.1737 15.7641 34.7393C16.0123 35.539 16.4271 35.3504 16.9594 35.7177C17.6322 36.1858 17.3971 37.1448 18.1678 37.7982C18.8962 38.4125 19.3305 38.9261 20.2026 38.8059C20.8133 38.7213 21.1758 38.6628 21.7866 38.7506C22.4333 38.8416 22.4104 38.8579 23.0832 38.6336C24.1806 38.2695 25.4119 37.9184 26.5648 38.2175C27.2898 38.4028 27.4694 39.0204 28.0247 39.3552C28.6419 39.7258 29.0796 39.5925 29.0241 40.6002C28.9261 40.6425 28.8771 40.6392 28.7693 40.6782C28.7007 41.8127 28.7595 43.087 29.4715 44.0394C30.1345 44.9236 31.0817 45.2617 31.209 46.4449C31.2776 47.0593 31.2319 47.5078 31.0653 48.1157C30.9641 48.4863 30.6538 49.1397 30.5624 49.5785C30.4872 49.9556 30.4578 51.0088 30.6734 51.3306C30.902 51.6687 31.3658 51.7629 31.5454 52.2148C31.6597 52.5008 31.7708 52.9917 31.8263 53.2712C32.0353 54.3017 32.117 55.1631 32.6722 56.1513C33.1686 57.0355 33.8545 57.4256 34.0766 58.4138C35.0237 58.495 36.1407 58.2675 37.0421 58.0952C37.1401 58.0757 37.7835 58.0042 37.839 57.9587C38.0807 57.7539 37.9174 57.354 38.1526 57.133C38.3355 56.9607 38.5967 57.133 38.7731 57.0062C38.9593 56.8697 39.054 56.5772 39.1585 56.3789C39.508 55.732 39.7366 55.0428 40.2526 54.5065C40.7458 53.9961 41.3925 53.5183 41.8334 52.9494C42.0587 52.6601 42.2808 52.3221 42.48 52.0425C42.6009 51.8735 42.7348 52.0132 42.8295 51.7629C42.9438 51.4574 42.578 50.8008 42.4996 50.5147C43.1169 50.2839 43.5742 50.2384 44.0151 49.7183C44.2698 49.4192 44.3188 49.0454 44.4854 48.7333C44.5932 48.5318 44.7989 48.3205 44.8838 48.1222C45.1843 47.4168 45.23 46.5392 45.0308 45.8143C44.8446 45.1349 44.4984 44.6635 44.6127 43.9094C44.7662 42.8822 45.4782 42.18 46.0106 41.3284C46.2915 40.8798 46.4156 40.6132 46.8075 40.3369C47.2517 40.0216 47.5914 39.9111 47.931 39.404C48.7965 38.1167 49.92 36.2964 49.711 34.671C49.2831 34.3557 49.2178 34.7165 48.8488 34.8726C48.4111 35.0579 46.9675 35.4609 46.5234 35.3244C45.9159 35.1359 46.0857 34.5833 45.8081 34.1379C45.5044 33.6503 44.7989 33.2147 44.4005 32.7336C43.9497 32.1908 43.3651 31.6544 43.0516 31.0271C42.6989 30.3249 42.6107 29.587 42.0979 28.9856C41.35 28.108 40.6707 27.1165 40.7752 25.8748C41.3565 26.3916 41.9901 26.941 42.5258 27.4969L42.5225 27.5099Z" fill="white"/>
<path d="M48.3906 47.8099C48.015 47.7741 47.9954 48.1707 47.8876 48.473C47.8582 48.5543 47.7472 49.0354 47.6982 49.0679C47.499 49.1979 47.4826 48.9508 47.2965 48.9964C46.9699 49.0776 46.1403 49.2012 45.9345 49.4254C45.3695 50.0496 46.1795 50.2154 46.2677 50.716C46.4049 51.4961 45.5982 51.2166 45.2911 51.6521C45.1278 51.8797 45.0135 53.1409 45.0854 53.4107C46.5747 54.0739 46.9927 51.6651 47.4304 50.7712C47.6721 50.2804 48.9327 47.8749 48.3906 47.8099Z" fill="white"/>
</g>
</g>
<path d="M31.0461 11.584C16.5033 11.584 4.71395 23.3176 4.71395 37.7919C4.71395 38.8942 4.54045 41.596 5.52398 42.1992C11.7006 45.9959 40.9055 33.0637 51.214 20.9051C50.6352 20.2727 49.3306 18.9134 48.6929 18.3401C44.0234 14.1408 37.8347 11.584 31.0461 11.584Z" fill="url(#paint1_linear_0_470)"/>
<mask id="mask1_0_470" style="mask-type:alpha" maskUnits="userSpaceOnUse" x="4" y="11" width="48" height="32">
<path d="M31.0461 11.584C16.5033 11.584 4.71395 23.3176 4.71395 37.7919C4.71395 38.8942 4.54045 41.596 5.52398 42.1992C11.7006 45.9959 40.9055 33.0637 51.214 20.9051C50.6352 20.2727 49.3306 18.9134 48.6929 18.3401C44.0234 14.1408 37.8347 11.584 31.0461 11.584Z" fill="url(#paint2_linear_0_470)"/>
</mask>
<g mask="url(#mask1_0_470)">
<g opacity="0.3">
<path d="M42.5225 27.5108C42.8132 27.8131 43.0385 28.2097 43.3161 28.5023C43.5513 28.7526 43.9171 28.9314 44.1392 29.2304C44.6258 29.8871 44.8348 30.8427 45.2757 31.5579C45.6513 32.1625 46.4352 32.5786 46.6344 33.284C46.9447 34.3925 46.8402 34.5777 47.8886 33.6253C48.1237 33.4108 48.2935 33.2742 48.5352 32.9654C48.8096 32.6144 49.2048 32.312 49.5183 31.9967C49.9625 31.5514 50.4916 31.1873 50.6647 30.651C50.7561 30.3714 50.9292 29.0029 50.8476 28.6973C50.7594 28.3723 50.1127 27.9432 49.7339 28.0504C49.6032 27.7806 49.4301 27.4978 49.257 27.267C48.8945 27.5498 48.9957 27.9237 48.4601 28.0082C47.8624 28.1025 47.6763 27.6701 47.4019 27.267C46.9871 26.6624 46.3209 25.9343 46.2686 25.2321C46.801 25.3752 47.2745 25.5247 47.6665 25.9018C47.9343 26.1618 48.0486 26.5551 48.3915 26.7339C48.7834 26.9355 49.4758 26.9972 49.7665 26.6202C50.0539 27.2703 50.5896 27.5726 51.3081 27.4003C51.7718 27.2898 52.1964 26.6819 52.6929 27.0817C52.9737 27.3093 53.186 28.0732 53.4963 28.4015C54.7864 29.77 55.2795 31.4214 55.7564 33.2157C55.9197 33.8333 56.1646 34.49 56.2071 35.1303C56.2332 35.5269 56.0765 35.943 56.2332 36.3103C57.3339 36.2128 56.2822 31.9187 56.1254 31.3628C55.8315 30.3291 55.7858 29.731 55.9066 28.6486C55.9589 28.1837 55.985 27.6961 55.9719 27.2118C52.51 19.5597 45.5436 13.8224 37.1009 12.0312C37.5484 12.3043 38.0971 12.6781 38.1167 12.8797C38.1722 13.4973 37.3361 13.156 37.0487 13.143C36.4314 13.1202 36.4771 13.4063 36.0003 13.6013C36.1113 12.5058 33.6683 12.223 32.9139 12.4928C32.2542 12.7269 31.8361 13.2177 31.2809 13.5265C30.5003 13.9589 29.6871 13.6501 28.9163 14.3392C29.3409 14.4237 29.6871 14.622 30.0921 14.7358C30.3239 14.8008 30.6375 14.7553 30.8138 14.8658C31.2025 15.1096 31.0882 15.5745 31.6467 15.3599C31.9961 15.2266 32.2803 14.6448 32.3783 14.401C32.4077 14.3262 32.264 14.2059 32.3717 14.0076C32.4501 13.8679 33.0021 13.5948 33.1294 13.5526C32.8649 14.2254 33.3907 14.5147 33.9884 14.3425C33.9296 14.635 33.701 14.7033 33.5475 14.9991C33.4266 15.2331 33.492 15.5907 33.3515 15.7857C32.9433 16.3514 32.5677 15.7532 32.1039 15.7922C31.5781 15.8345 31.4801 16.3221 30.8498 16.0783C30.4415 15.9223 30.0888 15.4769 29.821 15.1844C29.5597 15.4347 29.5826 15.802 29.2951 16.0783C28.8934 16.4684 28.348 16.6017 27.845 16.7577C27.0285 17.0112 26.0063 17.1803 25.1212 17.3136C24.7064 18.0449 25.8985 17.9312 25.8397 18.6268C25.8168 18.8966 25.7646 18.8381 25.6242 19.0234C25.5817 19.0787 25.033 19.4655 24.9024 19.563C24.579 19.2217 24.2492 19.1079 23.7919 19.1437C23.5078 19.1664 22.6815 19.2899 22.4202 19.4492C21.4763 20.0311 22.0283 21.2793 21.9956 22.105C22.4855 22.274 22.8448 22.079 23.3118 22.053C23.5208 22.04 23.5796 21.9652 23.7919 21.9912C23.9356 22.0107 24.0205 22.235 24.1838 22.2545C24.6541 22.3163 25.2159 21.8547 25.5131 21.5556C25.8266 21.2338 25.9834 20.5219 26.3165 20.2781C26.5484 20.1091 26.5713 20.2196 26.8489 20.1384C27.1722 20.0408 28.2402 19.9596 27.7895 19.3582C28.2729 19.4492 29.4715 19.758 29.4323 18.8934C29.9712 18.8023 30.7779 20.0864 31.1143 20.4602C31.5128 20.9023 32.277 21.2046 32.0223 21.9165C32.2705 21.6954 32.3652 21.2923 32.4109 20.964C32.4828 20.4407 32.6036 20.5772 32.1104 20.2684C31.8426 20.1026 29.6348 19.342 30.8302 18.7666C31.2319 18.5716 31.9145 19.2119 32.326 19.2867C33.0184 19.4135 33.456 19.3062 33.8447 20.0766C34.0472 20.4764 34.0766 21.029 34.2007 21.4549C34.4489 22.313 34.6612 22.209 35.5136 22.0595C34.7984 21.8417 34.7755 20.8893 35.4646 20.678C35.6312 20.626 36.4281 20.7332 36.6469 20.9413C36.8396 21.1233 36.7155 21.4614 36.8658 21.6597C37.1303 22.0075 37.6431 22.0042 38.0056 22.183C38.2734 22.3195 38.5151 22.5959 38.8156 22.6381C39.3871 22.7194 39.7791 21.832 40.1677 21.7182C41.0561 21.4549 40.9124 22.4463 40.7817 23.181C40.6511 23.9189 39.8934 24.7738 39.1389 24.8778C38.502 24.9656 37.6006 24.7315 36.9866 24.621C36.1962 24.478 35.5953 24.1074 34.8964 23.8474C33.812 23.4443 34.1288 24.0131 34.1909 24.7575C33.5573 24.6308 32.9694 24.1919 32.3227 24.0261C31.9178 23.9221 31.5454 23.8994 31.1535 23.7661C30.8334 23.6556 30.2815 23.6328 29.9973 23.5125C29.269 23.2005 29.7654 23.3207 29.7099 22.6869C29.6577 22.0888 29.6544 22.3521 29.0861 22.2025C28.6224 22.079 28.1978 21.8677 27.6948 21.9165C26.9828 21.988 26.3427 22.3716 25.6437 22.4041C24.5921 22.4528 23.6711 22.5243 22.6553 22.7649C21.9956 22.9209 21.9891 23.2752 21.6135 23.9514C21.411 24.3187 21.1856 24.53 20.8721 24.79C20.3397 25.2321 20.0817 25.6905 19.6049 26.2268C19.3665 26.4966 18.9811 27.1793 18.7231 27.3646C18.4553 27.5563 18.1776 27.3906 17.8837 27.5336C17.384 27.7741 16.9757 28.8924 16.7341 29.3507C16.4009 29.9846 15.9339 30.6217 15.9437 31.3596C15.96 32.2373 16.2148 32.8939 15.9633 33.7293C15.8392 34.1389 15.5877 34.1747 15.7641 34.7403C16.0123 35.5399 16.4271 35.3514 16.9594 35.7187C17.6322 36.1868 17.3971 37.1458 18.1678 37.7991C18.8962 38.4135 19.3305 38.9271 20.2026 38.8068C20.8133 38.7223 21.1758 38.6638 21.7866 38.7516C22.4333 38.8426 22.4104 38.8589 23.0832 38.6346C24.1806 38.2705 25.4119 37.9194 26.5648 38.2185C27.2898 38.4037 27.4694 39.0214 28.0247 39.3562C28.6419 39.7268 29.0796 39.5935 29.0241 40.6012C28.9261 40.6435 28.8771 40.6402 28.7693 40.6792C28.7007 41.8137 28.7595 43.0879 29.4715 44.0404C30.1345 44.9245 31.0817 45.2626 31.209 46.4459C31.2776 47.0602 31.2319 47.5088 31.0653 48.1167C30.9641 48.4873 30.6538 49.1406 30.5624 49.5795C30.4872 49.9566 30.4578 51.0098 30.6734 51.3316C30.902 51.6697 31.3658 51.7639 31.5454 52.2158C31.6597 52.5018 31.7708 52.9927 31.8263 53.2722C32.0353 54.3027 32.117 55.1641 32.6722 56.1523C33.1686 57.0365 33.8545 57.4265 34.0766 58.4147C35.0237 58.496 36.1407 58.2685 37.0421 58.0962C37.1401 58.0767 37.7835 58.0052 37.839 57.9597C38.0807 57.7549 37.9174 57.355 38.1526 57.134C38.3355 56.9617 38.5967 57.134 38.7731 57.0072C38.9593 56.8707 39.054 56.5781 39.1585 56.3798C39.508 55.733 39.7366 55.0438 40.2526 54.5075C40.7458 53.9971 41.3925 53.5193 41.8334 52.9504C42.0587 52.6611 42.2808 52.323 42.48 52.0435C42.6009 51.8744 42.7348 52.0142 42.8295 51.7639C42.9438 51.4584 42.578 50.8017 42.4996 50.5157C43.1169 50.2849 43.5742 50.2394 44.0151 49.7193C44.2698 49.4202 44.3188 49.0464 44.4854 48.7343C44.5932 48.5328 44.7989 48.3215 44.8838 48.1232C45.1843 47.4178 45.23 46.5401 45.0308 45.8152C44.8446 45.1358 44.4984 44.6645 44.6127 43.9104C44.7662 42.8831 45.4782 42.181 46.0106 41.3293C46.2915 40.8807 46.4156 40.6142 46.8075 40.3379C47.2517 40.0226 47.5914 39.9121 47.931 39.405C48.7965 38.1177 49.92 36.2973 49.711 34.672C49.2831 34.3567 49.2178 34.7175 48.8488 34.8736C48.4111 35.0588 46.9675 35.4619 46.5234 35.3254C45.9159 35.1369 46.0857 34.5842 45.8081 34.1389C45.5044 33.6513 44.7989 33.2157 44.4005 32.7346C43.9497 32.1918 43.3651 31.6554 43.0516 31.028C42.6989 30.3259 42.6107 29.588 42.0979 28.9866C41.35 28.1089 40.6707 27.1175 40.7752 25.8758C41.3565 26.3926 41.9901 26.942 42.5258 27.4978L42.5225 27.5108Z" fill="white"/>
<path d="M37.6461 18.6338C36.8361 17.5578 37.0059 20.0738 36.9929 20.4087C37.4207 20.2949 37.5546 20.0673 38.0445 20.0316C38.1817 20.0218 38.5214 20.0966 38.6749 20.0901C38.7924 20.0868 38.9296 19.9308 39.119 19.9373C39.413 19.9471 39.8016 20.2201 40.0988 20.2884C40.3667 20.3501 41.0264 20.6394 41.2223 20.6167C41.7416 20.5614 41.7645 20.1356 41.3824 19.9048C40.8892 19.6057 40.432 19.9373 40.027 19.3717C39.7429 18.9784 39.3705 16.9435 38.9002 18.5233C38.7761 18.9394 39.0341 19.3002 38.4201 19.1799C38.247 19.1474 37.94 18.7996 37.6428 18.6338H37.6461Z" fill="white"/>
<path d="M43.4175 18.3665C43.1888 18.36 42.7218 18.5258 42.6565 18.7956C42.5618 19.202 42.8427 19.1272 43.1039 19.3385C43.5122 19.6733 43.9694 20.0829 44.1981 20.6095C44.296 20.8338 44.3875 21.1166 44.4626 21.3539C44.5051 21.4839 44.59 22.043 44.6749 22.1178C44.8415 22.2641 46.1381 22.2608 46.3928 22.3161C46.4777 21.6627 45.4457 21.3799 45.2268 20.8565C45.155 20.6843 45.315 20.356 45.2138 20.2097C45.0733 20.0016 44.7467 20.0179 44.5442 19.8879C44.2568 19.6993 43.6526 19.2442 43.6167 18.8932C43.5906 18.6266 43.9531 18.6526 43.8845 18.3991C43.8127 18.126 43.5122 18.1553 43.4175 18.3665Z" fill="white"/>
<path d="M10.7867 54.442C10.5777 53.8308 9.78405 53.483 9.46072 52.9304C9.1929 52.4721 8.97734 51.5847 8.93815 51.0548C9.64361 50.9703 9.96368 50.5477 9.71547 49.9333C9.45092 49.2734 9.03613 48.6493 9.00021 47.9114C8.97081 47.3003 9.04593 46.6632 8.99367 46.026C8.95775 45.5905 9.01654 45.2459 9.16024 44.8396C9.30721 44.43 9.63708 44.0659 9.5195 43.6076C9.33334 42.8827 8.48418 42.2748 7.91589 41.8522C7.41619 41.4816 6.78912 41.1631 6.51151 40.5877C6.2045 39.9538 6.21104 39.1607 5.99221 38.5008C5.86484 38.1172 5.59376 37.8442 5.47618 37.4703C5.28349 36.8592 5.50558 36.2513 5.28349 35.6077C5.13652 35.1819 4.99608 34.8016 4.87524 34.4277C4.70214 35.6565 4.60742 36.908 4.60742 38.1855C4.60742 44.69 6.94262 50.6517 10.8259 55.2871C10.8128 55.0011 10.8716 54.6923 10.7867 54.4452V54.442Z" fill="white"/>
</g>
</g>
<path fill-rule="evenodd" clip-rule="evenodd" d="M16.7494 7.18854C16.7494 7.18854 20.888 3.50422 24.8094 3.40975C28.7305 3.31415 30.2737 7.69453 30.2737 7.69453L27.9366 6.72123L27.3876 5.42052L27.4178 6.55865L25.9515 6.35401L25.2006 5.21701L25.3521 6.42773L24.2241 6.26627L24.1098 5.35156L23.6783 6.33354L21.878 6.55584L22.2131 5.69328L20.8953 6.67694L16.7494 7.18854Z" fill="#293693"/>
<path fill-rule="evenodd" clip-rule="evenodd" d="M16.8541 7.33709C16.8541 7.33709 17.8328 2.81432 20.4398 0.828488C23.047 -1.15762 26.2584 1.05107 26.2584 1.05107L24.1947 1.53827L23.1788 0.927443L23.7638 1.68208L22.6693 2.26151L21.5988 1.85981L22.3001 2.60603L21.4568 3.04951L20.927 2.48577L21.1208 3.36207L20.0125 4.39451L19.8122 3.64632L19.4075 4.95853L16.8541 7.33709Z" fill="#293693"/>
<path fill-rule="evenodd" clip-rule="evenodd" d="M16.5511 6.89239C16.5511 6.89239 22.9657 6.42144 26.6326 9.09071C30.3002 11.7614 28.6069 16.8681 28.6069 16.8681L27.1531 14.3308L27.5707 12.7495L26.7914 13.8159L25.5916 12.5979L25.7087 11.0258L24.988 12.2435L24.067 11.3022L24.6123 10.3819L23.5189 10.9798L21.7085 9.91739L22.6286 9.36206L20.7204 9.33795L16.5511 6.89239Z" fill="#293693"/>
<path fill-rule="evenodd" clip-rule="evenodd" d="M17.7485 7.04163C17.7485 7.04163 12.2706 6.14122 8.90914 8.15368C5.54792 10.1667 6.60608 14.6875 6.60608 14.6875L8.05405 12.6182L7.81746 11.2263L8.40414 12.2041L9.53131 11.2496L9.55299 9.88806L10.0777 10.9914L10.9429 10.2522L10.5461 9.41963L11.4398 10.0181L13.0795 9.24443L12.3312 8.69555L13.9735 8.82226L17.7485 7.04163Z" fill="#293693"/>
<path fill-rule="evenodd" clip-rule="evenodd" d="M17.7971 7.03679C17.7971 7.03679 14.0922 4.24559 10.8141 4.43285C7.53736 4.62066 6.55017 8.3804 6.55017 8.3804L8.43301 7.40822L8.80253 6.28608L8.85548 7.23751L10.064 6.96643L10.6119 5.96735L10.5693 6.98858L11.4991 6.77609L11.5317 6.00547L11.959 6.79515L13.4762 6.85795L13.1369 6.16162L14.3035 6.89271L17.7971 7.03679Z" fill="#293693"/>
<path fill-rule="evenodd" clip-rule="evenodd" d="M17.973 6.10352C17.973 6.10352 12.6157 9.64684 11.3649 13.9947C10.1133 18.3428 14.5983 21.342 14.5983 21.342L14.1834 18.4502L12.8782 17.4576L14.151 17.8239L14.3482 16.1285L13.2861 14.959L14.6064 15.4804L14.7532 14.1747L13.7564 13.7802L14.9886 13.5849L15.7643 11.6414L14.6943 11.7644L16.1868 10.5814L17.973 6.10352Z" fill="#293693"/>
<path fill-rule="evenodd" clip-rule="evenodd" d="M18.5082 10.1136L18.0998 9.83301L17.7832 9.85235C17.7832 9.85235 24.4882 30.6251 10.0116 42.8148C11.5297 42.6457 13.3683 42.3503 15.363 41.7966C15.5187 41.7532 15.5441 41.7495 15.7018 41.7038C19.5734 35.7996 23.5306 25.1438 18.5082 10.1136Z" fill="#293693"/>
<path d="M3.42875 48.9556C3.04232 50.4753 3.14766 51.7376 3.81461 52.6515C6.88489 56.8577 20.6849 52.088 34.6376 41.9985C47.1691 32.9367 54.2617 22.9279 54.9151 17.6211C54.0414 21.3912 49.555 27.259 42.0594 33.1352C40.154 34.765 38.0881 36.3937 35.8893 37.9837C23.6147 46.8596 11.4645 51.4564 7.20935 49.0902C5.75772 49.2082 4.4855 49.1659 3.42875 48.9556Z" fill="url(#paint3_linear_0_470)"/>
<path d="M3.94535 37.984C0.644685 41.7894 -0.7723 45.097 0.414858 47.1433C3.02661 51.6459 17.2519 48.3381 32.1879 39.7553C45.6021 32.0469 53.7069 22.831 54.9143 17.6211C52.4203 22.6916 44.4239 29.8189 33.8541 35.8927C19.4787 44.1534 5.78707 47.337 3.27333 43.0035C2.54949 41.7555 2.83339 40.0197 3.94535 37.984Z" fill="url(#paint4_linear_0_470)"/>
<path d="M52.1914 8.58561L58.0835 8.60636L59.0454 6.26367L52.6544 7.4573L52.1914 8.58561Z" fill="#293693"/>
<path d="M53.3198 13.0274L56.4794 13.0386L56.9951 11.7822L53.5682 12.4225L53.3198 13.0274Z" fill="#293693"/>
<path d="M63.2733 13.0915L59.0519 9.00019L60.0138 6.65723L63.7364 11.9635L63.2733 13.0915Z" fill="#293693"/>
<path d="M59.3437 15.4776L57.0801 13.2835L57.5958 12.0273L59.5921 14.8727L59.3437 15.4776Z" fill="#293693"/>
<path d="M56.1147 14.778C55.8334 14.6637 55.6906 14.3508 55.7886 14.0646L59.3929 3.57004C59.5472 3.14478 59.8387 2.78232 60.2218 2.53928L60.7451 2.20653C61.0949 1.98451 61.5602 2.17373 61.6534 2.57628L61.7934 3.17814C61.8956 3.61881 61.8486 4.08051 61.6599 4.49175L56.8493 14.496C56.7183 14.7688 56.3961 14.8927 56.1147 14.778Z" fill="#293693"/>
<path d="M7.00057 54.1406C6.77581 55.6922 7.01324 56.9365 7.77257 57.7758C11.2676 61.6395 24.4911 55.4603 37.3076 43.9745C48.8187 33.6585 54.8212 22.9669 54.9139 17.6211C54.8528 17.8838 54.7739 18.1574 54.6779 18.4396C54.768 18.1599 54.8469 17.8866 54.9139 17.6211C54.441 21.4616 50.5951 27.7641 43.7571 34.3882C42.0334 36.2073 40.1503 38.0417 38.1306 39.8515C26.8555 49.9561 15.2549 55.7917 10.7744 53.881C9.34334 54.1492 8.07366 54.2395 7.00057 54.1406Z" fill="url(#paint5_linear_0_470)"/>
<path d="M211.678 58.3509V49.2095L212.681 50.2094H209.671V48.3525H214V58.3509H211.678Z" fill="#162352"/>
<path d="M192.982 58.3509V48.3525H194.903L200.824 55.5514H199.892V48.3525H202.186V58.3509H200.279L194.344 51.1521H195.276V58.3509H192.982ZM203.519 55.2514V53.8945H208.364V55.2514H203.519ZM205.942 52.9518C205.416 52.9518 204.948 52.8518 204.537 52.6519C204.135 52.4519 203.815 52.171 203.576 51.8091C203.347 51.4473 203.232 51.0378 203.232 50.5808C203.232 50.1237 203.347 49.719 203.576 49.3667C203.815 49.0143 204.135 48.7382 204.537 48.5382C204.948 48.3383 205.416 48.2383 205.942 48.2383C206.477 48.2383 206.945 48.3383 207.347 48.5382C207.758 48.7382 208.078 49.0143 208.307 49.3667C208.536 49.719 208.651 50.1285 208.651 50.595C208.651 51.0426 208.532 51.4473 208.293 51.8091C208.063 52.1615 207.748 52.4424 207.347 52.6519C206.945 52.8518 206.477 52.9518 205.942 52.9518ZM205.942 51.7663C206.295 51.7663 206.582 51.6615 206.802 51.4521C207.022 51.233 207.132 50.9426 207.132 50.5808C207.132 50.2189 207.022 49.938 206.802 49.738C206.582 49.5285 206.295 49.4238 205.942 49.4238C205.588 49.4238 205.297 49.5285 205.067 49.738C204.847 49.938 204.737 50.2237 204.737 50.595C204.737 50.9474 204.847 51.233 205.067 51.4521C205.297 51.6615 205.588 51.7663 205.942 51.7663Z" fill="#162352"/>
<path d="M177.204 58.3509V48.3525H179.512V54.8658L184.3 48.3525H186.479V58.3509H184.186V51.852L179.398 58.3509H177.204ZM181.835 47.7098C180.879 47.7098 180.176 47.5193 179.727 47.1384C179.288 46.7575 179.063 46.2195 179.053 45.5244H180.645C180.654 45.8672 180.755 46.1291 180.946 46.31C181.147 46.4814 181.443 46.5671 181.835 46.5671C182.217 46.5671 182.508 46.4814 182.709 46.31C182.91 46.1291 183.015 45.8672 183.025 45.5244H184.616C184.606 46.2195 184.377 46.7575 183.928 47.1384C183.478 47.5193 182.781 47.7098 181.835 47.7098Z" fill="#162352"/>
<path d="M165.431 58.3509V48.3525H167.739V54.8658L172.527 48.3525H174.707V58.3509H172.413V51.852L167.625 58.3509H165.431Z" fill="#162352"/>
<path d="M154.749 58.3509V48.3525H159.422C160.588 48.3525 161.496 48.5763 162.146 49.0239C162.796 49.4714 163.121 50.1094 163.121 50.9378C163.121 51.7568 162.815 52.3947 162.203 52.8518C161.592 53.2994 160.779 53.5231 159.766 53.5231L160.039 52.9232C161.166 52.9232 162.041 53.147 162.662 53.5946C163.283 54.0421 163.594 54.6896 163.594 55.5371C163.594 56.4131 163.259 57.1035 162.59 57.6082C161.931 58.1033 160.966 58.3509 159.694 58.3509H154.749ZM157.057 56.6369H159.608C160.144 56.6369 160.55 56.5322 160.827 56.3227C161.104 56.1132 161.243 55.7894 161.243 55.3514C161.243 54.9324 161.104 54.623 160.827 54.423C160.55 54.2135 160.144 54.1088 159.608 54.1088H157.057V56.6369ZM157.057 52.4947H159.221C159.728 52.4947 160.11 52.3947 160.368 52.1948C160.626 51.9853 160.755 51.6806 160.755 51.2806C160.755 50.8807 160.626 50.5808 160.368 50.3808C160.11 50.1713 159.728 50.0665 159.221 50.0665H157.057V52.4947Z" fill="#162352"/>
<path d="M147.784 58.3509V49.7095L148.315 50.238H144.587V48.3525H153.289V50.238H149.562L150.078 49.7095V58.3509H147.784Z" fill="#162352"/>
<path d="M140.061 58.5219C139.287 58.5219 138.566 58.3981 137.897 58.1505C137.237 57.8934 136.664 57.5315 136.176 57.0649C135.689 56.5984 135.307 56.0508 135.029 55.4224C134.762 54.7939 134.628 54.1035 134.628 53.3513C134.628 52.599 134.762 51.9086 135.029 51.2802C135.307 50.6517 135.689 50.1042 136.176 49.6376C136.673 49.171 137.251 48.8139 137.911 48.5663C138.57 48.3092 139.292 48.1807 140.076 48.1807C140.945 48.1807 141.729 48.333 142.427 48.6377C143.134 48.9329 143.727 49.3709 144.204 49.9518L142.713 51.323C142.369 50.9326 141.987 50.6422 141.567 50.4517C141.146 50.2518 140.687 50.1518 140.19 50.1518C139.722 50.1518 139.292 50.228 138.9 50.3803C138.508 50.5327 138.169 50.7517 137.882 51.0373C137.595 51.323 137.371 51.6611 137.208 52.0515C137.055 52.4419 136.979 52.8751 136.979 53.3513C136.979 53.8274 137.055 54.2606 137.208 54.651C137.371 55.0415 137.595 55.3795 137.882 55.6652C138.169 55.9508 138.508 56.1699 138.9 56.3222C139.292 56.4746 139.722 56.5507 140.19 56.5507C140.687 56.5507 141.146 56.4555 141.567 56.2651C141.987 56.0651 142.369 55.7652 142.713 55.3652L144.204 56.7364C143.727 57.3173 143.134 57.7601 142.427 58.0648C141.729 58.3695 140.941 58.5219 140.061 58.5219Z" fill="#162352"/>
<path d="M127.805 52.3805H132.637V54.1802H127.805V52.3805ZM127.978 56.4941H133.44V58.3509H125.669V48.3525H133.253V50.2094H127.978V56.4941Z" fill="#162352"/>
<path d="M115.927 56.4655L115.41 56.994V48.3525H117.719V56.994L117.174 56.4655H121.417L120.872 56.994V48.3525H123.181V58.3509H109.934V48.3525H112.242V56.994L111.712 56.4655H115.927Z" fill="#162352"/>
<path d="M102.424 52.3805H107.255V54.1802H102.424V52.3805ZM102.596 56.4941H108.058V58.3509H100.288V48.3525H107.871V50.2094H102.596V56.4941Z" fill="#162352"/>
<path d="M93.3249 58.3509V49.7095L93.8553 50.238H90.1279V48.3525H98.8299V50.238H95.1025L95.6186 49.7095V58.3509H93.3249Z" fill="#162352"/>
<path d="M81.326 56.4655C81.8804 56.6274 82.3439 56.675 82.7166 56.6084C83.0989 56.5322 83.4382 56.2656 83.7345 55.8085L84.2219 55.08L84.437 54.8372L87.7629 48.3525H90.0423L85.7702 56.2655C85.3879 56.9797 84.9339 57.5273 84.4083 57.9081C83.8922 58.289 83.3235 58.5033 82.7023 58.5509C82.0811 58.608 81.436 58.4985 80.7669 58.2224L81.326 56.4655ZM84.3939 56.7655L79.8638 48.3525H82.3439L85.6698 55.0657L84.3939 56.7655Z" fill="#162352"/>
<path d="M69.3481 58.3509V48.3525H78.4945V58.3509H76.1864V49.7095L76.7168 50.238H71.1258L71.6562 49.7095V58.3509H69.3481Z" fill="#162352"/>
<path d="M136.282 42.597V32.5986H140.626C141.524 32.5986 142.299 32.7462 142.948 33.0414C143.598 33.3271 144.1 33.7413 144.454 34.2841C144.807 34.8268 144.984 35.4744 144.984 36.2266C144.984 36.9694 144.807 37.6121 144.454 38.1549C144.1 38.6977 143.598 39.1166 142.948 39.4118C142.299 39.6975 141.524 39.8403 140.626 39.8403H137.572L138.605 38.7976V42.597H136.282ZM138.605 39.0547L137.572 37.9549H140.497C141.214 37.9549 141.749 37.8026 142.103 37.4978C142.456 37.1931 142.633 36.7694 142.633 36.2266C142.633 35.6743 142.456 35.2458 142.103 34.9411C141.749 34.6364 141.214 34.484 140.497 34.484H137.572L138.605 33.3842V39.0547Z" fill="#162352"/>
<path d="M129.319 42.597V33.9556L129.849 34.484H126.122V32.5986H134.824V34.484H131.096L131.612 33.9556V42.597H129.319Z" fill="#162352"/>
<path d="M122.317 32.5986H124.64V42.597H122.317V32.5986ZM117.758 42.597H115.436V32.5986H117.758V42.597ZM122.489 38.4977H117.586V36.5409H122.489V38.4977Z" fill="#162352"/>
<path d="M107.926 36.6266H112.757V38.4263H107.926V36.6266ZM108.098 40.7402H113.56V42.597H105.79V32.5986H113.373V34.4555H108.098V40.7402Z" fill="#162352"/>
<path d="M93.7363 42.597V32.5986H96.0444V40.7116H100.517V32.5986H102.825V42.597H93.7363ZM102.123 44.711V42.0543L102.625 42.597H100.517V40.7116H104.259V44.711H102.123Z" fill="#162352"/>
<path d="M82.313 42.6686C81.5676 42.6686 80.8746 42.5448 80.2343 42.2972C79.6035 42.0401 79.0492 41.683 78.5713 41.2259C78.103 40.7594 77.7398 40.2213 77.4818 39.6119C77.2238 38.993 77.0947 38.3216 77.0947 37.598C77.0947 36.8743 77.2238 36.2077 77.4818 35.5983C77.7398 34.9793 78.103 34.4413 78.5713 33.9843C79.0492 33.5177 79.6035 33.1606 80.2343 32.913C80.8746 32.6559 81.5676 32.5273 82.313 32.5273C83.0585 32.5273 83.7466 32.6559 84.3774 32.913C85.0178 33.1606 85.5721 33.5129 86.0404 33.97C86.5087 34.427 86.8719 34.965 87.1299 35.584C87.3975 36.1934 87.5313 36.8647 87.5313 37.598C87.5313 38.3312 87.3975 39.0073 87.1299 39.6262C86.8719 40.2356 86.5087 40.7689 86.0404 41.2259C85.5721 41.683 85.0178 42.0401 84.3774 42.2972C83.7466 42.5448 83.0585 42.6686 82.313 42.6686ZM82.313 41.9972C82.9534 41.9972 83.5459 41.8877 84.0907 41.6687C84.6355 41.4497 85.1085 41.1402 85.51 40.7403C85.9114 40.3404 86.222 39.8738 86.4418 39.3405C86.6712 38.8073 86.7859 38.2264 86.7859 37.598C86.7859 36.96 86.6712 36.3791 86.4418 35.8554C86.222 35.3221 85.9114 34.8555 85.51 34.4556C85.1085 34.0557 84.6355 33.7462 84.0907 33.5272C83.5459 33.3082 82.9534 33.1987 82.313 33.1987C81.6727 33.1987 81.0801 33.3082 80.5354 33.5272C79.9906 33.7462 79.5127 34.0557 79.1018 34.4556C78.7004 34.8555 78.385 35.3221 78.1556 35.8554C77.9358 36.3791 77.8259 36.96 77.8259 37.598C77.8259 38.2264 77.9358 38.8073 78.1556 39.3405C78.385 39.8738 78.7004 40.3404 79.1018 40.7403C79.5127 41.1402 79.9906 41.4497 80.5354 41.6687C81.0801 41.8877 81.6727 41.9972 82.313 41.9972Z" fill="url(#paint6_linear_0_470)"/>
<path d="M71.8573 42.597V33.0271L72.0723 33.2557H68.2446V32.5986H76.2011V33.2557H72.3734L72.5884 33.0271V42.597H71.8573Z" fill="url(#paint7_linear_0_470)"/>
<path d="M210.851 28.885L211.41 26.4711L211.482 26.8854C211.3 26.8854 211.147 26.8282 211.023 26.714C210.908 26.5997 210.851 26.4569 210.851 26.2855C210.851 26.114 210.908 25.9712 211.023 25.8569C211.147 25.7427 211.291 25.6855 211.453 25.6855C211.635 25.6855 211.778 25.7474 211.883 25.8712C211.998 25.9855 212.055 26.1236 212.055 26.2855C212.055 26.3521 212.051 26.4188 212.041 26.4854C212.031 26.5521 212.017 26.6187 211.998 26.6854C211.979 26.752 211.955 26.8377 211.926 26.9425L211.367 28.885H210.851Z" fill="url(#paint8_linear_0_470)"/>
<path d="M202.423 26.1004C202.892 26.2813 203.346 26.3242 203.785 26.2289C204.225 26.1242 204.641 25.7671 205.033 25.1577L205.52 24.4007L205.606 24.2864L209.563 16.8447H210.323L205.692 25.3291C205.405 25.8718 205.066 26.2718 204.674 26.5289C204.292 26.786 203.886 26.9193 203.456 26.9288C203.035 26.9479 202.615 26.8717 202.194 26.7003L202.423 26.1004ZM205.563 24.9863L201.262 16.8447H202.065L205.979 24.3435L205.563 24.9863Z" fill="url(#paint9_linear_0_470)"/>
<path d="M190.91 26.8431V16.8447H191.641V26.1861H198.106V16.8447H198.837V26.8431H190.91ZM199.769 29.257V26.6146L199.97 26.8431H198.106V26.1861H200.457V29.257H199.769Z" fill="url(#paint10_linear_0_470)"/>
<path d="M179.079 26.8431V16.8447H179.81V25.6147L186.648 16.8447H187.293V26.8431H186.562V18.0874L179.724 26.8431H179.079Z" fill="url(#paint11_linear_0_470)"/>
<path d="M174.732 16.8447H175.464V26.8431H174.732V16.8447ZM168.023 26.8431H167.292V16.8447H168.023V26.8431ZM174.818 22.0867H167.937V21.444H174.818V22.0867Z" fill="url(#paint12_linear_0_470)"/>
<path d="M155.243 26.8431L159.859 16.8447H160.59L165.206 26.8431H164.418L160.06 17.3018H160.375L156.031 26.8431H155.243ZM156.934 24.0293L157.178 23.4151H163.185L163.429 24.0293H156.934Z" fill="url(#paint13_linear_0_470)"/>
<path d="M147.298 26.8431V16.8447H150.897C151.738 16.8447 152.459 16.978 153.061 17.2447C153.664 17.5113 154.127 17.8969 154.452 18.4016C154.777 18.8968 154.939 19.5014 154.939 20.2156C154.939 20.9107 154.777 21.5106 154.452 22.0153C154.127 22.52 153.664 22.9057 153.061 23.1723C152.459 23.4389 151.738 23.5722 150.897 23.5722H147.7L148.029 23.2294V26.8431H147.298ZM148.029 23.2723L147.7 22.9152H150.897C151.977 22.9152 152.794 22.6819 153.348 22.2153C153.912 21.7392 154.194 21.0726 154.194 20.2156C154.194 19.3491 153.912 18.6825 153.348 18.2159C152.794 17.7398 151.977 17.5018 150.897 17.5018H147.7L148.029 17.1447V23.2723Z" fill="url(#paint14_linear_0_470)"/>
<path d="M139.151 26.8431V16.8447H145.358V17.5018H139.667L139.882 17.2732V26.8431H139.151Z" fill="url(#paint15_linear_0_470)"/>
<path d="M123.421 26.8431L128.038 16.8447H128.769L133.385 26.8431H132.596L128.238 17.3018H128.554L124.21 26.8431H123.421ZM125.113 24.0293L125.357 23.4151H131.364L131.607 24.0293H125.113Z" fill="url(#paint16_linear_0_470)"/>
<path d="M114.636 25.5575L114.937 25.0433C115.386 25.4528 115.892 25.7575 116.456 25.9575C117.02 26.1574 117.589 26.2622 118.162 26.2717C118.736 26.2717 119.261 26.186 119.739 26.0146C120.227 25.8337 120.618 25.5718 120.915 25.229C121.211 24.8767 121.359 24.4529 121.359 23.9578C121.359 23.3103 121.111 22.8151 120.614 22.4723C120.117 22.1295 119.419 21.9581 118.521 21.9581H116.456V21.3296H118.492C119.257 21.3296 119.854 21.1678 120.284 20.844C120.714 20.5107 120.929 20.0537 120.929 19.4728C120.929 19.0538 120.81 18.6967 120.571 18.4015C120.341 18.1063 120.026 17.8778 119.624 17.7159C119.233 17.5445 118.788 17.4493 118.291 17.4303C117.794 17.4112 117.278 17.4731 116.743 17.616C116.217 17.7588 115.711 17.9873 115.223 18.3016L114.951 17.6874C115.534 17.335 116.136 17.0875 116.757 16.9446C117.379 16.7923 117.981 16.7399 118.564 16.7875C119.156 16.8351 119.682 16.9684 120.141 17.1874C120.609 17.4065 120.982 17.7017 121.259 18.073C121.536 18.4444 121.675 18.8824 121.675 19.3871C121.675 19.8727 121.555 20.2965 121.316 20.6583C121.077 21.0106 120.738 21.2868 120.298 21.4868C119.859 21.6772 119.343 21.7724 118.75 21.7724L118.807 21.501C119.486 21.501 120.069 21.6058 120.556 21.8153C121.053 22.0248 121.436 22.32 121.703 22.7008C121.971 23.0817 122.105 23.5293 122.105 24.0435C122.105 24.5386 121.98 24.9767 121.732 25.3576C121.493 25.7289 121.163 26.0384 120.743 26.286C120.332 26.524 119.863 26.7002 119.338 26.8145C118.822 26.9192 118.286 26.943 117.732 26.8859C117.178 26.8383 116.633 26.705 116.098 26.4859C115.563 26.2669 115.075 25.9575 114.636 25.5575Z" fill="url(#paint17_linear_0_470)"/>
<path d="M100.399 26.8431V16.8447H101.131V25.6147L107.969 16.8447H108.614V26.8431H107.883V18.0874L101.045 26.8431H100.399Z" fill="url(#paint18_linear_0_470)"/>
<path d="M88.2383 26.9145C88.1236 26.9145 88.0089 26.905 87.8942 26.886C87.7891 26.8764 87.6648 26.8574 87.5215 26.8288L87.6075 26.1575C87.77 26.1956 87.9277 26.2146 88.0806 26.2146C88.5202 26.2146 88.8738 26.0432 89.1415 25.7004C89.4186 25.3576 89.6289 24.8196 89.7722 24.0864C89.9156 23.3437 90.0112 22.3772 90.059 21.1869L90.2023 16.8447H96.7825V26.8431H96.0514V17.2732L96.2664 17.5018H90.6611L90.8761 17.2732L90.7327 21.1726C90.6945 22.182 90.6228 23.0485 90.5177 23.7722C90.4126 24.4864 90.2597 25.0767 90.059 25.5433C89.8678 26.0099 89.6193 26.3575 89.3135 26.586C89.0172 26.805 88.6588 26.9145 88.2383 26.9145Z" fill="url(#paint19_linear_0_470)"/>
<path d="M83.5311 26.9147C82.7856 26.9147 82.0927 26.7909 81.4524 26.5433C80.8216 26.2862 80.2721 25.9291 79.8038 25.472C79.3354 25.015 78.9723 24.4817 78.7142 23.8723C78.4562 23.2533 78.3271 22.5773 78.3271 21.844C78.3271 21.1108 78.4562 20.4395 78.7142 19.8301C78.9723 19.2111 79.3354 18.6731 79.8038 18.2161C80.2816 17.759 80.8359 17.4067 81.4667 17.1591C82.0975 16.902 82.7856 16.7734 83.5311 16.7734C84.2384 16.7734 84.8978 16.8877 85.5095 17.1162C86.1307 17.3448 86.6611 17.6923 87.1008 18.1589L86.642 18.6303C86.2119 18.2113 85.7341 17.9113 85.2084 17.7304C84.6923 17.54 84.1428 17.4448 83.5598 17.4448C82.9194 17.4448 82.3221 17.5543 81.7678 17.7733C81.223 17.9923 80.7452 18.3018 80.3342 18.7017C79.9328 19.1016 79.6174 19.5682 79.388 20.1015C79.1682 20.6347 79.0583 21.2156 79.0583 21.844C79.0583 22.4725 79.1682 23.0534 79.388 23.5866C79.6174 24.1199 79.9328 24.5865 80.3342 24.9864C80.7452 25.3863 81.223 25.6958 81.7678 25.9148C82.3221 26.1338 82.9194 26.2433 83.5598 26.2433C84.1428 26.2433 84.6923 26.1529 85.2084 25.972C85.7341 25.7815 86.2119 25.472 86.642 25.0435L87.1008 25.5149C86.6611 25.9815 86.1307 26.3338 85.5095 26.5719C84.8978 26.8004 84.2384 26.9147 83.5311 26.9147Z" fill="url(#paint20_linear_0_470)"/>
<path d="M70.5514 21.444H75.9847V22.0867H70.5514V21.444ZM70.6374 26.1861H76.8305V26.8431H69.9062V16.8447H76.6155V17.5018H70.6374V26.1861Z" fill="url(#paint21_linear_0_470)"/>
<defs>
<linearGradient id="paint0_linear_0_470" x1="57.4989" y1="36.4443" x2="20.6419" y2="63.7597" gradientUnits="userSpaceOnUse">
<stop stop-color="#263799"/>
<stop offset="1" stop-color="#00AEE7"/>
</linearGradient>
<linearGradient id="paint1_linear_0_470" x1="60.0967" y1="9.38007" x2="23.1445" y2="55.3226" gradientUnits="userSpaceOnUse">
<stop stop-color="#D00024"/>
<stop offset="0.800697" stop-color="#FF8A00"/>
</linearGradient>
<linearGradient id="paint2_linear_0_470" x1="60.0967" y1="9.38007" x2="23.1445" y2="55.3226" gradientUnits="userSpaceOnUse">
<stop stop-color="#D00024"/>
<stop offset="0.800697" stop-color="#FF8A00"/>
</linearGradient>
<linearGradient id="paint3_linear_0_470" x1="54.9151" y1="20.4071" x2="18.4558" y2="64.1158" gradientUnits="userSpaceOnUse">
<stop stop-color="#D00024"/>
<stop offset="1" stop-color="#FF8A00"/>
</linearGradient>
<linearGradient id="paint4_linear_0_470" x1="55.0772" y1="27.0831" x2="25.0015" y2="64.8446" gradientUnits="userSpaceOnUse">
<stop stop-color="#263799"/>
<stop offset="1" stop-color="#00AEE7"/>
</linearGradient>
<linearGradient id="paint5_linear_0_470" x1="55.0563" y1="30.015" x2="15.262" y2="63.3526" gradientUnits="userSpaceOnUse">
<stop stop-color="#00AEE7"/>
<stop offset="1" stop-color="#263799"/>
</linearGradient>
<linearGradient id="paint6_linear_0_470" x1="245.042" y1="13.9382" x2="214.903" y2="104.206" gradientUnits="userSpaceOnUse">
<stop stop-color="#D00024"/>
<stop offset="0.800697" stop-color="#FF8A00"/>
</linearGradient>
<linearGradient id="paint7_linear_0_470" x1="245.044" y1="13.9381" x2="214.904" y2="104.205" gradientUnits="userSpaceOnUse">
<stop stop-color="#D00024"/>
<stop offset="0.800697" stop-color="#FF8A00"/>
</linearGradient>
<linearGradient id="paint8_linear_0_470" x1="245.044" y1="13.9374" x2="214.904" y2="104.205" gradientUnits="userSpaceOnUse">
<stop stop-color="#D00024"/>
<stop offset="0.800697" stop-color="#FF8A00"/>
</linearGradient>
<linearGradient id="paint9_linear_0_470" x1="245.043" y1="13.938" x2="214.903" y2="104.205" gradientUnits="userSpaceOnUse">
<stop stop-color="#D00024"/>
<stop offset="0.800697" stop-color="#FF8A00"/>
</linearGradient>
<linearGradient id="paint10_linear_0_470" x1="245.044" y1="13.938" x2="214.904" y2="104.205" gradientUnits="userSpaceOnUse">
<stop stop-color="#D00024"/>
<stop offset="0.800697" stop-color="#FF8A00"/>
</linearGradient>
<linearGradient id="paint11_linear_0_470" x1="245.043" y1="13.938" x2="214.903" y2="104.205" gradientUnits="userSpaceOnUse">
<stop stop-color="#D00024"/>
<stop offset="0.800697" stop-color="#FF8A00"/>
</linearGradient>
<linearGradient id="paint12_linear_0_470" x1="245.044" y1="13.938" x2="214.904" y2="104.205" gradientUnits="userSpaceOnUse">
<stop stop-color="#D00024"/>
<stop offset="0.800697" stop-color="#FF8A00"/>
</linearGradient>
<linearGradient id="paint13_linear_0_470" x1="245.043" y1="13.938" x2="214.903" y2="104.205" gradientUnits="userSpaceOnUse">
<stop stop-color="#D00024"/>
<stop offset="0.800697" stop-color="#FF8A00"/>
</linearGradient>
<linearGradient id="paint14_linear_0_470" x1="245.042" y1="13.938" x2="214.903" y2="104.205" gradientUnits="userSpaceOnUse">
<stop stop-color="#D00024"/>
<stop offset="0.800697" stop-color="#FF8A00"/>
</linearGradient>
<linearGradient id="paint15_linear_0_470" x1="245.043" y1="13.938" x2="214.903" y2="104.205" gradientUnits="userSpaceOnUse">
<stop stop-color="#D00024"/>
<stop offset="0.800697" stop-color="#FF8A00"/>
</linearGradient>
<linearGradient id="paint16_linear_0_470" x1="245.043" y1="13.938" x2="214.904" y2="104.205" gradientUnits="userSpaceOnUse">
<stop stop-color="#D00024"/>
<stop offset="0.800697" stop-color="#FF8A00"/>
</linearGradient>
<linearGradient id="paint17_linear_0_470" x1="245.044" y1="13.938" x2="214.904" y2="104.205" gradientUnits="userSpaceOnUse">
<stop stop-color="#D00024"/>
<stop offset="0.800697" stop-color="#FF8A00"/>
</linearGradient>
<linearGradient id="paint18_linear_0_470" x1="245.044" y1="13.938" x2="214.904" y2="104.205" gradientUnits="userSpaceOnUse">
<stop stop-color="#D00024"/>
<stop offset="0.800697" stop-color="#FF8A00"/>
</linearGradient>
<linearGradient id="paint19_linear_0_470" x1="245.043" y1="13.938" x2="214.903" y2="104.205" gradientUnits="userSpaceOnUse">
<stop stop-color="#D00024"/>
<stop offset="0.800697" stop-color="#FF8A00"/>
</linearGradient>
<linearGradient id="paint20_linear_0_470" x1="245.042" y1="13.9382" x2="214.903" y2="104.206" gradientUnits="userSpaceOnUse">
<stop stop-color="#D00024"/>
<stop offset="0.800697" stop-color="#FF8A00"/>
</linearGradient>
<linearGradient id="paint21_linear_0_470" x1="245.042" y1="13.938" x2="214.903" y2="104.205" gradientUnits="userSpaceOnUse">
<stop stop-color="#D00024"/>
<stop offset="0.800697" stop-color="#FF8A00"/>
</linearGradient>
</defs>
</svg>
