<svg width="48" height="48" viewBox="0 0 48 48" fill="none" xmlns="http://www.w3.org/2000/svg">
<rect width="48" height="48" rx="14" fill="#97E8FF"/>
<path d="M35.2945 10.1129C34.4724 10.2279 33.6356 10.088 32.8921 9.71157L26.8976 6.67694C25.0765 5.755 22.9338 5.77581 21.1303 6.73298L15.5775 9.67951C14.8295 10.0765 13.9807 10.231 13.1447 10.1226L12.6658 10.0605C10.1901 9.7392 7.99994 11.7095 7.99994 14.2581V24.7422C7.99994 27.8686 9.36107 30.8335 11.7144 32.8334L21.3495 41.0212C22.8853 42.3263 25.1146 42.3263 26.6506 41.0212L36.2855 32.8334C38.6389 30.8335 39.9999 27.8686 39.9999 24.7422V14.3052C40 11.7403 37.7831 9.76508 35.2945 10.1129ZM30.0824 29.3546L26.9332 32.2811C26.6008 32.5894 26.1819 32.7417 25.7648 32.7417C25.2934 32.7417 24.8236 32.5478 24.4811 32.1633C23.8349 31.436 23.8875 30.3173 24.5964 29.6558L27.7456 26.7291C28.4544 26.0745 29.555 26.1265 30.1977 26.8469C30.8438 27.5743 30.7912 28.693 30.0824 29.3546Z" fill="white"/>
</svg>
