<svg width="48" height="48" viewBox="0 0 48 48" fill="none" xmlns="http://www.w3.org/2000/svg">
<rect width="48" height="48" rx="14" fill="#97E8FF"/>
<path d="M16 20.087C17.9096 20.087 19.7409 19.3449 21.0912 18.024C22.4414 16.7031 23.2 14.9115 23.2 13.0435C23.2 11.1754 22.4414 9.3839 21.0912 8.06299C19.7409 6.74208 17.9096 6 16 6C14.0904 6 12.2591 6.74208 10.9088 8.06299C9.55857 9.3839 8.8 11.1754 8.8 13.0435C8.8 14.9115 9.55857 16.7031 10.9088 18.024C12.2591 19.3449 14.0904 20.087 16 20.087ZM38.4 14.6087C38.4 15.3281 38.2552 16.0405 37.9737 16.7051C37.6923 17.3698 37.2798 17.9737 36.7598 18.4824C36.2398 18.9911 35.6225 19.3946 34.943 19.6699C34.2636 19.9453 33.5354 20.087 32.8 20.087C32.0646 20.087 31.3364 19.9453 30.657 19.6699C29.9776 19.3946 29.3602 18.9911 28.8402 18.4824C28.3202 17.9737 27.9077 17.3698 27.6263 16.7051C27.3449 16.0405 27.2 15.3281 27.2 14.6087C27.2 13.1558 27.79 11.7624 28.8402 10.735C29.8904 9.70761 31.3148 9.13043 32.8 9.13043C34.2852 9.13043 35.7096 9.70761 36.7598 10.735C37.81 11.7624 38.4 13.1558 38.4 14.6087ZM4 26.7391C4 25.8051 4.37928 24.9093 5.05442 24.2489C5.72955 23.5884 6.64522 23.2174 7.6 23.2174H24.4C24.7179 23.2184 25.0235 23.257 25.3168 23.3332C24.1408 24.4282 23.2049 25.7458 22.5659 27.2059C21.9269 28.6659 21.5983 30.2379 21.6 31.8261C21.6 32.867 21.7376 33.875 21.9984 34.8344C20.4384 35.3901 18.4736 35.7391 16 35.7391C4 35.7391 4 27.5217 4 27.5217V26.7391ZM44 31.8261C44 34.5244 42.9043 37.1122 40.9539 39.0201C39.0035 40.9281 36.3583 42 33.6 42C30.8417 42 28.1965 40.9281 26.2461 39.0201C24.2957 37.1122 23.2 34.5244 23.2 31.8261C23.2 29.1278 24.2957 26.54 26.2461 24.632C28.1965 22.7241 30.8417 21.6522 33.6 21.6522C36.3583 21.6522 39.0035 22.7241 40.9539 24.632C42.9043 26.54 44 29.1278 44 31.8261ZM34.7424 25.6278C34.672 25.3845 34.5224 25.1702 34.3162 25.0176C34.11 24.865 33.8585 24.7825 33.6 24.7825C33.3415 24.7825 33.09 24.865 32.8838 25.0176C32.6776 25.1702 32.528 25.3845 32.4576 25.6278L31.312 29.2247H27.6032C26.44 29.2247 25.9552 30.743 26.8976 31.441L29.8976 33.6637L28.752 37.2605C28.392 38.389 29.6592 39.3266 30.6 38.6301L33.6 36.4075L36.6 38.6301C37.5408 39.3282 38.808 38.389 38.448 37.2605L37.3024 33.6637L40.3024 31.441C41.2432 30.7445 40.76 29.2247 39.5968 29.2247H35.888L34.7424 25.6278Z" fill="white"/>
</svg>
